Truculenta-CondensedThin.ufo
<glyph name="exclam" format="2">
  <advance width="257"/>
  <unicode hex="0021"/>
  <outline>
    <contour>
      <point x="115" y="216" type="curve"/>
      <point x="143" y="216" type="line"/>
      <point x="144" y="250"/>
      <point x="145" y="367"/>
      <point x="146" y="425" type="curve" smooth="yes"/>
      <point x="147" y="487"/>
      <point x="153" y="655"/>
      <point x="155" y="708" type="curve"/>
      <point x="103" y="705" type="line"/>
      <point x="104" y="659"/>
      <point x="109" y="513"/>
      <point x="111" y="423" type="curve" smooth="yes"/>
      <point x="113" y="346"/>
      <point x="114" y="244"/>
    </contour>
    <contour>
      <point x="153" y="0" type="line"/>
      <point x="148" y="101" type="line"/>
      <point x="111" y="99" type="line"/>
      <point x="108" y="0" type="line"/>
    </contour>
  </outline>
</glyph>
<glyph name="quotedbl" format="2">
  <advance width="420"/>
  <unicode hex="0022"/>
  <outline>
    <contour>
      <point x="263" y="498" type="curve"/>
      <point x="294" y="503" type="line"/>
      <point x="298" y="532"/>
      <point x="303" y="569"/>
      <point x="308" y="604" type="curve" smooth="yes"/>
      <point x="313" y="642"/>
      <point x="319" y="678"/>
      <point x="324" y="699" type="curve"/>
      <point x="269" y="700" type="line"/>
      <point x="269" y="681"/>
      <point x="269" y="635"/>
      <point x="267" y="603" type="curve" smooth="yes"/>
      <point x="266" y="570"/>
      <point x="264" y="520"/>
    </contour>
    <contour>
      <point x="103" y="496" type="curve"/>
      <point x="134" y="504" type="line"/>
      <point x="135" y="531"/>
      <point x="137" y="568"/>
      <point x="140" y="604" type="curve" smooth="yes"/>
      <point x="143" y="646"/>
      <point x="146" y="684"/>
      <point x="149" y="702" type="curve"/>
      <point x="95" y="698" type="line"/>
      <point x="96" y="679"/>
      <point x="99" y="634"/>
      <point x="100" y="602" type="curve" smooth="yes"/>
      <point x="102" y="568"/>
      <point x="102" y="518"/>
    </contour>
  </outline>
</glyph>
<glyph name="numbersign" format="2">
  <advance width="710"/>
  <unicode hex="0023"/>
  <outline>
    <contour>
      <point x="127" y="1" type="line"/>
      <point x="163" y="3" type="line"/>
      <point x="246" y="378" type="line"/>
      <point x="329" y="695" type="line"/>
      <point x="294" y="693" type="line"/>
      <point x="225" y="381" type="line"/>
    </contour>
    <contour>
      <point x="67" y="192" type="line"/>
      <point x="115" y="194"/>
      <point x="250" y="197"/>
      <point x="348" y="196" type="curve" smooth="yes"/>
      <point x="446" y="195"/>
      <point x="553" y="194"/>
      <point x="595" y="194" type="curve"/>
      <point x="593" y="223" type="line"/>
      <point x="553" y="222"/>
      <point x="444" y="220"/>
      <point x="351" y="220" type="curve" smooth="yes"/>
      <point x="259" y="220"/>
      <point x="116" y="222"/>
      <point x="67" y="223" type="curve"/>
    </contour>
    <contour>
      <point x="378" y="0" type="line"/>
      <point x="414" y="1" type="line"/>
      <point x="494" y="367" type="line"/>
      <point x="577" y="682" type="line"/>
      <point x="542" y="683" type="line"/>
      <point x="476" y="381" type="line"/>
    </contour>
    <contour>
      <point x="114" y="479" type="line"/>
      <point x="160" y="481"/>
      <point x="299" y="484"/>
      <point x="399" y="483" type="curve" smooth="yes"/>
      <point x="497" y="482"/>
      <point x="602" y="481"/>
      <point x="642" y="480" type="curve"/>
      <point x="642" y="510" type="line"/>
      <point x="601" y="509"/>
      <point x="493" y="507"/>
      <point x="401" y="507" type="curve" smooth="yes"/>
      <point x="310" y="507"/>
      <point x="163" y="509"/>
      <point x="110" y="510" type="curve"/>
    </contour>
  </outline>
</glyph>
<glyph name="percent" format="2">
  <advance width="714"/>
  <unicode hex="0025"/>
  <outline>
    <contour>
      <point x="212" y="0" type="curve"/>
      <point x="245" y="0" type="line"/>
      <point x="260" y="43"/>
      <point x="329" y="235"/>
      <point x="378" y="363" type="curve" smooth="yes"/>
      <point x="422" y="480"/>
      <point x="480" y="638"/>
      <point x="505" y="693" type="curve"/>
      <point x="471" y="693" type="line"/>
      <point x="456" y="654"/>
      <point x="390" y="475"/>
      <point x="342" y="350" type="curve" smooth="yes"/>
      <point x="297" y="234"/>
      <point x="234" y="57"/>
    </contour>
    <contour>
      <point x="184" y="367" type="curve" smooth="yes"/>
      <point x="250" y="367"/>
      <point x="288" y="422"/>
      <point x="288" y="538" type="curve" smooth="yes"/>
      <point x="288" y="647"/>
      <point x="257" y="699"/>
      <point x="189" y="699" type="curve" smooth="yes"/>
      <point x="117" y="699"/>
      <point x="80" y="648"/>
      <point x="80" y="539" type="curve" smooth="yes"/>
      <point x="80" y="421"/>
      <point x="113" y="367"/>
    </contour>
    <contour>
      <point x="181" y="397" type="curve" smooth="yes"/>
      <point x="134" y="397"/>
      <point x="109" y="444"/>
      <point x="109" y="537" type="curve" smooth="yes"/>
      <point x="109" y="628"/>
      <point x="134" y="670"/>
      <point x="186" y="670" type="curve" smooth="yes"/>
      <point x="236" y="670"/>
      <point x="259" y="631"/>
      <point x="259" y="542" type="curve" smooth="yes"/>
      <point x="259" y="440"/>
      <point x="236" y="397"/>
    </contour>
    <contour>
      <point x="530" y="-1" type="curve" smooth="yes"/>
      <point x="596" y="-1"/>
      <point x="634" y="54"/>
      <point x="634" y="170" type="curve" smooth="yes"/>
      <point x="634" y="279"/>
      <point x="603" y="331"/>
      <point x="535" y="331" type="curve" smooth="yes"/>
      <point x="463" y="331"/>
      <point x="426" y="280"/>
      <point x="426" y="171" type="curve" smooth="yes"/>
      <point x="426" y="53"/>
      <point x="459" y="-1"/>
    </contour>
    <contour>
      <point x="527" y="29" type="curve" smooth="yes"/>
      <point x="480" y="29"/>
      <point x="455" y="76"/>
      <point x="455" y="169" type="curve" smooth="yes"/>
      <point x="455" y="260"/>
      <point x="480" y="302"/>
      <point x="532" y="302" type="curve" smooth="yes"/>
      <point x="582" y="302"/>
      <point x="605" y="263"/>
      <point x="605" y="174" type="curve" smooth="yes"/>
      <point x="605" y="72"/>
      <point x="582" y="29"/>
    </contour>
  </outline>
</glyph>
<glyph name="ampersand" format="2">
  <advance width="511"/>
  <unicode hex="0026"/>
  <outline>
    <contour>
      <point x="215" y="-10" type="curve" smooth="yes"/>
      <point x="356" y="-10"/>
      <point x="392" y="219"/>
      <point x="392" y="380" type="curve"/>
      <point x="359" y="383" type="line"/>
      <point x="363" y="172"/>
      <point x="312" y="23"/>
      <point x="221" y="23" type="curve" smooth="yes"/>
      <point x="145" y="23"/>
      <point x="120" y="87"/>
      <point x="120" y="183" type="curve" smooth="yes"/>
      <point x="120" y="288"/>
      <point x="173" y="346"/>
      <point x="224" y="395" type="curve" smooth="yes"/>
      <point x="271" y="440"/>
      <point x="323" y="497"/>
      <point x="323" y="586" type="curve" smooth="yes"/>
      <point x="323" y="664"/>
      <point x="291" y="702"/>
      <point x="232" y="702" type="curve" smooth="yes"/>
      <point x="170" y="702"/>
      <point x="131" y="653"/>
      <point x="131" y="569" type="curve" smooth="yes"/>
      <point x="131" y="437"/>
      <point x="198" y="279"/>
      <point x="312" y="62" type="curve" smooth="yes"/>
      <point x="335" y="18"/>
      <point x="371" y="-4"/>
      <point x="427" y="-7" type="curve"/>
      <point x="432" y="28" type="line"/>
      <point x="390" y="31"/>
      <point x="363" y="46"/>
      <point x="347" y="76" type="curve" smooth="yes"/>
      <point x="218" y="319"/>
      <point x="169" y="433"/>
      <point x="169" y="564" type="curve" smooth="yes"/>
      <point x="169" y="633"/>
      <point x="192" y="669"/>
      <point x="235" y="669" type="curve" smooth="yes"/>
      <point x="270" y="669"/>
      <point x="285" y="632"/>
      <point x="285" y="570" type="curve" smooth="yes"/>
      <point x="285" y="503"/>
      <point x="248" y="461"/>
      <point x="203" y="419" type="curve" smooth="yes"/>
      <point x="151" y="371"/>
      <point x="83" y="302"/>
      <point x="83" y="182" type="curve" smooth="yes"/>
      <point x="83" y="55"/>
      <point x="130" y="-10"/>
    </contour>
  </outline>
</glyph>
<glyph name="quotesingle" format="2">
  <advance width="244"/>
  <unicode hex="0027"/>
  <outline>
    <contour>
      <point x="103" y="496" type="curve"/>
      <point x="134" y="504" type="line"/>
      <point x="135" y="531"/>
      <point x="137" y="568"/>
      <point x="140" y="604" type="curve" smooth="yes"/>
      <point x="143" y="646"/>
      <point x="146" y="684"/>
      <point x="149" y="702" type="curve"/>
      <point x="95" y="698" type="line"/>
      <point x="96" y="679"/>
      <point x="99" y="634"/>
      <point x="100" y="602" type="curve" smooth="yes"/>
      <point x="102" y="568"/>
      <point x="102" y="518"/>
    </contour>
  </outline>
</glyph>
<glyph name="parenleft" format="2">
  <advance width="285"/>
  <unicode hex="0028"/>
  <outline>
    <contour>
      <point x="183" y="-139" type="curve"/>
      <point x="191" y="-117" type="line"/>
      <point x="119" y="-47"/>
      <point x="122" y="141"/>
      <point x="122" y="281" type="curve" smooth="yes"/>
      <point x="122" y="422"/>
      <point x="119" y="610"/>
      <point x="191" y="680" type="curve"/>
      <point x="183" y="702" type="line"/>
      <point x="115" y="653"/>
      <point x="95" y="528"/>
      <point x="95" y="281" type="curve" smooth="yes"/>
      <point x="95" y="35"/>
      <point x="115" y="-90"/>
    </contour>
  </outline>
</glyph>
<glyph name="parenright" format="2">
  <advance width="285"/>
  <unicode hex="0029"/>
  <outline>
    <contour>
      <point x="97" y="702" type="curve"/>
      <point x="89" y="680" type="line"/>
      <point x="161" y="610"/>
      <point x="158" y="422"/>
      <point x="158" y="282" type="curve" smooth="yes"/>
      <point x="158" y="141"/>
      <point x="161" y="-47"/>
      <point x="89" y="-117" type="curve"/>
      <point x="97" y="-139" type="line"/>
      <point x="165" y="-90"/>
      <point x="185" y="35"/>
      <point x="185" y="282" type="curve" smooth="yes"/>
      <point x="185" y="528"/>
      <point x="165" y="653"/>
    </contour>
  </outline>
</glyph>
<glyph name="asterisk" format="2">
  <advance width="544"/>
  <unicode hex="002A"/>
  <outline>
    <contour>
      <point x="417" y="436" type="curve"/>
      <point x="444" y="460" type="line"/>
      <point x="406" y="483"/>
      <point x="306" y="544"/>
      <point x="270" y="565" type="curve" smooth="yes"/>
      <point x="230" y="588"/>
      <point x="151" y="648"/>
      <point x="124" y="668" type="curve"/>
      <point x="99" y="638" type="line"/>
      <point x="134" y="621"/>
      <point x="224" y="570"/>
      <point x="266" y="546" type="curve" smooth="yes"/>
      <point x="307" y="522"/>
      <point x="391" y="457"/>
    </contour>
    <contour>
      <point x="118" y="428" type="line"/>
      <point x="152" y="454"/>
      <point x="242" y="523"/>
      <point x="283" y="546" type="curve" smooth="yes"/>
      <point x="326" y="570"/>
      <point x="415" y="625"/>
      <point x="443" y="640" type="curve"/>
      <point x="434" y="673" type="line"/>
      <point x="400" y="649"/>
      <point x="316" y="587"/>
      <point x="279" y="565" type="curve" smooth="yes"/>
      <point x="241" y="542"/>
      <point x="138" y="477"/>
      <point x="106" y="457" type="curve"/>
    </contour>
    <contour>
      <point x="296" y="361" type="line"/>
      <point x="292" y="400"/>
      <point x="285" y="509"/>
      <point x="285" y="562" type="curve" smooth="yes"/>
      <point x="285" y="616"/>
      <point x="291" y="704"/>
      <point x="294" y="736" type="curve"/>
      <point x="257" y="739" type="line"/>
      <point x="259" y="704"/>
      <point x="263" y="611"/>
      <point x="264" y="561" type="curve" smooth="yes"/>
      <point x="265" y="511"/>
      <point x="260" y="401"/>
      <point x="258" y="364" type="curve"/>
    </contour>
  </outline>
</glyph>
<glyph name="comma" format="2">
  <advance width="257"/>
  <unicode hex="002C"/>
  <outline>
    <contour>
      <point x="131" y="-100" type="line"/>
      <point x="147" y="-73"/>
      <point x="155" y="-38"/>
      <point x="155" y="5" type="curve" smooth="yes"/>
      <point x="155" y="98" type="line"/>
      <point x="103" y="93" type="line"/>
      <point x="105" y="1" type="line"/>
      <point x="127" y="-1" type="line"/>
      <point x="128" y="-33"/>
      <point x="120" y="-61"/>
      <point x="107" y="-91" type="curve"/>
    </contour>
  </outline>
</glyph>
<glyph name="period" format="2">
  <advance width="247"/>
  <unicode hex="002E"/>
  <outline>
    <contour>
      <point x="145" y="1" type="line"/>
      <point x="145" y="104" type="line"/>
      <point x="103" y="99" type="line"/>
      <point x="106" y="1" type="line"/>
    </contour>
  </outline>
</glyph>
<glyph name="slash" format="2">
  <advance width="275"/>
  <unicode hex="002F"/>
  <outline>
    <contour>
      <point x="45" y="0" type="curve"/>
      <point x="73" y="1" type="line"/>
      <point x="99" y="116"/>
      <point x="127" y="242"/>
      <point x="154" y="361" type="curve" smooth="yes"/>
      <point x="182" y="486"/>
      <point x="209" y="603"/>
      <point x="231" y="694" type="curve"/>
      <point x="203" y="695" type="line"/>
      <point x="186" y="612"/>
      <point x="160" y="491"/>
      <point x="132" y="365" type="curve" smooth="yes"/>
      <point x="104" y="238"/>
      <point x="72" y="105"/>
    </contour>
  </outline>
</glyph>
<glyph name="zero" format="2">
  <advance width="404"/>
  <unicode hex="0030"/>
  <outline>
    <contour>
      <point x="196" y="-10" type="curve" smooth="yes"/>
      <point x="325" y="-10"/>
      <point x="329" y="160"/>
      <point x="329" y="342" type="curve" smooth="yes"/>
      <point x="329" y="524"/>
      <point x="335" y="706"/>
      <point x="207" y="706" type="curve" smooth="yes"/>
      <point x="85" y="706"/>
      <point x="75" y="528"/>
      <point x="75" y="343" type="curve" smooth="yes"/>
      <point x="75" y="151"/>
      <point x="75" y="-10"/>
    </contour>
    <contour>
      <point x="199" y="15" type="curve" smooth="yes"/>
      <point x="109" y="15"/>
      <point x="105" y="139"/>
      <point x="105" y="338" type="curve" smooth="yes"/>
      <point x="105" y="503"/>
      <point x="108" y="680"/>
      <point x="206" y="680" type="curve" smooth="yes"/>
      <point x="302" y="680"/>
      <point x="301" y="508"/>
      <point x="301" y="353" type="curve" smooth="yes"/>
      <point x="301" y="176"/>
      <point x="297" y="15"/>
    </contour>
  </outline>
</glyph>
<glyph name="one" format="2">
  <advance width="245"/>
  <unicode hex="0031"/>
  <outline>
    <contour>
      <point x="118" y="0" type="curve"/>
      <point x="152" y="0" type="line"/>
      <point x="150" y="48"/>
      <point x="148" y="202"/>
      <point x="148" y="341" type="curve" smooth="yes"/>
      <point x="148" y="481"/>
      <point x="152" y="644"/>
      <point x="153" y="694" type="curve"/>
      <point x="138" y="694" type="line"/>
      <point x="122" y="638" type="line"/>
      <point x="123" y="562"/>
      <point x="122" y="418"/>
      <point x="122" y="342" type="curve" smooth="yes"/>
      <point x="122" y="245"/>
      <point x="120" y="55"/>
    </contour>
    <contour>
      <point x="34" y="620" type="line"/>
      <point x="61" y="621"/>
      <point x="113" y="632"/>
      <point x="140" y="643" type="curve"/>
      <point x="138" y="694" type="line"/>
      <point x="113" y="667"/>
      <point x="68" y="652"/>
      <point x="33" y="646" type="curve"/>
    </contour>
  </outline>
</glyph>
<glyph name="two" format="2">
  <advance width="378"/>
  <unicode hex="0032"/>
  <outline>
    <contour>
      <point x="85" y="17" type="line"/>
      <point x="183" y="134"/>
      <point x="306" y="377"/>
      <point x="306" y="545" type="curve" smooth="yes"/>
      <point x="306" y="640"/>
      <point x="271" y="700"/>
      <point x="193" y="700" type="curve" smooth="yes"/>
      <point x="102" y="700"/>
      <point x="71" y="625"/>
      <point x="71" y="526" type="curve" smooth="yes"/>
      <point x="71" y="504"/>
      <point x="73" y="481"/>
      <point x="75" y="457" type="curve"/>
      <point x="104" y="458" type="line"/>
      <point x="101" y="482"/>
      <point x="100" y="505"/>
      <point x="100" y="527" type="curve" smooth="yes"/>
      <point x="100" y="615"/>
      <point x="124" y="674"/>
      <point x="188" y="674" type="curve" smooth="yes"/>
      <point x="248" y="674"/>
      <point x="274" y="632"/>
      <point x="274" y="533" type="curve" smooth="yes"/>
      <point x="274" y="381"/>
      <point x="172" y="165"/>
      <point x="56" y="24" type="curve"/>
    </contour>
    <contour>
      <point x="56" y="-3" type="line"/>
      <point x="77" y="-2"/>
      <point x="143" y="0"/>
      <point x="187" y="0" type="curve" smooth="yes"/>
      <point x="200" y="0"/>
      <point x="302" y="0"/>
      <point x="311" y="0" type="curve"/>
      <point x="310" y="29" type="line"/>
      <point x="277" y="27"/>
      <point x="240" y="25"/>
      <point x="198" y="25" type="curve" smooth="yes"/>
      <point x="158" y="25"/>
      <point x="104" y="24"/>
      <point x="56" y="24" type="curve"/>
    </contour>
  </outline>
</glyph>
<glyph name="three" format="2">
  <advance width="349"/>
  <unicode hex="0033"/>
  <outline>
    <contour>
      <point x="168" y="-10" type="curve" smooth="yes"/>
      <point x="246" y="-10"/>
      <point x="290" y="38"/>
      <point x="290" y="127" type="curve" smooth="yes"/>
      <point x="290" y="213"/>
      <point x="254" y="278"/>
      <point x="187" y="296" type="curve"/>
      <point x="247" y="332"/>
      <point x="284" y="402"/>
      <point x="284" y="522" type="curve" smooth="yes"/>
      <point x="284" y="632"/>
      <point x="252" y="697"/>
      <point x="171" y="697" type="curve" smooth="yes"/>
      <point x="86" y="697"/>
      <point x="57" y="632"/>
      <point x="57" y="556" type="curve"/>
      <point x="84" y="558" type="line"/>
      <point x="84" y="624"/>
      <point x="105" y="674"/>
      <point x="165" y="674" type="curve" smooth="yes"/>
      <point x="228" y="674"/>
      <point x="253" y="625"/>
      <point x="253" y="512" type="curve" smooth="yes"/>
      <point x="253" y="389"/>
      <point x="207" y="306"/>
      <point x="136" y="306" type="curve" smooth="yes"/>
      <point x="126" y="306"/>
      <point x="117" y="306"/>
      <point x="109" y="307" type="curve"/>
      <point x="110" y="280" type="line"/>
      <point x="121" y="281"/>
      <point x="132" y="281"/>
      <point x="140" y="281" type="curve" smooth="yes"/>
      <point x="228" y="281"/>
      <point x="261" y="214"/>
      <point x="261" y="119" type="curve" smooth="yes"/>
      <point x="261" y="52"/>
      <point x="231" y="14"/>
      <point x="170" y="14" type="curve" smooth="yes"/>
      <point x="114" y="14"/>
      <point x="82" y="45"/>
      <point x="81" y="97" type="curve"/>
      <point x="55" y="98" type="line"/>
      <point x="56" y="31"/>
      <point x="94" y="-10"/>
    </contour>
  </outline>
</glyph>
<glyph name="four" format="2">
  <advance width="375"/>
  <unicode hex="0034"/>
  <outline>
    <contour>
      <point x="65" y="177" type="line"/>
      <point x="79" y="216"/>
      <point x="121" y="331"/>
      <point x="160" y="440" type="curve" smooth="yes"/>
      <point x="194" y="536"/>
      <point x="219" y="613"/>
      <point x="233" y="647" type="curve" smooth="yes"/>
      <point x="245" y="675"/>
      <point x="251" y="683"/>
      <point x="262" y="697" type="curve"/>
      <point x="222" y="698" type="line"/>
      <point x="211" y="660"/>
      <point x="163" y="528"/>
      <point x="133" y="439" type="curve" smooth="yes"/>
      <point x="108" y="364"/>
      <point x="55" y="229"/>
      <point x="39" y="191" type="curve"/>
    </contour>
    <contour>
      <point x="45" y="164" type="line"/>
      <point x="72" y="165"/>
      <point x="139" y="167"/>
      <point x="186" y="168" type="curve" smooth="yes"/>
      <point x="234" y="169"/>
      <point x="299" y="168"/>
      <point x="329" y="168" type="curve"/>
      <point x="329" y="198" type="line"/>
      <point x="299" y="196"/>
      <point x="236" y="192"/>
      <point x="186" y="190" type="curve" smooth="yes"/>
      <point x="138" y="188"/>
      <point x="70" y="190"/>
      <point x="39" y="191" type="curve"/>
    </contour>
    <contour>
      <point x="227" y="-1" type="curve"/>
      <point x="261" y="0" type="line"/>
      <point x="260" y="53"/>
      <point x="258" y="236"/>
      <point x="258" y="378" type="curve" smooth="yes"/>
      <point x="258" y="512"/>
      <point x="260" y="651"/>
      <point x="262" y="697" type="curve"/>
      <point x="231" y="692" type="line"/>
      <point x="231" y="645"/>
      <point x="231" y="477"/>
      <point x="231" y="380" type="curve" smooth="yes"/>
      <point x="231" y="282"/>
      <point x="228" y="61"/>
    </contour>
  </outline>
</glyph>
<glyph name="five" format="2">
  <advance width="369"/>
  <unicode hex="0035"/>
  <outline>
    <contour>
      <point x="175" y="-10" type="curve" smooth="yes"/>
      <point x="266" y="-10"/>
      <point x="313" y="68"/>
      <point x="313" y="225" type="curve" smooth="yes"/>
      <point x="313" y="356"/>
      <point x="274" y="427"/>
      <point x="198" y="427" type="curve" smooth="yes"/>
      <point x="154" y="427"/>
      <point x="106" y="399"/>
      <point x="81" y="320" type="curve"/>
      <point x="101" y="318" type="line"/>
      <point x="110" y="357"/>
      <point x="147" y="400"/>
      <point x="193" y="400" type="curve" smooth="yes"/>
      <point x="251" y="400"/>
      <point x="283" y="338"/>
      <point x="283" y="235" type="curve" smooth="yes"/>
      <point x="283" y="84"/>
      <point x="249" y="16"/>
      <point x="179" y="16" type="curve" smooth="yes"/>
      <point x="119" y="16"/>
      <point x="92" y="46"/>
      <point x="88" y="116" type="curve"/>
      <point x="59" y="114" type="line"/>
      <point x="64" y="32"/>
      <point x="102" y="-10"/>
    </contour>
    <contour>
      <point x="101" y="318" type="line"/>
      <point x="102" y="360"/>
      <point x="104" y="446"/>
      <point x="106" y="503" type="curve" smooth="yes"/>
      <point x="108" y="565"/>
      <point x="111" y="661"/>
      <point x="113" y="695" type="curve"/>
      <point x="80" y="698" type="line"/>
      <point x="81" y="663"/>
      <point x="82" y="569"/>
      <point x="80" y="505" type="curve" smooth="yes"/>
      <point x="78" y="438"/>
      <point x="73" y="349"/>
      <point x="71" y="317" type="curve"/>
    </contour>
    <contour>
      <point x="98" y="669" type="line"/>
      <point x="117" y="670"/>
      <point x="154" y="671"/>
      <point x="191" y="671" type="curve" smooth="yes"/>
      <point x="224" y="671"/>
      <point x="270" y="669"/>
      <point x="292" y="668" type="curve"/>
      <point x="294" y="695" type="line"/>
      <point x="270" y="695"/>
      <point x="225" y="695"/>
      <point x="189" y="696" type="curve" smooth="yes"/>
      <point x="155" y="697"/>
      <point x="113" y="698"/>
      <point x="87" y="698" type="curve"/>
    </contour>
  </outline>
</glyph>
<glyph name="six" format="2">
  <advance width="386"/>
  <unicode hex="0036"/>
  <outline>
    <contour>
      <point x="197" y="-10" type="curve" smooth="yes"/>
      <point x="269" y="-10"/>
      <point x="315" y="63"/>
      <point x="315" y="177" type="curve" smooth="yes"/>
      <point x="315" y="302"/>
      <point x="280" y="368"/>
      <point x="200" y="368" type="curve" smooth="yes"/>
      <point x="155" y="368"/>
      <point x="101" y="334"/>
      <point x="83" y="254" type="curve"/>
      <point x="98" y="203" type="line"/>
      <point x="98" y="282"/>
      <point x="142" y="341"/>
      <point x="200" y="341" type="curve" smooth="yes"/>
      <point x="259" y="341"/>
      <point x="286" y="276"/>
      <point x="286" y="181" type="curve" smooth="yes"/>
      <point x="286" y="82"/>
      <point x="258" y="16"/>
      <point x="198" y="16" type="curve" smooth="yes"/>
      <point x="86" y="16"/>
      <point x="98" y="167"/>
      <point x="98" y="370" type="curve" smooth="yes"/>
      <point x="98" y="582"/>
      <point x="131" y="690"/>
      <point x="206" y="690" type="curve" smooth="yes"/>
      <point x="259" y="690"/>
      <point x="280" y="645"/>
      <point x="280" y="571" type="curve" smooth="yes"/>
      <point x="280" y="555"/>
      <point x="279" y="537"/>
      <point x="277" y="517" type="curve"/>
      <point x="307" y="518" type="line"/>
      <point x="309" y="535"/>
      <point x="310" y="551"/>
      <point x="310" y="567" type="curve" smooth="yes"/>
      <point x="310" y="649"/>
      <point x="285" y="713"/>
      <point x="207" y="713" type="curve" smooth="yes"/>
      <point x="119" y="713"/>
      <point x="67" y="626"/>
      <point x="67" y="321" type="curve" smooth="yes"/>
      <point x="67" y="66"/>
      <point x="94" y="-10"/>
    </contour>
  </outline>
</glyph>
<glyph name="seven" format="2">
  <advance width="301"/>
  <unicode hex="0037"/>
  <outline>
    <contour>
      <point x="94" y="-1" type="curve"/>
      <point x="128" y="0" type="line"/>
      <point x="123" y="124"/>
      <point x="126" y="240"/>
      <point x="153" y="358" type="curve" smooth="yes"/>
      <point x="176" y="458"/>
      <point x="207" y="547"/>
      <point x="269" y="657" type="curve"/>
      <point x="269" y="698" type="line"/>
      <point x="210" y="629"/>
      <point x="151" y="463"/>
      <point x="128" y="366" type="curve" smooth="yes"/>
      <point x="98" y="239"/>
      <point x="92" y="119"/>
    </contour>
    <contour>
      <point x="29" y="667" type="line"/>
      <point x="50" y="667"/>
      <point x="92" y="668"/>
      <point x="124" y="668" type="curve" smooth="yes"/>
      <point x="159" y="668"/>
      <point x="238" y="669"/>
      <point x="266" y="670" type="curve"/>
      <point x="269" y="698" type="line"/>
      <point x="241" y="698"/>
      <point x="171" y="697"/>
      <point x="137" y="697" type="curve" smooth="yes"/>
      <point x="103" y="697"/>
      <point x="53" y="698"/>
      <point x="28" y="699" type="curve"/>
    </contour>
  </outline>
</glyph>
<glyph name="nine" format="2">
  <advance width="380"/>
  <unicode hex="0039"/>
  <outline>
    <contour>
      <point x="177" y="-10" type="curve" smooth="yes"/>
      <point x="279" y="-10"/>
      <point x="317" y="77"/>
      <point x="317" y="402" type="curve" smooth="yes"/>
      <point x="317" y="647"/>
      <point x="277" y="713"/>
      <point x="190" y="713" type="curve" smooth="yes"/>
      <point x="101" y="713"/>
      <point x="69" y="610"/>
      <point x="69" y="496" type="curve" smooth="yes"/>
      <point x="69" y="369"/>
      <point x="94" y="275"/>
      <point x="184" y="275" type="curve" smooth="yes"/>
      <point x="229" y="275"/>
      <point x="283" y="309"/>
      <point x="301" y="389" type="curve"/>
      <point x="286" y="440" type="line"/>
      <point x="286" y="361"/>
      <point x="242" y="302"/>
      <point x="184" y="302" type="curve" smooth="yes"/>
      <point x="115" y="302"/>
      <point x="98" y="387"/>
      <point x="98" y="492" type="curve" smooth="yes"/>
      <point x="98" y="591"/>
      <point x="116" y="687"/>
      <point x="189" y="687" type="curve" smooth="yes"/>
      <point x="283" y="687"/>
      <point x="286" y="568"/>
      <point x="286" y="379" type="curve" smooth="yes"/>
      <point x="286" y="193"/>
      <point x="283" y="14"/>
      <point x="179" y="14" type="curve" smooth="yes"/>
      <point x="125" y="14"/>
      <point x="103" y="57"/>
      <point x="103" y="124" type="curve" smooth="yes"/>
      <point x="103" y="136"/>
      <point x="104" y="148"/>
      <point x="105" y="161" type="curve"/>
      <point x="75" y="159" type="line"/>
      <point x="74" y="149"/>
      <point x="74" y="140"/>
      <point x="74" y="130" type="curve" smooth="yes"/>
      <point x="74" y="49"/>
      <point x="102" y="-10"/>
    </contour>
  </outline>
</glyph>
<glyph name="colon" format="2">
  <advance width="246"/>
  <unicode hex="003A"/>
  <outline>
    <contour>
      <point x="144" y="1" type="line"/>
      <point x="144" y="104" type="line"/>
      <point x="102" y="100" type="line"/>
      <point x="105" y="1" type="line"/>
    </contour>
    <contour>
      <point x="144" y="401" type="line"/>
      <point x="144" y="503" type="line"/>
      <point x="102" y="499" type="line"/>
      <point x="105" y="402" type="line"/>
    </contour>
  </outline>
</glyph>
<glyph name="greater" format="2">
  <advance width="508"/>
  <unicode hex="003E"/>
  <outline>
    <contour>
      <point x="91" y="158" type="line"/>
      <point x="126" y="174"/>
      <point x="199" y="205"/>
      <point x="253" y="225" type="curve" smooth="yes"/>
      <point x="312" y="247"/>
      <point x="391" y="279"/>
      <point x="419" y="290" type="curve"/>
      <point x="419" y="322" type="line"/>
      <point x="385" y="309"/>
      <point x="304" y="280"/>
      <point x="251" y="261" type="curve" smooth="yes"/>
      <point x="196" y="241"/>
      <point x="119" y="215"/>
      <point x="94" y="207" type="curve"/>
    </contour>
    <contour>
      <point x="91" y="454" type="curve"/>
      <point x="94" y="405" type="line"/>
      <point x="119" y="397"/>
      <point x="196" y="371"/>
      <point x="251" y="351" type="curve" smooth="yes"/>
      <point x="304" y="332"/>
      <point x="385" y="303"/>
      <point x="419" y="290" type="curve"/>
      <point x="419" y="322" type="line"/>
      <point x="391" y="333"/>
      <point x="312" y="364"/>
      <point x="253" y="387" type="curve" smooth="yes"/>
      <point x="199" y="408"/>
      <point x="126" y="438"/>
    </contour>
  </outline>
</glyph>
<glyph name="question" format="2">
  <advance width="415"/>
  <unicode hex="003F"/>
  <outline>
    <contour>
      <point x="213" y="216" type="line"/>
      <point x="211" y="231"/>
      <point x="209" y="245"/>
      <point x="209" y="259" type="curve" smooth="yes"/>
      <point x="209" y="308"/>
      <point x="226" y="347"/>
      <point x="258" y="388" type="curve" smooth="yes"/>
      <point x="289" y="428"/>
      <point x="322" y="483"/>
      <point x="322" y="588" type="curve" smooth="yes"/>
      <point x="322" y="667"/>
      <point x="282" y="715"/>
      <point x="211" y="715" type="curve" smooth="yes"/>
      <point x="119" y="715"/>
      <point x="90" y="645"/>
      <point x="90" y="558" type="curve" smooth="yes"/>
      <point x="90" y="531"/>
      <point x="94" y="502"/>
      <point x="99" y="473" type="curve"/>
      <point x="129" y="472" type="line"/>
      <point x="124" y="498"/>
      <point x="121" y="525"/>
      <point x="121" y="550" type="curve" smooth="yes"/>
      <point x="121" y="624"/>
      <point x="136" y="688"/>
      <point x="208" y="688" type="curve" smooth="yes"/>
      <point x="262" y="688"/>
      <point x="292" y="654"/>
      <point x="292" y="596" type="curve" smooth="yes"/>
      <point x="292" y="477"/>
      <point x="257" y="435"/>
      <point x="227" y="393" type="curve" smooth="yes"/>
      <point x="195" y="349"/>
      <point x="181" y="314"/>
      <point x="181" y="264" type="curve" smooth="yes"/>
      <point x="181" y="250"/>
      <point x="182" y="234"/>
      <point x="184" y="217" type="curve"/>
    </contour>
    <contour>
      <point x="229" y="-2" type="line"/>
      <point x="222" y="94" type="line"/>
      <point x="185" y="92" type="line"/>
      <point x="184" y="-1" type="line"/>
    </contour>
  </outline>
</glyph>
<glyph name="at" format="2">
  <advance width="812"/>
  <unicode hex="0040"/>
  <guideline x="241" y="463" angle="90"/>
  <guideline x="269" y="463" angle="90"/>
  <guideline x="626" y="561" angle="0"/>
  <guideline x="626" y="536" angle="0"/>
  <outline>
    <contour>
      <point x="396" y="-153" type="curve" smooth="yes"/>
      <point x="495" y="-153"/>
      <point x="573" y="-131"/>
      <point x="640" y="-100" type="curve"/>
      <point x="629" y="-79" type="line"/>
      <point x="570" y="-106"/>
      <point x="488" y="-127"/>
      <point x="396" y="-127" type="curve" smooth="yes"/>
      <point x="208" y="-127"/>
      <point x="108" y="3"/>
      <point x="108" y="234" type="curve" smooth="yes"/>
      <point x="108" y="485"/>
      <point x="236" y="671"/>
      <point x="431" y="671" type="curve" smooth="yes"/>
      <point x="603" y="671"/>
      <point x="694" y="580"/>
      <point x="694" y="357" type="curve" smooth="yes"/>
      <point x="694" y="153"/>
      <point x="626" y="16"/>
      <point x="518" y="16" type="curve" smooth="yes"/>
      <point x="480" y="16"/>
      <point x="470" y="46"/>
      <point x="470" y="100" type="curve" smooth="yes"/>
      <point x="470" y="161"/>
      <point x="502" y="412"/>
      <point x="521" y="555" type="curve"/>
      <point x="490" y="548" type="line"/>
      <point x="484" y="492" type="line"/>
      <point x="474" y="537"/>
      <point x="448" y="561"/>
      <point x="404" y="561" type="curve" smooth="yes"/>
      <point x="276" y="561"/>
      <point x="241" y="300"/>
      <point x="241" y="141" type="curve" smooth="yes"/>
      <point x="241" y="38"/>
      <point x="271" y="-9"/>
      <point x="329" y="-9" type="curve" smooth="yes"/>
      <point x="377" y="-9"/>
      <point x="422" y="33"/>
      <point x="443" y="93" type="curve"/>
      <point x="444" y="52"/>
      <point x="448" y="-10"/>
      <point x="516" y="-10" type="curve" smooth="yes"/>
      <point x="634" y="-10"/>
      <point x="724" y="126"/>
      <point x="725" y="357" type="curve" smooth="yes"/>
      <point x="726" y="585"/>
      <point x="624" y="696"/>
      <point x="433" y="697" type="curve" smooth="yes"/>
      <point x="243" y="698"/>
      <point x="80" y="529"/>
      <point x="80" y="234" type="curve" smooth="yes"/>
      <point x="80" y="-14"/>
      <point x="190" y="-153"/>
    </contour>
    <contour>
      <point x="331" y="16" type="curve" smooth="yes"/>
      <point x="279" y="16"/>
      <point x="269" y="65"/>
      <point x="269" y="157" type="curve" smooth="yes"/>
      <point x="269" y="297"/>
      <point x="298" y="536"/>
      <point x="407" y="536" type="curve" smooth="yes"/>
      <point x="464" y="536"/>
      <point x="484" y="461"/>
      <point x="467" y="326" type="curve" smooth="yes"/>
      <point x="457" y="252" type="line" smooth="yes"/>
      <point x="438" y="101"/>
      <point x="395" y="16"/>
    </contour>
  </outline>
</glyph>
<glyph name="A" format="2">
  <advance width="341"/>
  <unicode hex="0041"/>
  <anchor x="169" y="0" name="bottom"/>
  <anchor x="326" y="6" name="ogonek"/>
  <anchor x="173" y="693" name="top"/>
  <outline>
    <contour>
      <point x="290" y="-3" type="curve"/>
      <point x="324" y="0" type="line"/>
      <point x="299" y="133"/>
      <point x="277" y="244"/>
      <point x="258" y="353" type="curve" smooth="yes"/>
      <point x="237" y="465"/>
      <point x="219" y="575"/>
      <point x="199" y="706" type="curve"/>
      <point x="138" y="704" type="line"/>
      <point x="168" y="682" type="line"/>
      <point x="192" y="554"/>
      <point x="211" y="456"/>
      <point x="229" y="350" type="curve" smooth="yes"/>
      <point x="247" y="250"/>
      <point x="266" y="143"/>
    </contour>
    <contour>
      <point x="70" y="181" type="line"/>
      <point x="266" y="185" type="line"/>
      <point x="266" y="211" type="line"/>
      <point x="70" y="215" type="line"/>
    </contour>
    <contour>
      <point x="53" y="6" type="line"/>
      <point x="74" y="137"/>
      <point x="92" y="248"/>
      <point x="110" y="349" type="curve" smooth="yes"/>
      <point x="131" y="469"/>
      <point x="150" y="576"/>
      <point x="169" y="688" type="curve"/>
      <point x="199" y="706" type="line"/>
      <point x="138" y="704" type="line"/>
      <point x="123" y="601"/>
      <point x="103" y="481"/>
      <point x="82" y="358" type="curve" smooth="yes"/>
      <point x="61" y="239"/>
      <point x="39" y="118"/>
      <point x="18" y="7" type="curve"/>
    </contour>
  </outline>
</glyph>
<glyph name="B" format="2">
  <advance width="372"/>
  <unicode hex="0042"/>
  <outline>
    <contour>
      <point x="100" y="223" type="line"/>
      <point x="253" y="223"/>
      <point x="316" y="276"/>
      <point x="316" y="472" type="curve" smooth="yes"/>
      <point x="316" y="669"/>
      <point x="277" y="719"/>
      <point x="170" y="719" type="curve" smooth="yes"/>
      <point x="133" y="719"/>
      <point x="98" y="717"/>
      <point x="66" y="714" type="curve"/>
      <point x="80" y="678" type="line"/>
      <point x="105" y="684"/>
      <point x="131" y="687"/>
      <point x="177" y="687" type="curve" smooth="yes"/>
      <point x="261" y="687"/>
      <point x="281" y="616"/>
      <point x="281" y="469" type="curve" smooth="yes"/>
      <point x="281" y="303"/>
      <point x="241" y="248"/>
      <point x="96" y="248" type="curve"/>
    </contour>
    <contour>
      <point x="177" y="-10" type="curve"/>
      <point x="271" y="-10"/>
      <point x="323" y="34"/>
      <point x="323" y="124" type="curve" smooth="yes"/>
      <point x="323" y="217"/>
      <point x="262" y="248"/>
      <point x="96" y="248" type="curve"/>
      <point x="100" y="218" type="line"/>
      <point x="111" y="219"/>
      <point x="132" y="219"/>
      <point x="142" y="219" type="curve" smooth="yes"/>
      <point x="264" y="219"/>
      <point x="288" y="175"/>
      <point x="288" y="126" type="curve" smooth="yes"/>
      <point x="288" y="66"/>
      <point x="259" y="21"/>
      <point x="180" y="21" type="curve" smooth="yes"/>
      <point x="154" y="21"/>
      <point x="113" y="25"/>
      <point x="88" y="29" type="curve"/>
      <point x="69" y="-5" type="line"/>
      <point x="101" y="-8"/>
      <point x="140" y="-10"/>
    </contour>
    <contour>
      <point x="69" y="-5" type="curve"/>
      <point x="107" y="1" type="line"/>
      <point x="107" y="1"/>
      <point x="103" y="234"/>
      <point x="103" y="350" type="curve"/>
      <point x="103" y="466"/>
      <point x="106" y="704"/>
      <point x="106" y="704" type="curve"/>
      <point x="66" y="714" type="line"/>
      <point x="66" y="714"/>
      <point x="73" y="523"/>
      <point x="73" y="352" type="curve"/>
      <point x="73" y="181"/>
      <point x="69" y="-5"/>
    </contour>
  </outline>
</glyph>
<glyph name="C" format="2">
  <advance width="355"/>
  <unicode hex="0043"/>
  <anchor x="188" y="0" name="bottom"/>
  <anchor x="189" y="693" name="top"/>
  <outline>
    <contour>
      <point x="186" y="-6" type="curve" smooth="yes"/>
      <point x="281" y="-6"/>
      <point x="314" y="69"/>
      <point x="314" y="157" type="curve" smooth="yes"/>
      <point x="314" y="172"/>
      <point x="313" y="188"/>
      <point x="311" y="203" type="curve"/>
      <point x="281" y="202" type="line"/>
      <point x="283" y="186"/>
      <point x="284" y="170"/>
      <point x="284" y="154" type="curve" smooth="yes"/>
      <point x="284" y="83"/>
      <point x="262" y="24"/>
      <point x="189" y="24" type="curve" smooth="yes"/>
      <point x="134" y="24"/>
      <point x="107" y="61"/>
      <point x="94" y="122" type="curve" smooth="yes"/>
      <point x="83" y="175"/>
      <point x="82" y="246"/>
      <point x="82" y="328" type="curve" smooth="yes"/>
      <point x="82" y="404"/>
      <point x="81" y="481"/>
      <point x="91" y="544" type="curve" smooth="yes"/>
      <point x="103" y="621"/>
      <point x="131" y="676"/>
      <point x="197" y="676" type="curve" smooth="yes"/>
      <point x="272" y="676"/>
      <point x="294" y="604"/>
      <point x="294" y="505" type="curve" smooth="yes"/>
      <point x="294" y="459"/>
      <point x="289" y="407"/>
      <point x="283" y="354" type="curve"/>
      <point x="314" y="354" type="line"/>
      <point x="321" y="406"/>
      <point x="326" y="457"/>
      <point x="326" y="503" type="curve" smooth="yes"/>
      <point x="326" y="618"/>
      <point x="297" y="705"/>
      <point x="202" y="705" type="curve" smooth="yes"/>
      <point x="113" y="705"/>
      <point x="75" y="643"/>
      <point x="60" y="555" type="curve" smooth="yes"/>
      <point x="50" y="495"/>
      <point x="49" y="422"/>
      <point x="49" y="348" type="curve" smooth="yes"/>
      <point x="49" y="254"/>
      <point x="49" y="168"/>
      <point x="65" y="104" type="curve" smooth="yes"/>
      <point x="82" y="37"/>
      <point x="116" y="-6"/>
    </contour>
  </outline>
</glyph>
<glyph name="D" format="2">
  <advance width="385"/>
  <unicode hex="0044"/>
  <anchor x="120" y="348" name="center"/>
  <anchor x="164" y="693" name="top"/>
  <outline>
    <contour>
      <point x="136" y="-10" type="curve" smooth="yes"/>
      <point x="305" y="-10"/>
      <point x="336" y="99"/>
      <point x="336" y="359" type="curve" smooth="yes"/>
      <point x="336" y="614"/>
      <point x="327" y="709"/>
      <point x="146" y="709" type="curve" smooth="yes"/>
      <point x="113" y="709"/>
      <point x="86" y="707"/>
      <point x="57" y="704" type="curve"/>
      <point x="71" y="671" type="line"/>
      <point x="101" y="676"/>
      <point x="128" y="679"/>
      <point x="160" y="679" type="curve" smooth="yes"/>
      <point x="297" y="679"/>
      <point x="301" y="590"/>
      <point x="301" y="364" type="curve" smooth="yes"/>
      <point x="301" y="130"/>
      <point x="281" y="18"/>
      <point x="153" y="18" type="curve" smooth="yes"/>
      <point x="125" y="18"/>
      <point x="105" y="21"/>
      <point x="82" y="26" type="curve"/>
      <point x="60" y="-5" type="line"/>
      <point x="84" y="-8"/>
      <point x="106" y="-10"/>
    </contour>
    <contour>
      <point x="60" y="-5" type="curve"/>
      <point x="98" y="-4" type="line"/>
      <point x="97" y="-3"/>
      <point x="94" y="226"/>
      <point x="94" y="348" type="curve" smooth="yes"/>
      <point x="94" y="421"/>
      <point x="96" y="652"/>
      <point x="97" y="702" type="curve"/>
      <point x="57" y="704" type="line"/>
      <point x="60" y="626"/>
      <point x="64" y="477"/>
      <point x="64" y="352" type="curve"/>
      <point x="64" y="227"/>
      <point x="62" y="75"/>
    </contour>
  </outline>
</glyph>
<glyph name="E" format="2">
  <advance width="344"/>
  <unicode hex="0045"/>
  <anchor x="176" y="0" name="bottom"/>
  <anchor x="293" y="5" name="ogonek"/>
  <anchor x="178" y="693" name="top"/>
  <outline>
    <contour>
      <point x="69" y="-5" type="curve"/>
      <point x="107" y="1" type="line"/>
      <point x="107" y="1"/>
      <point x="103" y="234"/>
      <point x="103" y="350" type="curve"/>
      <point x="103" y="466"/>
      <point x="106" y="687"/>
      <point x="106" y="687" type="curve"/>
      <point x="66" y="699" type="line"/>
      <point x="66" y="699"/>
      <point x="73" y="523"/>
      <point x="73" y="352" type="curve"/>
      <point x="73" y="181"/>
      <point x="69" y="-5"/>
    </contour>
    <contour>
      <point x="69" y="-5" type="line"/>
      <point x="299" y="0" type="line"/>
      <point x="299" y="23" type="line"/>
      <point x="103" y="28" type="line"/>
    </contour>
    <contour>
      <point x="88" y="217" type="line"/>
      <point x="292" y="221" type="line"/>
      <point x="294" y="247" type="line"/>
      <point x="88" y="250" type="line"/>
    </contour>
    <contour>
      <point x="94" y="664" type="line"/>
      <point x="289" y="665" type="line"/>
      <point x="289" y="693" type="line"/>
      <point x="66" y="699" type="line"/>
    </contour>
  </outline>
</glyph>
<glyph name="F" format="2">
  <advance width="333"/>
  <unicode hex="0046"/>
  <outline>
    <contour>
      <point x="69" y="-5" type="curve"/>
      <point x="107" y="1" type="line"/>
      <point x="107" y="1"/>
      <point x="103" y="234"/>
      <point x="103" y="350" type="curve"/>
      <point x="103" y="466"/>
      <point x="106" y="693"/>
      <point x="106" y="693" type="curve"/>
      <point x="66" y="705" type="line"/>
      <point x="66" y="705"/>
      <point x="73" y="523"/>
      <point x="73" y="352" type="curve"/>
      <point x="73" y="181"/>
      <point x="69" y="-5"/>
    </contour>
    <contour>
      <point x="88" y="257" type="line"/>
      <point x="289" y="261" type="line"/>
      <point x="288" y="287" type="line"/>
      <point x="88" y="290" type="line"/>
    </contour>
    <contour>
      <point x="94" y="670" type="line"/>
      <point x="286" y="671" type="line"/>
      <point x="288" y="699" type="line"/>
      <point x="66" y="705" type="line"/>
    </contour>
  </outline>
</glyph>
<glyph name="G" format="2">
  <advance width="360"/>
  <unicode hex="0047"/>
  <anchor x="185" y="0" name="bottom"/>
  <anchor x="193" y="693" name="top"/>
  <outline>
    <contour>
      <point x="49" y="361" type="curve" smooth="yes"/>
      <point x="49" y="273"/>
      <point x="49" y="193"/>
      <point x="60" y="130" type="curve" smooth="yes"/>
      <point x="75" y="44"/>
      <point x="108" y="-10"/>
      <point x="186" y="-10" type="curve" smooth="yes"/>
      <point x="242" y="-10"/>
      <point x="271" y="18"/>
      <point x="289" y="48" type="curve"/>
      <point x="298" y="0" type="line"/>
      <point x="315" y="0" type="line"/>
      <point x="311" y="254" type="line"/>
      <point x="199" y="256" type="line"/>
      <point x="199" y="232" type="line"/>
      <point x="282" y="234" type="line"/>
      <point x="283" y="208"/>
      <point x="284" y="177"/>
      <point x="284" y="159" type="curve" smooth="yes"/>
      <point x="284" y="73"/>
      <point x="262" y="20"/>
      <point x="189" y="20" type="curve" smooth="yes"/>
      <point x="127" y="20"/>
      <point x="101" y="60"/>
      <point x="90" y="139" type="curve" smooth="yes"/>
      <point x="83" y="192"/>
      <point x="82" y="262"/>
      <point x="82" y="350" type="curve" smooth="yes"/>
      <point x="82" y="440"/>
      <point x="82" y="520"/>
      <point x="94" y="579" type="curve" smooth="yes"/>
      <point x="108" y="644"/>
      <point x="137" y="684"/>
      <point x="197" y="684" type="curve" smooth="yes"/>
      <point x="273" y="684"/>
      <point x="293" y="621"/>
      <point x="293" y="522" type="curve" smooth="yes"/>
      <point x="293" y="483"/>
      <point x="290" y="438"/>
      <point x="286" y="389" type="curve"/>
      <point x="317" y="389" type="line"/>
      <point x="322" y="436"/>
      <point x="325" y="480"/>
      <point x="325" y="520" type="curve" smooth="yes"/>
      <point x="325" y="634"/>
      <point x="298" y="713"/>
      <point x="202" y="713" type="curve" smooth="yes"/>
      <point x="122" y="713"/>
      <point x="84" y="665"/>
      <point x="65" y="590" type="curve" smooth="yes"/>
      <point x="50" y="528"/>
      <point x="49" y="448"/>
    </contour>
  </outline>
</glyph>
<glyph name="H" format="2">
  <advance width="412"/>
  <unicode hex="0048"/>
  <anchor x="207" y="0" name="bottom"/>
  <anchor x="206" y="459" name="center"/>
  <anchor x="206" y="693" name="top"/>
  <outline>
    <contour>
      <point x="309" y="-2" type="curve"/>
      <point x="346" y="-2" type="line"/>
      <point x="346" y="-2"/>
      <point x="342" y="210"/>
      <point x="342" y="381" type="curve"/>
      <point x="342" y="552"/>
      <point x="346" y="707"/>
      <point x="346" y="707" type="curve"/>
      <point x="308" y="705" type="line"/>
      <point x="308" y="705"/>
      <point x="311" y="496"/>
      <point x="311" y="379" type="curve"/>
      <point x="311" y="263"/>
      <point x="309" y="-2"/>
    </contour>
    <contour>
      <point x="85" y="248" type="line"/>
      <point x="85" y="217" type="line"/>
      <point x="323" y="217" type="line"/>
      <point x="322" y="253" type="line"/>
    </contour>
    <contour>
      <point x="69" y="0" type="curve"/>
      <point x="107" y="1" type="line"/>
      <point x="107" y="1"/>
      <point x="103" y="234"/>
      <point x="103" y="350" type="curve"/>
      <point x="103" y="466"/>
      <point x="106" y="697"/>
      <point x="106" y="697" type="curve"/>
      <point x="66" y="695" type="line"/>
      <point x="66" y="695"/>
      <point x="73" y="523"/>
      <point x="73" y="352" type="curve"/>
      <point x="73" y="181"/>
      <point x="69" y="0"/>
    </contour>
  </outline>
</glyph>
<glyph name="I" format="2">
  <advance width="202"/>
  <unicode hex="0049"/>
  <anchor x="100" y="0" name="bottom"/>
  <anchor x="120" y="7" name="ogonek"/>
  <anchor x="102" y="693" name="top"/>
  <outline>
    <contour>
      <point x="82" y="700" type="line"/>
      <point x="85" y="644"/>
      <point x="86" y="474"/>
      <point x="85" y="379" type="curve"/>
      <point x="85" y="263"/>
      <point x="83" y="-2"/>
      <point x="83" y="-2" type="curve"/>
      <point x="120" y="-2" type="line"/>
      <point x="120" y="-2"/>
      <point x="116" y="210"/>
      <point x="116" y="381" type="curve"/>
      <point x="116" y="552"/>
      <point x="120" y="702"/>
      <point x="120" y="702" type="curve"/>
    </contour>
  </outline>
</glyph>
<glyph name="J" format="2">
  <advance width="341"/>
  <unicode hex="004A"/>
  <anchor x="257" y="693" name="top"/>
  <outline>
    <contour>
      <point x="162" y="-6" type="curve"/>
      <point x="267" y="-6"/>
      <point x="276" y="85"/>
      <point x="276" y="184" type="curve" smooth="yes"/>
      <point x="276" y="254"/>
      <point x="276" y="334"/>
      <point x="276" y="402" type="curve"/>
      <point x="276" y="492"/>
      <point x="276" y="607"/>
      <point x="278" y="700" type="curve"/>
      <point x="236" y="698" type="line"/>
      <point x="240" y="611"/>
      <point x="241" y="464"/>
      <point x="241" y="396" type="curve"/>
      <point x="242" y="319"/>
      <point x="242" y="201"/>
      <point x="242" y="161" type="curve" smooth="yes"/>
      <point x="242" y="60"/>
      <point x="228" y="23"/>
      <point x="162" y="23" type="curve"/>
      <point x="93" y="23"/>
      <point x="78" y="84"/>
      <point x="78" y="173" type="curve" smooth="yes"/>
      <point x="78" y="210"/>
      <point x="80" y="257"/>
      <point x="84" y="298" type="curve"/>
      <point x="54" y="299" type="line"/>
      <point x="51" y="259"/>
      <point x="48" y="212"/>
      <point x="48" y="174" type="curve" smooth="yes"/>
      <point x="48" y="71"/>
      <point x="68" y="-6"/>
    </contour>
  </outline>
</glyph>
<glyph name="K" format="2">
  <advance width="363"/>
  <unicode hex="004B"/>
  <anchor x="184" y="0" name="bottom"/>
  <outline>
    <contour>
      <point x="309" y="1" type="curve"/>
      <point x="355" y="5" type="line"/>
      <point x="275" y="100"/>
      <point x="181" y="227"/>
      <point x="132" y="296" type="curve"/>
      <point x="186" y="400"/>
      <point x="297" y="605"/>
      <point x="357" y="704" type="curve"/>
      <point x="316" y="702" type="line"/>
      <point x="268" y="609"/>
      <point x="174" y="434"/>
      <point x="96" y="289" type="curve"/>
      <point x="169" y="198"/>
      <point x="249" y="89"/>
    </contour>
    <contour>
      <point x="69" y="0" type="curve"/>
      <point x="107" y="1" type="line"/>
      <point x="107" y="1"/>
      <point x="103" y="234"/>
      <point x="103" y="350" type="curve"/>
      <point x="103" y="466"/>
      <point x="106" y="697"/>
      <point x="106" y="697" type="curve"/>
      <point x="66" y="699" type="line"/>
      <point x="66" y="699"/>
      <point x="73" y="523"/>
      <point x="73" y="352" type="curve"/>
      <point x="73" y="181"/>
      <point x="69" y="0"/>
    </contour>
  </outline>
</glyph>
<glyph name="L" format="2">
  <advance width="315"/>
  <unicode hex="004C"/>
  <anchor x="176" y="0" name="bottom"/>
  <anchor x="96" y="350" name="center"/>
  <anchor x="86" y="693" name="top"/>
  <anchor x="163" y="478" name="topright"/>
  <outline>
    <contour>
      <point x="69" y="-5" type="curve"/>
      <point x="107" y="1" type="line"/>
      <point x="107" y="1"/>
      <point x="103" y="234"/>
      <point x="103" y="350" type="curve"/>
      <point x="103" y="466"/>
      <point x="106" y="704"/>
      <point x="106" y="704" type="curve"/>
      <point x="66" y="700" type="line"/>
      <point x="66" y="700"/>
      <point x="73" y="523"/>
      <point x="73" y="352" type="curve"/>
      <point x="73" y="181"/>
      <point x="69" y="-5"/>
    </contour>
    <contour>
      <point x="69" y="-5" type="line"/>
      <point x="299" y="0" type="line"/>
      <point x="299" y="25" type="line"/>
      <point x="103" y="28" type="line"/>
    </contour>
  </outline>
</glyph>
<glyph name="M" format="2">
  <advance width="547"/>
  <unicode hex="004D"/>
  <outline>
    <contour>
      <point x="72" y="-1" type="curve"/>
      <point x="109" y="-1" type="line"/>
      <point x="109" y="-1"/>
      <point x="106" y="231"/>
      <point x="106" y="347" type="curve" smooth="yes"/>
      <point x="106" y="443"/>
      <point x="105" y="548"/>
      <point x="104" y="644" type="curve"/>
      <point x="119" y="576"/>
      <point x="150" y="452"/>
      <point x="171" y="361" type="curve" smooth="yes"/>
      <point x="211" y="184"/>
      <point x="238" y="97"/>
      <point x="253" y="26" type="curve"/>
      <point x="289" y="23" type="line"/>
      <point x="304" y="97"/>
      <point x="329" y="182"/>
      <point x="372" y="357" type="curve" smooth="yes"/>
      <point x="396" y="453"/>
      <point x="424" y="580"/>
      <point x="438" y="646" type="curve"/>
      <point x="439" y="576"/>
      <point x="440" y="451"/>
      <point x="440" y="374" type="curve" smooth="yes"/>
      <point x="440" y="298"/>
      <point x="438" y="0"/>
      <point x="438" y="0" type="curve"/>
      <point x="475" y="-1" type="line"/>
      <point x="475" y="-1"/>
      <point x="471" y="205"/>
      <point x="471" y="376" type="curve" smooth="yes"/>
      <point x="471" y="547"/>
      <point x="474" y="697"/>
      <point x="474" y="697" type="curve"/>
      <point x="420" y="697" type="line"/>
      <point x="420" y="697"/>
      <point x="383" y="530"/>
      <point x="342" y="356" type="curve" smooth="yes"/>
      <point x="323" y="274"/>
      <point x="288" y="144"/>
      <point x="272" y="73" type="curve"/>
      <point x="249" y="170"/>
      <point x="231" y="232"/>
      <point x="203" y="352" type="curve" smooth="yes"/>
      <point x="163" y="525"/>
      <point x="122" y="704"/>
      <point x="122" y="704" type="curve"/>
      <point x="73" y="702" type="line"/>
      <point x="73" y="702"/>
      <point x="76" y="520"/>
      <point x="76" y="349" type="curve" smooth="yes"/>
      <point x="76" y="178"/>
      <point x="72" y="-1"/>
    </contour>
  </outline>
</glyph>
<glyph name="N" format="2">
  <advance width="421"/>
  <unicode hex="004E"/>
  <anchor x="209" y="0" name="bottom"/>
  <anchor x="212" y="693" name="top"/>
  <outline>
    <contour>
      <point x="67" y="704" type="line"/>
      <point x="67" y="704"/>
      <point x="73" y="527"/>
      <point x="73" y="356" type="curve" smooth="yes"/>
      <point x="73" y="185"/>
      <point x="70" y="1"/>
      <point x="70" y="1" type="curve"/>
      <point x="107" y="0" type="line"/>
      <point x="107" y="0"/>
      <point x="104" y="238"/>
      <point x="104" y="354" type="curve" smooth="yes"/>
      <point x="104" y="444"/>
      <point x="103" y="546"/>
      <point x="103" y="636" type="curve"/>
      <point x="126" y="561"/>
      <point x="175" y="412"/>
      <point x="197" y="344" type="curve" smooth="yes"/>
      <point x="234" y="229"/>
      <point x="275" y="114"/>
      <point x="309" y="-1" type="curve"/>
      <point x="352" y="3" type="line"/>
      <point x="352" y="3"/>
      <point x="349" y="212"/>
      <point x="348" y="383" type="curve" smooth="yes"/>
      <point x="347" y="554"/>
      <point x="354" y="715"/>
      <point x="354" y="715" type="curve"/>
      <point x="314" y="715" type="line"/>
      <point x="314" y="715"/>
      <point x="317" y="497"/>
      <point x="317" y="381" type="curve" smooth="yes"/>
      <point x="317" y="305"/>
      <point x="319" y="157"/>
      <point x="318" y="73" type="curve"/>
      <point x="312" y="94"/>
      <point x="273" y="208"/>
      <point x="221" y="369" type="curve" smooth="yes"/>
      <point x="165" y="542"/>
      <point x="114" y="704"/>
      <point x="114" y="704" type="curve"/>
    </contour>
  </outline>
</glyph>
<glyph name="O" format="2">
  <advance width="383"/>
  <unicode hex="004F"/>
  <anchor x="188" y="0" name="bottom"/>
  <anchor x="191" y="332" name="center"/>
  <anchor x="217" y="6" name="ogonek"/>
  <anchor x="197" y="693" name="top"/>
  <anchor x="271" y="693" name="topright"/>
  <outline>
    <contour>
      <point x="186" y="-2" type="curve" smooth="yes"/>
      <point x="253" y="-2"/>
      <point x="290" y="38"/>
      <point x="310" y="103" type="curve" smooth="yes"/>
      <point x="330" y="169"/>
      <point x="334" y="259"/>
      <point x="334" y="359" type="curve" smooth="yes"/>
      <point x="334" y="438"/>
      <point x="336" y="516"/>
      <point x="325" y="578" type="curve" smooth="yes"/>
      <point x="312" y="656"/>
      <point x="281" y="709"/>
      <point x="204" y="709" type="curve" smooth="yes"/>
      <point x="123" y="709"/>
      <point x="84" y="660"/>
      <point x="66" y="586" type="curve" smooth="yes"/>
      <point x="50" y="524"/>
      <point x="49" y="443"/>
      <point x="49" y="360" type="curve" smooth="yes"/>
      <point x="49" y="259"/>
      <point x="49" y="168"/>
      <point x="66" y="102" type="curve" smooth="yes"/>
      <point x="83" y="38"/>
      <point x="118" y="-2"/>
    </contour>
    <contour>
      <point x="189" y="28" type="curve" smooth="yes"/>
      <point x="133" y="28"/>
      <point x="106" y="62"/>
      <point x="93" y="121" type="curve" smooth="yes"/>
      <point x="81" y="177"/>
      <point x="82" y="255"/>
      <point x="82" y="349" type="curve" smooth="yes"/>
      <point x="82" y="432"/>
      <point x="82" y="512"/>
      <point x="94" y="573" type="curve" smooth="yes"/>
      <point x="107" y="639"/>
      <point x="136" y="682"/>
      <point x="197" y="682" type="curve" smooth="yes"/>
      <point x="266" y="682"/>
      <point x="289" y="637"/>
      <point x="296" y="559" type="curve" smooth="yes"/>
      <point x="301" y="507"/>
      <point x="299" y="441"/>
      <point x="299" y="364" type="curve" smooth="yes"/>
      <point x="299" y="266"/>
      <point x="298" y="180"/>
      <point x="283" y="119" type="curve" smooth="yes"/>
      <point x="269" y="62"/>
      <point x="242" y="28"/>
    </contour>
  </outline>
</glyph>
<glyph name="P" format="2">
  <advance width="352"/>
  <unicode hex="0050"/>
  <outline>
    <contour>
      <point x="100" y="220" type="line"/>
      <point x="247" y="220"/>
      <point x="316" y="276"/>
      <point x="316" y="472" type="curve" smooth="yes"/>
      <point x="316" y="663"/>
      <point x="277" y="713"/>
      <point x="170" y="713" type="curve" smooth="yes"/>
      <point x="123" y="713"/>
      <point x="98" y="711"/>
      <point x="66" y="708" type="curve"/>
      <point x="80" y="672" type="line"/>
      <point x="105" y="678"/>
      <point x="121" y="681"/>
      <point x="177" y="681" type="curve" smooth="yes"/>
      <point x="261" y="681"/>
      <point x="281" y="610"/>
      <point x="281" y="469" type="curve" smooth="yes"/>
      <point x="281" y="303"/>
      <point x="235" y="252"/>
      <point x="96" y="252" type="curve"/>
    </contour>
    <contour>
      <point x="69" y="-2" type="curve"/>
      <point x="107" y="1" type="line"/>
      <point x="105" y="101"/>
      <point x="103" y="265"/>
      <point x="103" y="350" type="curve"/>
      <point x="102" y="432"/>
      <point x="105" y="632"/>
      <point x="106" y="698" type="curve"/>
      <point x="66" y="708" type="line"/>
      <point x="69" y="628"/>
      <point x="73" y="477"/>
      <point x="73" y="352" type="curve"/>
      <point x="73" y="227"/>
      <point x="71" y="77"/>
    </contour>
  </outline>
</glyph>
<glyph name="R" format="2">
  <advance width="380"/>
  <unicode hex="0052"/>
  <anchor x="191" y="0" name="bottom"/>
  <anchor x="175" y="693" name="top"/>
  <outline>
    <contour>
      <point x="100" y="233" type="line"/>
      <point x="252" y="233"/>
      <point x="321" y="289"/>
      <point x="321" y="472" type="curve" smooth="yes"/>
      <point x="321" y="658"/>
      <point x="282" y="708"/>
      <point x="170" y="708" type="curve" smooth="yes"/>
      <point x="123" y="708"/>
      <point x="98" y="706"/>
      <point x="66" y="703" type="curve"/>
      <point x="80" y="667" type="line"/>
      <point x="105" y="673"/>
      <point x="121" y="676"/>
      <point x="177" y="676" type="curve" smooth="yes"/>
      <point x="266" y="676"/>
      <point x="286" y="605"/>
      <point x="286" y="469" type="curve" smooth="yes"/>
      <point x="286" y="316"/>
      <point x="240" y="265"/>
      <point x="96" y="265" type="curve"/>
    </contour>
    <contour>
      <point x="69" y="-3" type="curve"/>
      <point x="107" y="1" type="line"/>
      <point x="105" y="101"/>
      <point x="103" y="265"/>
      <point x="103" y="350" type="curve"/>
      <point x="103" y="435"/>
      <point x="105" y="595"/>
      <point x="106" y="693" type="curve"/>
      <point x="66" y="703" type="line"/>
      <point x="69" y="626"/>
      <point x="73" y="477"/>
      <point x="73" y="352" type="curve"/>
      <point x="73" y="227"/>
      <point x="71" y="76"/>
    </contour>
    <contour>
      <point x="300" y="-6" type="curve"/>
      <point x="345" y="-3" type="line"/>
      <point x="301" y="93"/>
      <point x="264" y="184"/>
      <point x="233" y="273" type="curve"/>
      <point x="206" y="248" type="line"/>
      <point x="242" y="159"/>
      <point x="272" y="78"/>
    </contour>
  </outline>
</glyph>
<glyph name="S" format="2">
  <advance width="347"/>
  <unicode hex="0053"/>
  <anchor x="162" y="0" name="bottom"/>
  <anchor x="178" y="693" name="top"/>
  <outline>
    <contour>
      <point x="173" y="-10" type="curve" smooth="yes"/>
      <point x="258" y="-10"/>
      <point x="302" y="39"/>
      <point x="302" y="124" type="curve" smooth="yes"/>
      <point x="302" y="196"/>
      <point x="265" y="240"/>
      <point x="179" y="318" type="curve" smooth="yes"/>
      <point x="111" y="379"/>
      <point x="81" y="440"/>
      <point x="81" y="527" type="curve" smooth="yes"/>
      <point x="81" y="627"/>
      <point x="110" y="675"/>
      <point x="179" y="675" type="curve" smooth="yes"/>
      <point x="251" y="675"/>
      <point x="271" y="621"/>
      <point x="271" y="523" type="curve" smooth="yes"/>
      <point x="271" y="495"/>
      <point x="269" y="463"/>
      <point x="267" y="428" type="curve"/>
      <point x="297" y="428" type="line"/>
      <point x="299" y="461"/>
      <point x="301" y="493"/>
      <point x="301" y="523" type="curve" smooth="yes"/>
      <point x="301" y="626"/>
      <point x="278" y="704"/>
      <point x="175" y="704" type="curve" smooth="yes"/>
      <point x="95" y="704"/>
      <point x="50" y="641"/>
      <point x="50" y="539" type="curve" smooth="yes"/>
      <point x="50" y="438"/>
      <point x="71" y="370"/>
      <point x="158" y="295" type="curve" smooth="yes"/>
      <point x="240" y="224"/>
      <point x="270" y="185"/>
      <point x="270" y="117" type="curve" smooth="yes"/>
      <point x="270" y="53"/>
      <point x="236" y="18"/>
      <point x="169" y="18" type="curve" smooth="yes"/>
      <point x="95" y="18"/>
      <point x="81" y="75"/>
      <point x="81" y="144" type="curve" smooth="yes"/>
      <point x="81" y="157"/>
      <point x="81" y="170"/>
      <point x="82" y="183" type="curve"/>
      <point x="55" y="183" type="line"/>
      <point x="53" y="164"/>
      <point x="51" y="146"/>
      <point x="51" y="128" type="curve" smooth="yes"/>
      <point x="51" y="48"/>
      <point x="80" y="-10"/>
    </contour>
  </outline>
</glyph>
<glyph name="T" format="2">
  <advance width="321"/>
  <unicode hex="0054"/>
  <anchor x="157" y="1" name="bottom"/>
  <anchor x="156" y="347" name="center"/>
  <anchor x="157" y="693" name="top"/>
  <outline>
    <contour>
      <point x="137" y="0" type="curve"/>
      <point x="175" y="1" type="line"/>
      <point x="175" y="1"/>
      <point x="171" y="234"/>
      <point x="171" y="350" type="curve"/>
      <point x="171" y="466"/>
      <point x="174" y="697"/>
      <point x="174" y="697" type="curve"/>
      <point x="134" y="699" type="line"/>
      <point x="134" y="699"/>
      <point x="141" y="523"/>
      <point x="141" y="352" type="curve"/>
      <point x="141" y="181"/>
      <point x="137" y="0"/>
    </contour>
    <contour>
      <point x="13" y="664" type="line"/>
      <point x="13" y="664"/>
      <point x="106" y="669"/>
      <point x="156" y="670" type="curve"/>
      <point x="206" y="670"/>
      <point x="308" y="672"/>
      <point x="308" y="672" type="curve"/>
      <point x="305" y="704" type="line"/>
      <point x="305" y="704"/>
      <point x="192" y="702"/>
      <point x="143" y="702" type="curve"/>
      <point x="94" y="702"/>
      <point x="16" y="701"/>
      <point x="16" y="701" type="curve"/>
    </contour>
  </outline>
</glyph>
<glyph name="U" format="2">
  <advance width="392"/>
  <unicode hex="0055"/>
  <anchor x="198" y="0" name="bottom"/>
  <anchor x="228" y="0" name="ogonek"/>
  <anchor x="199" y="693" name="top"/>
  <anchor x="285" y="693" name="topright"/>
  <outline>
    <contour>
      <point x="197" y="-10" type="curve"/>
      <point x="306" y="-10"/>
      <point x="332" y="73"/>
      <point x="332" y="161" type="curve" smooth="yes"/>
      <point x="332" y="191"/>
      <point x="332" y="278"/>
      <point x="331" y="392" type="curve"/>
      <point x="331" y="524"/>
      <point x="333" y="617"/>
      <point x="334" y="706" type="curve"/>
      <point x="294" y="707" type="line"/>
      <point x="296" y="645"/>
      <point x="299" y="521"/>
      <point x="300" y="394" type="curve"/>
      <point x="300" y="272"/>
      <point x="299" y="163"/>
      <point x="299" y="143" type="curve" smooth="yes"/>
      <point x="299" y="75"/>
      <point x="275" y="17"/>
      <point x="198" y="17" type="curve" smooth="yes"/>
      <point x="129" y="17"/>
      <point x="91" y="59"/>
      <point x="91" y="156" type="curve" smooth="yes"/>
      <point x="91" y="196"/>
      <point x="91" y="319"/>
      <point x="92" y="396" type="curve"/>
      <point x="93" y="464"/>
      <point x="94" y="607"/>
      <point x="97" y="695" type="curve"/>
      <point x="59" y="696" type="line"/>
      <point x="62" y="603"/>
      <point x="62" y="492"/>
      <point x="62" y="402" type="curve"/>
      <point x="62" y="334"/>
      <point x="61" y="229"/>
      <point x="61" y="159" type="curve" smooth="yes"/>
      <point x="61" y="45"/>
      <point x="99" y="-10"/>
    </contour>
  </outline>
</glyph>
<glyph name="V" format="2">
  <advance width="370"/>
  <unicode hex="0056"/>
  <outline>
    <contour>
      <point x="31" y="709" type="line"/>
      <point x="56" y="575"/>
      <point x="78" y="463"/>
      <point x="99" y="351" type="curve" smooth="yes"/>
      <point x="121" y="238"/>
      <point x="141" y="127"/>
      <point x="165" y="-5" type="curve"/>
      <point x="213" y="-6" type="line"/>
      <point x="232" y="108"/>
      <point x="253" y="228"/>
      <point x="274" y="346" type="curve" smooth="yes"/>
      <point x="296" y="469"/>
      <point x="318" y="591"/>
      <point x="339" y="702" type="curve"/>
      <point x="304" y="700" type="line"/>
      <point x="285" y="588"/>
      <point x="266" y="468"/>
      <point x="245" y="348" type="curve" smooth="yes"/>
      <point x="227" y="237"/>
      <point x="208" y="126"/>
      <point x="188" y="17" type="curve"/>
      <point x="168" y="124"/>
      <point x="147" y="235"/>
      <point x="126" y="349" type="curve" smooth="yes"/>
      <point x="106" y="466"/>
      <point x="85" y="586"/>
      <point x="66" y="709" type="curve"/>
    </contour>
  </outline>
</glyph>
<glyph name="W" format="2">
  <advance width="607"/>
  <unicode hex="0057"/>
  <anchor x="303" y="693" name="top"/>
  <outline>
    <contour>
      <point x="197" y="-6" type="line"/>
      <point x="208" y="46"/>
      <point x="231" y="162"/>
      <point x="256" y="291" type="curve" smooth="yes"/>
      <point x="273" y="381"/>
      <point x="290" y="470"/>
      <point x="304" y="560" type="curve"/>
      <point x="315" y="490"/>
      <point x="333" y="390"/>
      <point x="353" y="291" type="curve" smooth="yes"/>
      <point x="373" y="195"/>
      <point x="400" y="66"/>
      <point x="415" y="-5" type="curve"/>
      <point x="472" y="-6" type="line"/>
      <point x="481" y="67"/>
      <point x="502" y="212"/>
      <point x="522" y="341" type="curve" smooth="yes"/>
      <point x="542" y="472"/>
      <point x="568" y="624"/>
      <point x="583" y="702" type="curve"/>
      <point x="548" y="700" type="line"/>
      <point x="534" y="615"/>
      <point x="510" y="461"/>
      <point x="494" y="351" type="curve" smooth="yes"/>
      <point x="472" y="208"/>
      <point x="457" y="98"/>
      <point x="442" y="19" type="curve"/>
      <point x="426" y="90"/>
      <point x="394" y="218"/>
      <point x="379" y="301" type="curve" smooth="yes"/>
      <point x="355" y="432"/>
      <point x="331" y="578"/>
      <point x="319" y="652" type="curve"/>
      <point x="290" y="652" type="line"/>
      <point x="276" y="566"/>
      <point x="250" y="411"/>
      <point x="228" y="301" type="curve" smooth="yes"/>
      <point x="198" y="150"/>
      <point x="189" y="100"/>
      <point x="171" y="19" type="curve"/>
      <point x="159" y="83"/>
      <point x="126" y="268"/>
      <point x="113" y="351" type="curve" smooth="yes"/>
      <point x="95" y="470"/>
      <point x="77" y="590"/>
      <point x="59" y="709" type="curve"/>
      <point x="24" y="709" type="line"/>
      <point x="40" y="627"/>
      <point x="68" y="471"/>
      <point x="87" y="341" type="curve" smooth="yes"/>
      <point x="105" y="226"/>
      <point x="123" y="110"/>
      <point x="140" y="-5" type="curve"/>
    </contour>
  </outline>
</glyph>
<glyph name="X" format="2">
  <advance width="347"/>
  <unicode hex="0058"/>
  <outline>
    <contour>
      <point x="6" y="-1" type="curve"/>
      <point x="44" y="0" type="line"/>
      <point x="59" y="42"/>
      <point x="126" y="207"/>
      <point x="187" y="356" type="curve" smooth="yes"/>
      <point x="243" y="489"/>
      <point x="310" y="641"/>
      <point x="334" y="693" type="curve"/>
      <point x="295" y="694" type="line"/>
      <point x="280" y="651"/>
      <point x="215" y="495"/>
      <point x="157" y="354" type="curve" smooth="yes"/>
      <point x="100" y="215"/>
      <point x="30" y="55"/>
    </contour>
    <contour>
      <point x="301" y="-5" type="curve"/>
      <point x="341" y="-5" type="line"/>
      <point x="317" y="52"/>
      <point x="246" y="224"/>
      <point x="192" y="364" type="curve" smooth="yes"/>
      <point x="139" y="503"/>
      <point x="84" y="642"/>
      <point x="67" y="688" type="curve"/>
      <point x="26" y="689" type="line"/>
      <point x="49" y="636"/>
      <point x="112" y="484"/>
      <point x="166" y="351" type="curve" smooth="yes"/>
      <point x="224" y="205"/>
      <point x="287" y="40"/>
    </contour>
  </outline>
</glyph>
<glyph name="Y" format="2">
  <advance width="317"/>
  <unicode hex="0059"/>
  <anchor x="156" y="0" name="bottom"/>
  <anchor x="158" y="693" name="top"/>
  <outline>
    <contour>
      <point x="138" y="0" type="curve"/>
      <point x="174" y="1" type="line"/>
      <point x="173" y="43"/>
      <point x="171" y="143"/>
      <point x="168" y="222" type="curve"/>
      <point x="138" y="226" type="line"/>
      <point x="139" y="122"/>
      <point x="139" y="43"/>
    </contour>
    <contour>
      <point x="14" y="704" type="line"/>
      <point x="35" y="623"/>
      <point x="58" y="532"/>
      <point x="81" y="435" type="curve" smooth="yes"/>
      <point x="101" y="350"/>
      <point x="122" y="260"/>
      <point x="142" y="171" type="curve"/>
      <point x="167" y="174" type="line"/>
      <point x="186" y="249"/>
      <point x="211" y="346"/>
      <point x="235" y="438" type="curve" smooth="yes"/>
      <point x="264" y="547"/>
      <point x="292" y="649"/>
      <point x="304" y="697" type="curve"/>
      <point x="264" y="697" type="line"/>
      <point x="256" y="654"/>
      <point x="231" y="548"/>
      <point x="205" y="442" type="curve" smooth="yes"/>
      <point x="187" y="370"/>
      <point x="168" y="298"/>
      <point x="154" y="245" type="curve"/>
      <point x="139" y="310"/>
      <point x="124" y="380"/>
      <point x="110" y="446" type="curve" smooth="yes"/>
      <point x="84" y="563"/>
      <point x="62" y="667"/>
      <point x="56" y="704" type="curve"/>
    </contour>
  </outline>
</glyph>
<glyph name="Z" format="2">
  <advance width="313"/>
  <unicode hex="005A"/>
  <anchor x="152" y="693" name="top"/>
  <outline>
    <contour>
      <point x="40" y="693" type="curve"/>
      <point x="38" y="664" type="line"/>
      <point x="63" y="665"/>
      <point x="108" y="666"/>
      <point x="145" y="666" type="curve" smooth="yes"/>
      <point x="174" y="666"/>
      <point x="210" y="665"/>
      <point x="245" y="664" type="curve"/>
      <point x="215" y="572"/>
      <point x="176" y="456"/>
      <point x="134" y="336" type="curve" smooth="yes"/>
      <point x="97" y="232"/>
      <point x="59" y="125"/>
      <point x="25" y="29" type="curve"/>
      <point x="26" y="1" type="line"/>
      <point x="55" y="2"/>
      <point x="115" y="3"/>
      <point x="156" y="3" type="curve" smooth="yes"/>
      <point x="197" y="3"/>
      <point x="255" y="1"/>
      <point x="283" y="0" type="curve"/>
      <point x="286" y="32" type="line"/>
      <point x="259" y="31"/>
      <point x="210" y="30"/>
      <point x="172" y="29" type="curve" smooth="yes"/>
      <point x="142" y="28"/>
      <point x="96" y="29"/>
      <point x="57" y="29" type="curve"/>
      <point x="72" y="74"/>
      <point x="115" y="197"/>
      <point x="160" y="326" type="curve" smooth="yes"/>
      <point x="207" y="461"/>
      <point x="257" y="602"/>
      <point x="280" y="664" type="curve"/>
      <point x="280" y="695" type="line"/>
      <point x="254" y="694"/>
      <point x="204" y="693"/>
      <point x="163" y="692" type="curve" smooth="yes"/>
      <point x="122" y="691"/>
      <point x="67" y="692"/>
    </contour>
  </outline>
</glyph>
<glyph name="bracketleft" format="2">
  <advance width="337"/>
  <unicode hex="005B"/>
  <outline>
    <contour>
      <point x="98" y="-136" type="curve"/>
      <point x="131" y="-131" type="line"/>
      <point x="131" y="-70"/>
      <point x="131" y="196"/>
      <point x="131" y="315" type="curve" smooth="yes"/>
      <point x="131" y="434"/>
      <point x="131" y="635"/>
      <point x="131" y="681" type="curve"/>
      <point x="99" y="691" type="line"/>
      <point x="100" y="637"/>
      <point x="103" y="465"/>
      <point x="103" y="304" type="curve" smooth="yes"/>
      <point x="103" y="136"/>
      <point x="100" y="-78"/>
    </contour>
    <contour>
      <point x="98" y="-136" type="line"/>
      <point x="144" y="-134"/>
      <point x="216" y="-132"/>
      <point x="246" y="-131" type="curve"/>
      <point x="247" y="-105" type="line"/>
      <point x="218" y="-104"/>
      <point x="153" y="-103"/>
      <point x="112" y="-102" type="curve"/>
    </contour>
    <contour>
      <point x="121" y="661" type="line"/>
      <point x="159" y="662"/>
      <point x="219" y="663"/>
      <point x="247" y="663" type="curve"/>
      <point x="244" y="693" type="line"/>
      <point x="216" y="692"/>
      <point x="142" y="691"/>
      <point x="99" y="691" type="curve"/>
    </contour>
  </outline>
</glyph>
<glyph name="backslash" format="2">
  <advance width="275"/>
  <unicode hex="005C"/>
  <outline>
    <contour>
      <point x="230" y="0" type="line"/>
      <point x="203" y="105"/>
      <point x="172" y="238"/>
      <point x="143" y="365" type="curve" smooth="yes"/>
      <point x="114" y="491"/>
      <point x="89" y="612"/>
      <point x="72" y="695" type="curve"/>
      <point x="44" y="694" type="line"/>
      <point x="66" y="603"/>
      <point x="93" y="486"/>
      <point x="121" y="361" type="curve" smooth="yes"/>
      <point x="148" y="242"/>
      <point x="176" y="116"/>
      <point x="202" y="1" type="curve"/>
    </contour>
  </outline>
</glyph>
<glyph name="bracketright" format="2">
  <advance width="337"/>
  <unicode hex="005D"/>
  <outline>
    <contour>
      <point x="237" y="-134" type="line"/>
      <point x="236" y="-5"/>
      <point x="234" y="124"/>
      <point x="233" y="253" type="curve"/>
      <point x="235" y="400"/>
      <point x="236" y="546"/>
      <point x="238" y="693" type="curve"/>
      <point x="205" y="688" type="line"/>
      <point x="205" y="539"/>
      <point x="205" y="391"/>
      <point x="205" y="242" type="curve"/>
      <point x="205" y="120"/>
      <point x="205" y="-2"/>
      <point x="205" y="-124" type="curve"/>
    </contour>
    <contour>
      <point x="92" y="-136" type="line"/>
      <point x="140" y="-135"/>
      <point x="189" y="-135"/>
      <point x="237" y="-134" type="curve"/>
      <point x="215" y="-104" type="line"/>
      <point x="173" y="-105"/>
      <point x="131" y="-105"/>
      <point x="89" y="-106" type="curve"/>
    </contour>
    <contour>
      <point x="89" y="662" type="line"/>
      <point x="118" y="661"/>
      <point x="183" y="660"/>
      <point x="224" y="659" type="curve"/>
      <point x="238" y="693" type="line"/>
      <point x="192" y="691"/>
      <point x="120" y="689"/>
      <point x="90" y="688" type="curve"/>
    </contour>
  </outline>
</glyph>
<glyph name="underscore" format="2">
  <advance width="338"/>
  <unicode hex="005F"/>
  <outline>
    <contour>
      <point x="38" y="-93" type="line"/>
      <point x="38" y="-93"/>
      <point x="118" y="-90"/>
      <point x="170" y="-89" type="curve" smooth="yes"/>
      <point x="225" y="-88"/>
      <point x="294" y="-90"/>
      <point x="294" y="-90" type="curve"/>
      <point x="301" y="-64" type="line"/>
      <point x="301" y="-64"/>
      <point x="223" y="-67"/>
      <point x="165" y="-68" type="curve" smooth="yes"/>
      <point x="108" y="-69"/>
      <point x="37" y="-66"/>
      <point x="37" y="-66" type="curve"/>
    </contour>
  </outline>
</glyph>
<glyph name="grave" format="2">
  <advance width="189"/>
  <unicode hex="0060"/>
  <anchor x="104" y="555" name="_top"/>
  <outline>
    <contour>
      <point x="137" y="629" type="curve"/>
      <point x="149" y="644" type="line"/>
      <point x="134" y="654"/>
      <point x="119" y="666"/>
      <point x="104" y="677" type="curve" smooth="yes"/>
      <point x="87" y="689"/>
      <point x="70" y="702"/>
      <point x="56" y="714" type="curve"/>
      <point x="40" y="689" type="line"/>
      <point x="54" y="681"/>
      <point x="72" y="670"/>
      <point x="90" y="659" type="curve" smooth="yes"/>
      <point x="107" y="649"/>
      <point x="124" y="637"/>
    </contour>
  </outline>
</glyph>
<glyph name="a" format="2">
  <advance width="300"/>
  <unicode hex="0061"/>
  <anchor x="150" y="0" name="bottom"/>
  <anchor x="256" y="5" name="ogonek"/>
  <anchor x="150" y="515" name="top"/>
  <outline>
    <contour>
      <point x="225" y="0" type="line"/>
      <point x="257" y="-1" type="line"/>
      <point x="254" y="218" type="line"/>
      <point x="257" y="383" type="line" smooth="yes"/>
      <point x="258" y="444"/>
      <point x="248" y="525"/>
      <point x="154" y="525" type="curve" smooth="yes"/>
      <point x="76" y="525"/>
      <point x="45" y="471"/>
      <point x="45" y="395" type="curve" smooth="yes"/>
      <point x="45" y="374"/>
      <point x="48" y="352"/>
      <point x="52" y="328" type="curve"/>
      <point x="80" y="331" type="line"/>
      <point x="76" y="353"/>
      <point x="74" y="375"/>
      <point x="74" y="396" type="curve" smooth="yes"/>
      <point x="74" y="451"/>
      <point x="91" y="498"/>
      <point x="149" y="498" type="curve" smooth="yes"/>
      <point x="218" y="498"/>
      <point x="228" y="457"/>
      <point x="227" y="367" type="curve" smooth="yes"/>
      <point x="226" y="219" type="line"/>
    </contour>
    <contour>
      <point x="120" y="-10" type="curve" smooth="yes"/>
      <point x="221" y="-10"/>
      <point x="249" y="144"/>
      <point x="249" y="257" type="curve"/>
      <point x="226" y="219" type="line"/>
      <point x="226" y="118"/>
      <point x="191" y="22"/>
      <point x="126" y="22" type="curve" smooth="yes"/>
      <point x="74" y="22"/>
      <point x="67" y="67"/>
      <point x="67" y="97" type="curve" smooth="yes"/>
      <point x="67" y="167"/>
      <point x="106" y="199"/>
      <point x="147" y="228" type="curve" smooth="yes"/>
      <point x="192" y="259"/>
      <point x="238" y="287"/>
      <point x="238" y="356" type="curve"/>
      <point x="227" y="367" type="line"/>
      <point x="227" y="315"/>
      <point x="181" y="286"/>
      <point x="134" y="252" type="curve" smooth="yes"/>
      <point x="85" y="216"/>
      <point x="34" y="174"/>
      <point x="34" y="92" type="curve" smooth="yes"/>
      <point x="34" y="27"/>
      <point x="69" y="-10"/>
    </contour>
  </outline>
</glyph>
<glyph name="b" format="2">
  <advance width="345"/>
  <unicode hex="0062"/>
  <outline>
    <contour>
      <point x="179" y="-8" type="curve"/>
      <point x="243" y="-8"/>
      <point x="287" y="44"/>
      <point x="292" y="131" type="curve"/>
      <point x="298" y="236"/>
      <point x="298" y="272"/>
      <point x="298" y="366" type="curve"/>
      <point x="298" y="443"/>
      <point x="273" y="514"/>
      <point x="199" y="514" type="curve"/>
      <point x="105" y="514"/>
      <point x="61" y="419"/>
      <point x="61" y="250" type="curve"/>
      <point x="88" y="293" type="line"/>
      <point x="88" y="424"/>
      <point x="135" y="485"/>
      <point x="196" y="485" type="curve"/>
      <point x="248" y="485"/>
      <point x="269" y="437"/>
      <point x="269" y="358" type="curve"/>
      <point x="269" y="313"/>
      <point x="269" y="208"/>
      <point x="265" y="138" type="curve"/>
      <point x="261" y="72"/>
      <point x="234" y="21"/>
      <point x="181" y="21" type="curve"/>
      <point x="107" y="21"/>
      <point x="88" y="102"/>
      <point x="88" y="215" type="curve"/>
      <point x="61" y="256" type="line"/>
      <point x="61" y="47"/>
      <point x="98" y="-8"/>
    </contour>
    <contour>
      <point x="89" y="-1" type="line"/>
      <point x="87" y="93" type="line"/>
      <point x="87" y="173"/>
      <point x="88" y="275"/>
      <point x="88" y="343" type="curve"/>
      <point x="88" y="489"/>
      <point x="89" y="690"/>
      <point x="89" y="690" type="curve"/>
      <point x="58" y="687" type="line"/>
      <point x="58" y="687"/>
      <point x="60" y="488"/>
      <point x="60" y="345" type="curve"/>
      <point x="60" y="201"/>
      <point x="60" y="0"/>
      <point x="60" y="0" type="curve"/>
    </contour>
  </outline>
</glyph>
<glyph name="c" format="2">
  <advance width="322"/>
  <unicode hex="0063"/>
  <anchor x="163" y="0" name="bottom"/>
  <anchor x="167" y="555" name="top"/>
  <outline>
    <contour>
      <point x="167" y="-10" type="curve"/>
      <point x="249" y="-10"/>
      <point x="288" y="41"/>
      <point x="288" y="120" type="curve" smooth="yes"/>
      <point x="288" y="135"/>
      <point x="287" y="150"/>
      <point x="284" y="167" type="curve"/>
      <point x="252" y="167" type="line"/>
      <point x="257" y="151"/>
      <point x="259" y="133"/>
      <point x="259" y="116" type="curve" smooth="yes"/>
      <point x="259" y="65"/>
      <point x="237" y="18"/>
      <point x="172" y="18" type="curve"/>
      <point x="123" y="18"/>
      <point x="98" y="46"/>
      <point x="86" y="93" type="curve" smooth="yes"/>
      <point x="75" y="137"/>
      <point x="75" y="198"/>
      <point x="75" y="270" type="curve"/>
      <point x="76" y="323"/>
      <point x="78" y="371"/>
      <point x="87" y="409" type="curve" smooth="yes"/>
      <point x="99" y="465"/>
      <point x="123" y="500"/>
      <point x="177" y="500" type="curve"/>
      <point x="237" y="500"/>
      <point x="254" y="443"/>
      <point x="254" y="364" type="curve" smooth="yes"/>
      <point x="254" y="340"/>
      <point x="252" y="313"/>
      <point x="250" y="285" type="curve"/>
      <point x="278" y="285" type="line"/>
      <point x="281" y="309"/>
      <point x="283" y="335"/>
      <point x="283" y="361" type="curve" smooth="yes"/>
      <point x="283" y="445"/>
      <point x="263" y="526"/>
      <point x="182" y="526" type="curve"/>
      <point x="109" y="526"/>
      <point x="74" y="482"/>
      <point x="58" y="415" type="curve" smooth="yes"/>
      <point x="49" y="374"/>
      <point x="46" y="324"/>
      <point x="46" y="271" type="curve"/>
      <point x="46" y="203"/>
      <point x="47" y="136"/>
      <point x="60" y="84" type="curve" smooth="yes"/>
      <point x="75" y="28"/>
      <point x="105" y="-10"/>
    </contour>
  </outline>
</glyph>
<glyph name="d" format="2">
  <advance width="345"/>
  <unicode hex="0064"/>
  <anchor x="231" y="610" name="center"/>
  <anchor x="300" y="492" name="topright"/>
  <outline>
    <contour>
      <point x="46" y="260" type="curve" smooth="yes"/>
      <point x="46" y="192"/>
      <point x="49" y="126"/>
      <point x="63" y="77" type="curve" smooth="yes"/>
      <point x="78" y="26"/>
      <point x="105" y="-8"/>
      <point x="153" y="-8" type="curve" smooth="yes"/>
      <point x="205" y="-8"/>
      <point x="234" y="16"/>
      <point x="256" y="55" type="curve"/>
      <point x="256" y="0" type="line"/>
      <point x="288" y="-1" type="line"/>
      <point x="288" y="76"/>
      <point x="285" y="315"/>
      <point x="285" y="337" type="curve" smooth="yes"/>
      <point x="285" y="429"/>
      <point x="286" y="560"/>
      <point x="287" y="692" type="curve"/>
      <point x="256" y="690" type="line"/>
      <point x="256" y="603"/>
      <point x="257" y="517"/>
      <point x="257" y="450" type="curve"/>
      <point x="237" y="503"/>
      <point x="203" y="525"/>
      <point x="162" y="525" type="curve" smooth="yes"/>
      <point x="108" y="525"/>
      <point x="78" y="489"/>
      <point x="63" y="435" type="curve" smooth="yes"/>
      <point x="49" y="386"/>
      <point x="46" y="324"/>
    </contour>
    <contour>
      <point x="75" y="306" type="curve" smooth="yes"/>
      <point x="75" y="346"/>
      <point x="78" y="388"/>
      <point x="88" y="422" type="curve" smooth="yes"/>
      <point x="101" y="465"/>
      <point x="123" y="496"/>
      <point x="161" y="496" type="curve" smooth="yes"/>
      <point x="205" y="496"/>
      <point x="229" y="461"/>
      <point x="242" y="415" type="curve" smooth="yes"/>
      <point x="255" y="369"/>
      <point x="257" y="312"/>
      <point x="257" y="268" type="curve" smooth="yes"/>
      <point x="257" y="217"/>
      <point x="259" y="155"/>
      <point x="248" y="106" type="curve" smooth="yes"/>
      <point x="237" y="57"/>
      <point x="211" y="21"/>
      <point x="158" y="21" type="curve" smooth="yes"/>
      <point x="121" y="21"/>
      <point x="101" y="52"/>
      <point x="89" y="101" type="curve" smooth="yes"/>
      <point x="76" y="154"/>
      <point x="75" y="229"/>
    </contour>
  </outline>
</glyph>
<glyph name="e" format="2">
  <advance width="323"/>
  <unicode hex="0065"/>
  <anchor x="167" y="0" name="bottom"/>
  <anchor x="205" y="-1" name="ogonek"/>
  <anchor x="172" y="515" name="top"/>
  <outline>
    <contour>
      <point x="167" y="-10" type="curve"/>
      <point x="255" y="-10"/>
      <point x="289" y="46"/>
      <point x="289" y="117" type="curve" smooth="yes"/>
      <point x="289" y="133"/>
      <point x="287" y="150"/>
      <point x="284" y="167" type="curve"/>
      <point x="252" y="167" type="line"/>
      <point x="257" y="153"/>
      <point x="260" y="135"/>
      <point x="260" y="116" type="curve" smooth="yes"/>
      <point x="260" y="69"/>
      <point x="239" y="18"/>
      <point x="172" y="18" type="curve"/>
      <point x="119" y="18"/>
      <point x="95" y="52"/>
      <point x="84" y="103" type="curve" smooth="yes"/>
      <point x="74" y="150"/>
      <point x="75" y="210"/>
      <point x="75" y="270" type="curve"/>
      <point x="76" y="318"/>
      <point x="76" y="374"/>
      <point x="88" y="419" type="curve" smooth="yes"/>
      <point x="100" y="466"/>
      <point x="125" y="500"/>
      <point x="177" y="500" type="curve"/>
      <point x="239" y="500"/>
      <point x="255" y="432"/>
      <point x="255" y="360" type="curve" smooth="yes"/>
      <point x="255" y="334"/>
      <point x="253" y="307"/>
      <point x="250" y="283" type="curve"/>
      <point x="276" y="256" type="line"/>
      <point x="280" y="287"/>
      <point x="284" y="325"/>
      <point x="284" y="362" type="curve" smooth="yes"/>
      <point x="284" y="445"/>
      <point x="264" y="526"/>
      <point x="178" y="526" type="curve"/>
      <point x="109" y="526"/>
      <point x="76" y="486"/>
      <point x="60" y="428" type="curve" smooth="yes"/>
      <point x="48" y="384"/>
      <point x="46" y="328"/>
      <point x="46" y="271" type="curve"/>
      <point x="46" y="207"/>
      <point x="46" y="140"/>
      <point x="58" y="88" type="curve" smooth="yes"/>
      <point x="71" y="30"/>
      <point x="102" y="-10"/>
    </contour>
    <contour>
      <point x="62" y="252" type="line"/>
      <point x="145" y="257"/>
      <point x="276" y="256"/>
      <point x="276" y="256" type="curve"/>
      <point x="278" y="284" type="line"/>
      <point x="62" y="282" type="line"/>
    </contour>
  </outline>
</glyph>
<glyph name="g" format="2">
  <advance width="337"/>
  <unicode hex="0067"/>
  <anchor x="184" y="515" name="top"/>
  <outline>
    <contour>
      <point x="154" y="-157" type="curve"/>
      <point x="242" y="-157"/>
      <point x="278" y="-98"/>
      <point x="278" y="-15" type="curve"/>
      <point x="278" y="48"/>
      <point x="279" y="171"/>
      <point x="279" y="277" type="curve"/>
      <point x="279" y="384"/>
      <point x="286" y="475"/>
      <point x="292" y="515" type="curve"/>
      <point x="255" y="515" type="line"/>
      <point x="253" y="468"/>
      <point x="250" y="410"/>
      <point x="250" y="276" type="curve"/>
      <point x="250" y="172"/>
      <point x="249" y="50"/>
      <point x="249" y="-12" type="curve"/>
      <point x="249" y="-91"/>
      <point x="218" y="-130"/>
      <point x="159" y="-130" type="curve"/>
      <point x="109" y="-130"/>
      <point x="83" y="-110"/>
      <point x="83" y="-64" type="curve" smooth="yes"/>
      <point x="83" y="-58"/>
      <point x="83" y="-52"/>
      <point x="84" y="-46" type="curve"/>
      <point x="54" y="-52" type="line"/>
      <point x="53" y="-58"/>
      <point x="53" y="-64"/>
      <point x="53" y="-70" type="curve"/>
      <point x="53" y="-109"/>
      <point x="75" y="-157"/>
    </contour>
    <contour>
      <point x="147" y="-9" type="curve"/>
      <point x="259" y="-9"/>
      <point x="277" y="166"/>
      <point x="277" y="255" type="curve"/>
      <point x="250" y="212" type="line"/>
      <point x="250" y="82"/>
      <point x="197" y="22"/>
      <point x="154" y="22" type="curve"/>
      <point x="109" y="22"/>
      <point x="90" y="55"/>
      <point x="82" y="111" type="curve" smooth="yes"/>
      <point x="76" y="151"/>
      <point x="76" y="203"/>
      <point x="76" y="262" type="curve"/>
      <point x="76" y="310"/>
      <point x="77" y="356"/>
      <point x="83" y="395" type="curve" smooth="yes"/>
      <point x="92" y="455"/>
      <point x="114" y="497"/>
      <point x="160" y="497" type="curve"/>
      <point x="210" y="497"/>
      <point x="250" y="434"/>
      <point x="250" y="291" type="curve"/>
      <point x="277" y="249" type="line"/>
      <point x="277" y="451"/>
      <point x="234" y="523"/>
      <point x="158" y="523" type="curve"/>
      <point x="95" y="523"/>
      <point x="67" y="472"/>
      <point x="55" y="400" type="curve" smooth="yes"/>
      <point x="48" y="359"/>
      <point x="46" y="310"/>
      <point x="46" y="261" type="curve"/>
      <point x="47" y="202"/>
      <point x="48" y="145"/>
      <point x="57" y="98" type="curve" smooth="yes"/>
      <point x="69" y="34"/>
      <point x="93" y="-9"/>
    </contour>
  </outline>
</glyph>
<glyph name="h" format="2">
  <advance width="357"/>
  <unicode hex="0068"/>
  <anchor x="176" y="0" name="bottom"/>
  <anchor x="116" y="609" name="center"/>
  <anchor x="77" y="669" name="top"/>
  <outline>
    <contour>
      <point x="60" y="0" type="curve"/>
      <point x="91" y="0" type="line"/>
      <point x="91" y="0"/>
      <point x="91" y="136"/>
      <point x="91" y="279" type="curve"/>
      <point x="91" y="423"/>
      <point x="93" y="694"/>
      <point x="93" y="694" type="curve"/>
      <point x="60" y="694" type="line"/>
      <point x="60" y="694"/>
      <point x="63" y="431"/>
      <point x="63" y="285" type="curve"/>
      <point x="63" y="140"/>
      <point x="60" y="0"/>
    </contour>
    <contour>
      <point x="291" y="-1" type="line"/>
      <point x="291" y="50"/>
      <point x="289" y="111"/>
      <point x="289" y="224" type="curve" smooth="yes"/>
      <point x="289" y="297"/>
      <point x="289" y="349"/>
      <point x="289" y="397" type="curve" smooth="yes"/>
      <point x="289" y="478"/>
      <point x="264" y="520"/>
      <point x="203" y="520" type="curve" smooth="yes"/>
      <point x="116" y="520"/>
      <point x="72" y="414"/>
      <point x="72" y="255" type="curve"/>
      <point x="91" y="279" type="line"/>
      <point x="91" y="390"/>
      <point x="136" y="495"/>
      <point x="200" y="495" type="curve" smooth="yes"/>
      <point x="241" y="495"/>
      <point x="261" y="469"/>
      <point x="261" y="397" type="curve" smooth="yes"/>
      <point x="261" y="352"/>
      <point x="261" y="275"/>
      <point x="261" y="223" type="curve" smooth="yes"/>
      <point x="261" y="113"/>
      <point x="259" y="46"/>
      <point x="257" y="0" type="curve"/>
    </contour>
  </outline>
</glyph>
<glyph name="i" format="2">
  <advance width="178"/>
  <unicode hex="0069"/>
  <anchor x="88" y="0" name="bottom"/>
  <anchor x="105" y="8" name="ogonek"/>
  <outline>
    <contour>
      <point x="106" y="0" type="line"/>
      <point x="106" y="0"/>
      <point x="104" y="122"/>
      <point x="104" y="265" type="curve"/>
      <point x="104" y="409"/>
      <point x="108" y="516"/>
      <point x="108" y="516" type="curve"/>
      <point x="75" y="516" type="line"/>
      <point x="75" y="516"/>
      <point x="76" y="412"/>
      <point x="76" y="266" type="curve"/>
      <point x="76" y="121"/>
      <point x="72" y="2"/>
      <point x="72" y="2" type="curve"/>
    </contour>
    <contour>
      <point x="109" y="595" type="line"/>
      <point x="109" y="665" type="line"/>
      <point x="71" y="663" type="line"/>
      <point x="74" y="593" type="line"/>
    </contour>
  </outline>
</glyph>
<glyph name="j" format="2">
  <advance width="192"/>
  <unicode hex="006A"/>
  <outline>
    <contour>
      <point x="15" y="-156" type="line"/>
      <point x="85" y="-155"/>
      <point x="110" y="-104"/>
      <point x="110" y="-42" type="curve" smooth="yes"/>
      <point x="110" y="-7"/>
      <point x="111" y="122"/>
      <point x="111" y="265" type="curve"/>
      <point x="111" y="409"/>
      <point x="115" y="516"/>
      <point x="115" y="516" type="curve"/>
      <point x="82" y="516" type="line"/>
      <point x="82" y="516"/>
      <point x="83" y="412"/>
      <point x="83" y="266" type="curve"/>
      <point x="83" y="122"/>
      <point x="79" y="-1"/>
      <point x="79" y="-42" type="curve" smooth="yes"/>
      <point x="79" y="-94"/>
      <point x="64" y="-130"/>
      <point x="15" y="-130" type="curve"/>
    </contour>
    <contour>
      <point x="81" y="593" type="line"/>
      <point x="116" y="596" type="line"/>
      <point x="116" y="665" type="line"/>
      <point x="78" y="663" type="line"/>
    </contour>
  </outline>
</glyph>
<glyph name="k" format="2">
  <advance width="332"/>
  <unicode hex="006B"/>
  <anchor x="172" y="0" name="bottom"/>
  <outline>
    <contour>
      <point x="274" y="0" type="curve"/>
      <point x="312" y="3" type="line"/>
      <point x="235" y="103"/>
      <point x="180" y="179"/>
      <point x="116" y="270" type="curve"/>
      <point x="182" y="366"/>
      <point x="231" y="438"/>
      <point x="288" y="519" type="curve"/>
      <point x="253" y="521" type="line"/>
      <point x="206" y="445"/>
      <point x="165" y="383"/>
      <point x="84" y="269" type="curve"/>
      <point x="152" y="177"/>
      <point x="215" y="88"/>
    </contour>
    <contour>
      <point x="60" y="0" type="curve"/>
      <point x="91" y="0" type="line"/>
      <point x="91" y="0"/>
      <point x="91" y="141"/>
      <point x="91" y="284" type="curve"/>
      <point x="91" y="428"/>
      <point x="93" y="694"/>
      <point x="93" y="694" type="curve"/>
      <point x="60" y="694" type="line"/>
      <point x="60" y="694"/>
      <point x="63" y="431"/>
      <point x="63" y="285" type="curve"/>
      <point x="63" y="140"/>
      <point x="60" y="0"/>
    </contour>
  </outline>
</glyph>
<glyph name="l" format="2">
  <advance width="176"/>
  <unicode hex="006C"/>
  <anchor x="89" y="0" name="bottom"/>
  <anchor x="90" y="359" name="center"/>
  <anchor x="92" y="693" name="top"/>
  <anchor x="174" y="473" name="topright"/>
  <outline>
    <contour>
      <point x="73" y="0" type="curve"/>
      <point x="104" y="6" type="line"/>
      <point x="104" y="64"/>
      <point x="104" y="180"/>
      <point x="104" y="284" type="curve"/>
      <point x="104" y="389"/>
      <point x="105" y="580"/>
      <point x="106" y="694" type="curve"/>
      <point x="73" y="694" type="line"/>
      <point x="74" y="581"/>
      <point x="76" y="392"/>
      <point x="76" y="285" type="curve"/>
      <point x="76" y="179"/>
      <point x="74" y="60"/>
    </contour>
  </outline>
</glyph>
<glyph name="m" format="2">
  <advance width="515"/>
  <unicode hex="006D"/>
  <outline>
    <contour>
      <point x="246" y="0" type="curve"/>
      <point x="280" y="0" type="line"/>
      <point x="280" y="51"/>
      <point x="278" y="166"/>
      <point x="278" y="279" type="curve" smooth="yes"/>
      <point x="278" y="399"/>
      <point x="294" y="520"/>
      <point x="197" y="520" type="curve" smooth="yes"/>
      <point x="110" y="520"/>
      <point x="71" y="414"/>
      <point x="71" y="255" type="curve"/>
      <point x="90" y="279" type="line"/>
      <point x="90" y="390"/>
      <point x="130" y="495"/>
      <point x="194" y="495" type="curve" smooth="yes"/>
      <point x="230" y="495"/>
      <point x="250" y="474"/>
      <point x="250" y="402" type="curve" smooth="yes"/>
      <point x="250" y="357"/>
      <point x="250" y="275"/>
      <point x="250" y="223" type="curve" smooth="yes"/>
      <point x="250" y="113"/>
      <point x="248" y="46"/>
    </contour>
    <contour>
      <point x="59" y="0" type="curve"/>
      <point x="90" y="0" type="line"/>
      <point x="89" y="50"/>
      <point x="90" y="146"/>
      <point x="90" y="279" type="curve"/>
      <point x="89" y="408"/>
      <point x="91" y="483"/>
      <point x="93" y="519" type="curve"/>
      <point x="59" y="516" type="line"/>
      <point x="60" y="484"/>
      <point x="61" y="381"/>
      <point x="62" y="265" type="curve" smooth="yes"/>
      <point x="63" y="132"/>
      <point x="60" y="51"/>
    </contour>
    <contour>
      <point x="468" y="0" type="line"/>
      <point x="468" y="51"/>
      <point x="466" y="111"/>
      <point x="466" y="224" type="curve" smooth="yes"/>
      <point x="466" y="297"/>
      <point x="466" y="349"/>
      <point x="466" y="397" type="curve" smooth="yes"/>
      <point x="466" y="478"/>
      <point x="441" y="520"/>
      <point x="385" y="520" type="curve" smooth="yes"/>
      <point x="298" y="520"/>
      <point x="259" y="414"/>
      <point x="259" y="255" type="curve"/>
      <point x="278" y="279" type="line"/>
      <point x="278" y="390"/>
      <point x="318" y="495"/>
      <point x="382" y="495" type="curve" smooth="yes"/>
      <point x="418" y="495"/>
      <point x="438" y="469"/>
      <point x="438" y="397" type="curve" smooth="yes"/>
      <point x="438" y="352"/>
      <point x="438" y="275"/>
      <point x="438" y="223" type="curve" smooth="yes"/>
      <point x="438" y="113"/>
      <point x="436" y="47"/>
      <point x="434" y="1" type="curve"/>
    </contour>
  </outline>
</glyph>
<glyph name="n" format="2">
  <advance width="354"/>
  <unicode hex="006E"/>
  <anchor x="179" y="0" name="bottom"/>
  <anchor x="186" y="515" name="top"/>
  <anchor x="121" y="515" name="topright"/>
  <outline>
    <contour>
      <point x="297" y="-1" type="line"/>
      <point x="297" y="50"/>
      <point x="295" y="111"/>
      <point x="295" y="224" type="curve" smooth="yes"/>
      <point x="295" y="297"/>
      <point x="295" y="349"/>
      <point x="295" y="397" type="curve" smooth="yes"/>
      <point x="295" y="478"/>
      <point x="270" y="520"/>
      <point x="209" y="520" type="curve" smooth="yes"/>
      <point x="122" y="520"/>
      <point x="78" y="414"/>
      <point x="78" y="255" type="curve"/>
      <point x="97" y="279" type="line"/>
      <point x="97" y="390"/>
      <point x="142" y="495"/>
      <point x="206" y="495" type="curve" smooth="yes"/>
      <point x="247" y="495"/>
      <point x="267" y="469"/>
      <point x="267" y="397" type="curve" smooth="yes"/>
      <point x="267" y="352"/>
      <point x="267" y="275"/>
      <point x="267" y="223" type="curve" smooth="yes"/>
      <point x="267" y="113"/>
      <point x="265" y="46"/>
      <point x="263" y="0" type="curve"/>
    </contour>
    <contour>
      <point x="66" y="0" type="curve"/>
      <point x="97" y="0" type="line"/>
      <point x="96" y="50"/>
      <point x="97" y="146"/>
      <point x="97" y="279" type="curve"/>
      <point x="96" y="408"/>
      <point x="98" y="483"/>
      <point x="100" y="519" type="curve"/>
      <point x="66" y="516" type="line"/>
      <point x="67" y="484"/>
      <point x="68" y="381"/>
      <point x="69" y="265" type="curve" smooth="yes"/>
      <point x="70" y="132"/>
      <point x="67" y="51"/>
    </contour>
  </outline>
</glyph>
<glyph name="p" format="2">
  <advance width="348"/>
  <unicode hex="0070"/>
  <outline>
    <contour>
      <point x="61" y="-149" type="curve"/>
      <point x="94" y="-147" type="line"/>
      <point x="92" y="48" type="line"/>
      <point x="112" y="10"/>
      <point x="141" y="-8"/>
      <point x="182" y="-8" type="curve" smooth="yes"/>
      <point x="241" y="-8"/>
      <point x="269" y="29"/>
      <point x="284" y="84" type="curve" smooth="yes"/>
      <point x="297" y="131"/>
      <point x="298" y="192"/>
      <point x="300" y="255" type="curve" smooth="yes"/>
      <point x="302" y="309"/>
      <point x="299" y="367"/>
      <point x="291" y="414" type="curve" smooth="yes"/>
      <point x="281" y="472"/>
      <point x="253" y="514"/>
      <point x="197" y="514" type="curve" smooth="yes"/>
      <point x="143" y="514"/>
      <point x="112" y="486"/>
      <point x="92" y="443" type="curve"/>
      <point x="92" y="519" type="line"/>
      <point x="61" y="515" type="line"/>
      <point x="62" y="472"/>
      <point x="63" y="323"/>
      <point x="63" y="188" type="curve" smooth="yes"/>
      <point x="63" y="64"/>
      <point x="61" y="-149"/>
    </contour>
    <contour>
      <point x="91" y="190" type="curve" smooth="yes"/>
      <point x="91" y="310" type="line" smooth="yes"/>
      <point x="91" y="433"/>
      <point x="130" y="485"/>
      <point x="194" y="485" type="curve" smooth="yes"/>
      <point x="235" y="485"/>
      <point x="256" y="453"/>
      <point x="265" y="404" type="curve" smooth="yes"/>
      <point x="273" y="362"/>
      <point x="272" y="307"/>
      <point x="272" y="253" type="curve" smooth="yes"/>
      <point x="272" y="196"/>
      <point x="269" y="138"/>
      <point x="258" y="94" type="curve" smooth="yes"/>
      <point x="247" y="50"/>
      <point x="228" y="21"/>
      <point x="184" y="21" type="curve" smooth="yes"/>
      <point x="111" y="21"/>
      <point x="91" y="91"/>
    </contour>
  </outline>
</glyph>
<glyph name="q" format="2">
  <advance width="347"/>
  <unicode hex="0071"/>
  <outline>
    <contour>
      <point x="46" y="251" type="curve" smooth="yes"/>
      <point x="47" y="196"/>
      <point x="50" y="142"/>
      <point x="59" y="97" type="curve" smooth="yes"/>
      <point x="71" y="35"/>
      <point x="99" y="-8"/>
      <point x="152" y="-8" type="curve" smooth="yes"/>
      <point x="205" y="-8"/>
      <point x="235" y="17"/>
      <point x="256" y="59" type="curve"/>
      <point x="255" y="-146" type="line"/>
      <point x="287" y="-147" type="line"/>
      <point x="285" y="-44"/>
      <point x="284" y="76"/>
      <point x="284" y="198" type="curve" smooth="yes"/>
      <point x="284" y="321"/>
      <point x="286" y="527"/>
      <point x="286" y="527" type="curve"/>
      <point x="255" y="525" type="line"/>
      <point x="255" y="448" type="line"/>
      <point x="236" y="504"/>
      <point x="200" y="525"/>
      <point x="158" y="525" type="curve" smooth="yes"/>
      <point x="103" y="525"/>
      <point x="74" y="486"/>
      <point x="60" y="430" type="curve" smooth="yes"/>
      <point x="47" y="379"/>
      <point x="45" y="314"/>
    </contour>
    <contour>
      <point x="75" y="256" type="curve" smooth="yes"/>
      <point x="73" y="315"/>
      <point x="74" y="376"/>
      <point x="85" y="421" type="curve" smooth="yes"/>
      <point x="96" y="466"/>
      <point x="118" y="496"/>
      <point x="157" y="496" type="curve" smooth="yes"/>
      <point x="203" y="496"/>
      <point x="230" y="458"/>
      <point x="242" y="407" type="curve" smooth="yes"/>
      <point x="253" y="362"/>
      <point x="256" y="308"/>
      <point x="256" y="261" type="curve" smooth="yes"/>
      <point x="256" y="207"/>
      <point x="256" y="154"/>
      <point x="247" y="111" type="curve" smooth="yes"/>
      <point x="236" y="57"/>
      <point x="212" y="21"/>
      <point x="157" y="21" type="curve" smooth="yes"/>
      <point x="114" y="21"/>
      <point x="95" y="59"/>
      <point x="85" y="117" type="curve" smooth="yes"/>
      <point x="78" y="156"/>
      <point x="77" y="205"/>
    </contour>
  </outline>
</glyph>
<glyph name="r" format="2">
  <advance width="293"/>
  <unicode hex="0072"/>
  <anchor x="75" y="0" name="bottom"/>
  <anchor x="172" y="515" name="top"/>
  <outline>
    <contour>
      <point x="240" y="230" type="curve"/>
      <point x="268" y="231" type="line"/>
      <point x="275" y="290"/>
      <point x="281" y="346"/>
      <point x="281" y="393" type="curve" smooth="yes"/>
      <point x="281" y="475"/>
      <point x="262" y="530"/>
      <point x="198" y="530" type="curve"/>
      <point x="87" y="530"/>
      <point x="69" y="346"/>
      <point x="69" y="248" type="curve"/>
      <point x="90" y="285" type="line"/>
      <point x="90" y="406"/>
      <point x="139" y="505"/>
      <point x="194" y="505" type="curve"/>
      <point x="240" y="505"/>
      <point x="253" y="463"/>
      <point x="253" y="398" type="curve" smooth="yes"/>
      <point x="253" y="351"/>
      <point x="246" y="293"/>
    </contour>
    <contour>
      <point x="59" y="-3" type="curve"/>
      <point x="91" y="0" type="line"/>
      <point x="91" y="0"/>
      <point x="90" y="100"/>
      <point x="90" y="243" type="curve"/>
      <point x="90" y="379"/>
      <point x="93" y="491"/>
      <point x="94" y="520" type="curve"/>
      <point x="60" y="517" type="line"/>
      <point x="62" y="435"/>
      <point x="62" y="386"/>
      <point x="62" y="244" type="curve"/>
      <point x="62" y="99"/>
      <point x="59" y="-3"/>
    </contour>
  </outline>
</glyph>
<glyph name="s" format="2">
  <advance width="300"/>
  <unicode hex="0073"/>
  <anchor x="158" y="0" name="bottom"/>
  <anchor x="152" y="515" name="top"/>
  <outline>
    <contour>
      <point x="150" y="-10" type="curve"/>
      <point x="215" y="-10"/>
      <point x="270" y="34"/>
      <point x="270" y="113" type="curve"/>
      <point x="270" y="197"/>
      <point x="196" y="226"/>
      <point x="137" y="265" type="curve" smooth="yes"/>
      <point x="97" y="291"/>
      <point x="63" y="322"/>
      <point x="63" y="377" type="curve"/>
      <point x="63" y="478"/>
      <point x="108" y="504"/>
      <point x="159" y="504" type="curve"/>
      <point x="221" y="504"/>
      <point x="241" y="445"/>
      <point x="241" y="373" type="curve" smooth="yes"/>
      <point x="241" y="350"/>
      <point x="239" y="325"/>
      <point x="235" y="300" type="curve"/>
      <point x="265" y="300" type="line"/>
      <point x="268" y="325"/>
      <point x="270" y="350"/>
      <point x="270" y="375" type="curve" smooth="yes"/>
      <point x="270" y="458"/>
      <point x="247" y="532"/>
      <point x="156" y="532" type="curve"/>
      <point x="93" y="532"/>
      <point x="34" y="486"/>
      <point x="34" y="384" type="curve"/>
      <point x="34" y="309"/>
      <point x="76" y="272"/>
      <point x="123" y="242" type="curve" smooth="yes"/>
      <point x="179" y="206"/>
      <point x="242" y="180"/>
      <point x="242" y="107" type="curve"/>
      <point x="242" y="53"/>
      <point x="203" y="15"/>
      <point x="150" y="15" type="curve"/>
      <point x="83" y="15"/>
      <point x="63" y="58"/>
      <point x="63" y="121" type="curve" smooth="yes"/>
      <point x="63" y="133"/>
      <point x="64" y="145"/>
      <point x="66" y="157" type="curve"/>
      <point x="37" y="157" type="line"/>
      <point x="36" y="143"/>
      <point x="35" y="130"/>
      <point x="35" y="117" type="curve" smooth="yes"/>
      <point x="35" y="48"/>
      <point x="56" y="-10"/>
    </contour>
  </outline>
</glyph>
<glyph name="t" format="2">
  <advance width="311"/>
  <unicode hex="0074"/>
  <anchor x="154" y="0" name="bottom"/>
  <anchor x="136" y="395" name="center"/>
  <anchor x="194" y="515" name="topright"/>
  <outline>
    <contour>
      <point x="164" y="-11" type="curve"/>
      <point x="255" y="-11"/>
      <point x="279" y="72"/>
      <point x="279" y="184" type="curve" smooth="yes"/>
      <point x="279" y="220"/>
      <point x="276" y="239"/>
      <point x="273" y="279" type="curve"/>
      <point x="245" y="279" type="line"/>
      <point x="249" y="242"/>
      <point x="252" y="221"/>
      <point x="252" y="184" type="curve" smooth="yes"/>
      <point x="252" y="93"/>
      <point x="234" y="15"/>
      <point x="167" y="15" type="curve"/>
      <point x="97" y="15"/>
      <point x="80" y="64"/>
      <point x="80" y="159" type="curve" smooth="yes"/>
      <point x="80" y="171"/>
      <point x="83" y="239"/>
      <point x="87" y="320" type="curve" smooth="yes"/>
      <point x="92" y="429"/>
      <point x="99" y="559"/>
      <point x="103" y="608" type="curve"/>
      <point x="68" y="607" type="line"/>
      <point x="69" y="581"/>
      <point x="64" y="442"/>
      <point x="59" y="324" type="curve" smooth="yes"/>
      <point x="56" y="242"/>
      <point x="53" y="169"/>
      <point x="53" y="151" type="curve" smooth="yes"/>
      <point x="53" y="50"/>
      <point x="70" y="-11"/>
    </contour>
    <contour>
      <point x="23" y="484" type="line"/>
      <point x="23" y="484"/>
      <point x="90" y="487"/>
      <point x="150" y="488" type="curve"/>
      <point x="163" y="488"/>
      <point x="234" y="488"/>
      <point x="267" y="488" type="curve"/>
      <point x="269" y="515" type="line"/>
      <point x="269" y="515"/>
      <point x="185" y="513"/>
      <point x="136" y="512" type="curve"/>
      <point x="78" y="512"/>
      <point x="25" y="513"/>
      <point x="25" y="513" type="curve"/>
    </contour>
  </outline>
</glyph>
<glyph name="v" format="2">
  <advance width="310"/>
  <unicode hex="0076"/>
  <outline>
    <contour>
      <point x="19" y="521" type="line"/>
      <point x="42" y="426"/>
      <point x="62" y="337"/>
      <point x="81" y="257" type="curve" smooth="yes"/>
      <point x="103" y="158"/>
      <point x="124" y="71"/>
      <point x="141" y="-1" type="curve"/>
      <point x="176" y="-1" type="line"/>
      <point x="196" y="86"/>
      <point x="220" y="179"/>
      <point x="241" y="268" type="curve" smooth="yes"/>
      <point x="263" y="363"/>
      <point x="284" y="452"/>
      <point x="297" y="519" type="curve"/>
      <point x="264" y="516" type="line"/>
      <point x="248" y="433"/>
      <point x="229" y="349"/>
      <point x="212" y="269" type="curve" smooth="yes"/>
      <point x="194" y="186"/>
      <point x="175" y="114"/>
      <point x="158" y="44" type="curve"/>
      <point x="143" y="107"/>
      <point x="128" y="181"/>
      <point x="109" y="266" type="curve" smooth="yes"/>
      <point x="90" y="353"/>
      <point x="70" y="444"/>
      <point x="55" y="521" type="curve"/>
    </contour>
  </outline>
</glyph>
<glyph name="w" format="2">
  <advance width="487"/>
  <unicode hex="0077"/>
  <anchor x="246" y="515" name="top"/>
  <outline>
    <contour>
      <point x="113" y="-1" type="curve"/>
      <point x="156" y="1" type="line"/>
      <point x="178" y="106"/>
      <point x="196" y="182"/>
      <point x="216" y="270" type="curve" smooth="yes"/>
      <point x="225" y="308"/>
      <point x="236" y="357"/>
      <point x="246" y="403" type="curve"/>
      <point x="255" y="361"/>
      <point x="265" y="308"/>
      <point x="276" y="260" type="curve" smooth="yes"/>
      <point x="292" y="182"/>
      <point x="313" y="96"/>
      <point x="334" y="0" type="curve"/>
      <point x="378" y="-1" type="line"/>
      <point x="394" y="92"/>
      <point x="412" y="183"/>
      <point x="427" y="269" type="curve" smooth="yes"/>
      <point x="443" y="359"/>
      <point x="457" y="443"/>
      <point x="471" y="516" type="curve"/>
      <point x="439" y="516" type="line"/>
      <point x="424" y="425"/>
      <point x="411" y="347"/>
      <point x="399" y="273" type="curve" smooth="yes"/>
      <point x="386" y="193"/>
      <point x="370" y="114"/>
      <point x="355" y="33" type="curve"/>
      <point x="333" y="131"/>
      <point x="317" y="202"/>
      <point x="303" y="269" type="curve" smooth="yes"/>
      <point x="290" y="329"/>
      <point x="278" y="389"/>
      <point x="263" y="469" type="curve"/>
      <point x="229" y="469" type="line"/>
      <point x="216" y="403"/>
      <point x="203" y="340"/>
      <point x="190" y="279" type="curve" smooth="yes"/>
      <point x="172" y="195"/>
      <point x="154" y="106"/>
      <point x="135" y="28" type="curve"/>
      <point x="117" y="116"/>
      <point x="100" y="203"/>
      <point x="89" y="282" type="curve" smooth="yes"/>
      <point x="79" y="356"/>
      <point x="66" y="431"/>
      <point x="54" y="515" type="curve"/>
      <point x="19" y="515" type="line"/>
      <point x="35" y="433"/>
      <point x="49" y="352"/>
      <point x="63" y="271" type="curve" smooth="yes"/>
      <point x="79" y="180"/>
      <point x="97" y="90"/>
    </contour>
  </outline>
</glyph>
<glyph name="x" format="2">
  <advance width="286"/>
  <unicode hex="0078"/>
  <outline>
    <contour>
      <point x="39" y="-4" type="line"/>
      <point x="73" y="86"/>
      <point x="94" y="135"/>
      <point x="150" y="261" type="curve" smooth="yes"/>
      <point x="205" y="384"/>
      <point x="237" y="446"/>
      <point x="273" y="518" type="curve"/>
      <point x="237" y="518" type="line"/>
      <point x="208" y="448"/>
      <point x="187" y="404"/>
      <point x="131" y="279" type="curve" smooth="yes"/>
      <point x="72" y="147"/>
      <point x="45" y="86"/>
      <point x="5" y="-2" type="curve"/>
    </contour>
    <contour>
      <point x="246" y="-2" type="curve"/>
      <point x="282" y="1" type="line"/>
      <point x="250" y="68"/>
      <point x="214" y="142"/>
      <point x="155" y="279" type="curve" smooth="yes"/>
      <point x="102" y="402"/>
      <point x="76" y="454"/>
      <point x="51" y="518" type="curve"/>
      <point x="17" y="515" type="line"/>
      <point x="60" y="425"/>
      <point x="81" y="383"/>
      <point x="135" y="261" type="curve" smooth="yes"/>
      <point x="194" y="128"/>
      <point x="223" y="60"/>
    </contour>
  </outline>
</glyph>
<glyph name="y" format="2">
  <advance width="311"/>
  <unicode hex="0079"/>
  <anchor x="236" y="20" name="bottom"/>
  <anchor x="152" y="515" name="top"/>
  <outline>
    <contour>
      <point x="144" y="-149" type="line"/>
      <point x="183" y="31"/>
      <point x="208" y="149"/>
      <point x="237" y="270" type="curve" smooth="yes"/>
      <point x="255" y="347"/>
      <point x="275" y="424"/>
      <point x="298" y="519" type="curve"/>
      <point x="264" y="519" type="line"/>
      <point x="247" y="438"/>
      <point x="230" y="361"/>
      <point x="212" y="279" type="curve" smooth="yes"/>
      <point x="185" y="160"/>
      <point x="154" y="29"/>
      <point x="113" y="-146" type="curve"/>
    </contour>
    <contour>
      <point x="146" y="-1" type="curve"/>
      <point x="172" y="0" type="line"/>
      <point x="146" y="98"/>
      <point x="124" y="181"/>
      <point x="104" y="264" type="curve" smooth="yes"/>
      <point x="84" y="344"/>
      <point x="64" y="423"/>
      <point x="43" y="514" type="curve"/>
      <point x="10" y="510" type="line"/>
      <point x="36" y="418"/>
      <point x="56" y="339"/>
      <point x="80" y="252" type="curve" smooth="yes"/>
      <point x="100" y="177"/>
      <point x="121" y="97"/>
    </contour>
  </outline>
</glyph>
<glyph name="z" format="2">
  <advance width="267"/>
  <unicode hex="007A"/>
  <anchor x="129" y="515" name="top"/>
  <outline>
    <contour>
      <point x="50" y="10" type="line"/>
      <point x="71" y="69"/>
      <point x="102" y="147"/>
      <point x="142" y="245" type="curve" smooth="yes"/>
      <point x="183" y="345"/>
      <point x="212" y="424"/>
      <point x="238" y="481" type="curve"/>
      <point x="213" y="497" type="line"/>
      <point x="194" y="445"/>
      <point x="162" y="368"/>
      <point x="120" y="261" type="curve" smooth="yes"/>
      <point x="87" y="178"/>
      <point x="58" y="107"/>
      <point x="25" y="27" type="curve"/>
    </contour>
    <contour>
      <point x="26" y="-3" type="line"/>
      <point x="26" y="-3"/>
      <point x="85" y="0"/>
      <point x="135" y="0" type="curve"/>
      <point x="185" y="-1"/>
      <point x="247" y="0"/>
      <point x="247" y="0" type="curve"/>
      <point x="247" y="29" type="line"/>
      <point x="247" y="29"/>
      <point x="198" y="26"/>
      <point x="150" y="26" type="curve" smooth="yes"/>
      <point x="101" y="26"/>
      <point x="25" y="27"/>
      <point x="25" y="27" type="curve"/>
    </contour>
    <contour>
      <point x="34" y="481" type="line"/>
      <point x="34" y="481"/>
      <point x="77" y="483"/>
      <point x="126" y="483" type="curve"/>
      <point x="174" y="483"/>
      <point x="238" y="481"/>
      <point x="238" y="481" type="curve"/>
      <point x="235" y="514" type="line"/>
      <point x="235" y="514"/>
      <point x="192" y="512"/>
      <point x="142" y="512" type="curve"/>
      <point x="92" y="511"/>
      <point x="34" y="512"/>
      <point x="34" y="512" type="curve"/>
    </contour>
  </outline>
</glyph>
<glyph name="braceleft" format="2">
  <advance width="407"/>
  <unicode hex="007B"/>
  <outline>
    <contour>
      <point x="260" y="-129" type="curve" smooth="yes"/>
      <point x="279" y="-129"/>
      <point x="299" y="-124"/>
      <point x="318" y="-113" type="curve"/>
      <point x="313" y="-94" type="line"/>
      <point x="297" y="-102"/>
      <point x="280" y="-106"/>
      <point x="265" y="-106" type="curve" smooth="yes"/>
      <point x="219" y="-106"/>
      <point x="196" y="-89"/>
      <point x="196" y="-30" type="curve" smooth="yes"/>
      <point x="196" y="12"/>
      <point x="217" y="153"/>
      <point x="217" y="187" type="curve" smooth="yes"/>
      <point x="217" y="227"/>
      <point x="191" y="260"/>
      <point x="129" y="274" type="curve"/>
      <point x="193" y="293"/>
      <point x="215" y="326"/>
      <point x="215" y="364" type="curve" smooth="yes"/>
      <point x="215" y="405"/>
      <point x="184" y="555"/>
      <point x="184" y="604" type="curve" smooth="yes"/>
      <point x="184" y="651"/>
      <point x="203" y="677"/>
      <point x="243" y="677" type="curve" smooth="yes"/>
      <point x="258" y="677"/>
      <point x="275" y="673"/>
      <point x="296" y="666" type="curve"/>
      <point x="303" y="687" type="line"/>
      <point x="285" y="698"/>
      <point x="263" y="702"/>
      <point x="244" y="702" type="curve" smooth="yes"/>
      <point x="186" y="702"/>
      <point x="156" y="668"/>
      <point x="156" y="596" type="curve" smooth="yes"/>
      <point x="156" y="549"/>
      <point x="188" y="423"/>
      <point x="188" y="374" type="curve" smooth="yes"/>
      <point x="188" y="328"/>
      <point x="158" y="298"/>
      <point x="95" y="288" type="curve"/>
      <point x="98" y="257" type="line"/>
      <point x="160" y="250"/>
      <point x="188" y="219"/>
      <point x="188" y="171" type="curve" smooth="yes"/>
      <point x="188" y="123"/>
      <point x="166" y="24"/>
      <point x="166" y="-23" type="curve" smooth="yes"/>
      <point x="166" y="-94"/>
      <point x="198" y="-129"/>
    </contour>
  </outline>
</glyph>
<glyph name="bar" format="2">
  <advance width="239"/>
  <unicode hex="007C"/>
  <outline>
    <contour>
      <point x="140" y="-136" type="line"/>
      <point x="138" y="-77"/>
      <point x="132" y="142"/>
      <point x="132" y="289" type="curve" smooth="yes"/>
      <point x="132" y="436"/>
      <point x="137" y="639"/>
      <point x="139" y="694" type="curve"/>
      <point x="101" y="693" type="line"/>
      <point x="102" y="639"/>
      <point x="102" y="433"/>
      <point x="102" y="288" type="curve" smooth="yes"/>
      <point x="102" y="142"/>
      <point x="101" y="-78"/>
      <point x="100" y="-134" type="curve"/>
    </contour>
  </outline>
</glyph>
<glyph name="braceright" format="2">
  <advance width="407"/>
  <unicode hex="007D"/>
  <outline>
    <contour>
      <point x="163" y="-129" type="curve" smooth="yes"/>
      <point x="221" y="-129"/>
      <point x="251" y="-95"/>
      <point x="251" y="-23" type="curve" smooth="yes"/>
      <point x="251" y="24"/>
      <point x="219" y="150"/>
      <point x="219" y="199" type="curve" smooth="yes"/>
      <point x="219" y="245"/>
      <point x="249" y="275"/>
      <point x="312" y="285" type="curve"/>
      <point x="309" y="316" type="line"/>
      <point x="247" y="323"/>
      <point x="219" y="354"/>
      <point x="219" y="402" type="curve" smooth="yes"/>
      <point x="219" y="450"/>
      <point x="241" y="549"/>
      <point x="241" y="596" type="curve" smooth="yes"/>
      <point x="241" y="667"/>
      <point x="209" y="702"/>
      <point x="147" y="702" type="curve" smooth="yes"/>
      <point x="128" y="702"/>
      <point x="108" y="697"/>
      <point x="89" y="686" type="curve"/>
      <point x="94" y="667" type="line"/>
      <point x="110" y="675"/>
      <point x="127" y="679"/>
      <point x="142" y="679" type="curve" smooth="yes"/>
      <point x="188" y="679"/>
      <point x="211" y="662"/>
      <point x="211" y="603" type="curve" smooth="yes"/>
      <point x="211" y="561"/>
      <point x="190" y="420"/>
      <point x="190" y="386" type="curve" smooth="yes"/>
      <point x="190" y="346"/>
      <point x="216" y="313"/>
      <point x="278" y="299" type="curve"/>
      <point x="214" y="280"/>
      <point x="192" y="247"/>
      <point x="192" y="209" type="curve" smooth="yes"/>
      <point x="192" y="168"/>
      <point x="223" y="18"/>
      <point x="223" y="-31" type="curve" smooth="yes"/>
      <point x="223" y="-78"/>
      <point x="204" y="-104"/>
      <point x="164" y="-104" type="curve" smooth="yes"/>
      <point x="149" y="-104"/>
      <point x="132" y="-100"/>
      <point x="111" y="-93" type="curve"/>
      <point x="104" y="-114" type="line"/>
      <point x="122" y="-125"/>
      <point x="144" y="-129"/>
    </contour>
  </outline>
</glyph>
<glyph name="exclamdown" format="2">
  <advance width="257"/>
  <unicode hex="00A1"/>
  <outline>
    <contour>
      <point x="103" y="-151" type="curve"/>
      <point x="155" y="-148" type="line"/>
      <point x="154" y="-102"/>
      <point x="149" y="44"/>
      <point x="147" y="134" type="curve" smooth="yes"/>
      <point x="145" y="211"/>
      <point x="144" y="313"/>
      <point x="143" y="341" type="curve"/>
      <point x="115" y="341" type="line"/>
      <point x="114" y="307"/>
      <point x="113" y="190"/>
      <point x="112" y="132" type="curve" smooth="yes"/>
      <point x="111" y="70"/>
      <point x="105" y="-98"/>
    </contour>
    <contour>
      <point x="110" y="456" type="line"/>
      <point x="147" y="458" type="line"/>
      <point x="150" y="555" type="line"/>
      <point x="105" y="551" type="line"/>
    </contour>
  </outline>
</glyph>
<glyph name="cent" format="2">
  <advance width="384"/>
  <unicode hex="00A2"/>
  <outline>
    <contour>
      <point x="187" y="28" type="curve" smooth="yes"/>
      <point x="256" y="28"/>
      <point x="298" y="70"/>
      <point x="298" y="137" type="curve" smooth="yes"/>
      <point x="298" y="147"/>
      <point x="298" y="156"/>
      <point x="298" y="164" type="curve"/>
      <point x="270" y="159" type="line"/>
      <point x="270" y="148"/>
      <point x="270" y="137"/>
      <point x="270" y="126" type="curve"/>
      <point x="267" y="81"/>
      <point x="238" y="53"/>
      <point x="193" y="53" type="curve" smooth="yes"/>
      <point x="144" y="53"/>
      <point x="121" y="81"/>
      <point x="115" y="150" type="curve" smooth="yes"/>
      <point x="110" y="211"/>
      <point x="109" y="316"/>
      <point x="115" y="390" type="curve" smooth="yes"/>
      <point x="121" y="468"/>
      <point x="140" y="494"/>
      <point x="198" y="494" type="curve" smooth="yes"/>
      <point x="248" y="494"/>
      <point x="268" y="466"/>
      <point x="268" y="398" type="curve" smooth="yes"/>
      <point x="268" y="384"/>
      <point x="267" y="366"/>
      <point x="267" y="346" type="curve"/>
      <point x="295" y="346" type="line"/>
      <point x="295" y="364"/>
      <point x="296" y="385"/>
      <point x="296" y="411" type="curve" smooth="yes"/>
      <point x="296" y="482"/>
      <point x="263" y="522"/>
      <point x="206" y="522" type="curve" smooth="yes"/>
      <point x="125" y="522"/>
      <point x="93" y="490"/>
      <point x="86" y="402" type="curve" smooth="yes"/>
      <point x="77" y="292"/>
      <point x="83" y="205"/>
      <point x="90" y="127" type="curve" smooth="yes"/>
      <point x="96" y="61"/>
      <point x="129" y="28"/>
    </contour>
    <contour>
      <point x="202" y="-30" type="line"/>
      <point x="200" y="20"/>
      <point x="200" y="186"/>
      <point x="200" y="311" type="curve" smooth="yes"/>
      <point x="200" y="433"/>
      <point x="203" y="551"/>
      <point x="206" y="591" type="curve"/>
      <point x="179" y="592" type="line"/>
      <point x="179" y="562"/>
      <point x="177" y="483"/>
      <point x="177" y="322" type="curve" smooth="yes"/>
      <point x="177" y="142"/>
      <point x="176" y="12"/>
      <point x="175" y="-29" type="curve"/>
    </contour>
  </outline>
</glyph>
<glyph name="sterling" format="2">
  <advance width="415"/>
  <unicode hex="00A3"/>
  <outline>
    <contour>
      <point x="130" y="23" type="line"/>
      <point x="174" y="47"/>
      <point x="184" y="102"/>
      <point x="184" y="155" type="curve" smooth="yes"/>
      <point x="184" y="309"/>
      <point x="126" y="432"/>
      <point x="126" y="531" type="curve" smooth="yes"/>
      <point x="126" y="632"/>
      <point x="154" y="677"/>
      <point x="219" y="677" type="curve" smooth="yes"/>
      <point x="271" y="677"/>
      <point x="295" y="636"/>
      <point x="295" y="555" type="curve" smooth="yes"/>
      <point x="295" y="521"/>
      <point x="293" y="497"/>
      <point x="288" y="472" type="curve"/>
      <point x="319" y="473" type="line"/>
      <point x="324" y="498"/>
      <point x="327" y="530"/>
      <point x="327" y="564" type="curve" smooth="yes"/>
      <point x="327" y="659"/>
      <point x="290" y="706"/>
      <point x="214" y="706" type="curve" smooth="yes"/>
      <point x="135" y="706"/>
      <point x="95" y="649"/>
      <point x="95" y="534" type="curve" smooth="yes"/>
      <point x="95" y="423"/>
      <point x="155" y="300"/>
      <point x="155" y="133" type="curve" smooth="yes"/>
      <point x="155" y="75"/>
      <point x="130" y="29"/>
      <point x="84" y="29" type="curve"/>
    </contour>
    <contour>
      <point x="91" y="-3" type="line"/>
      <point x="114" y="-2"/>
      <point x="169" y="0"/>
      <point x="214" y="0" type="curve" smooth="yes"/>
      <point x="256" y="0"/>
      <point x="308" y="0"/>
      <point x="331" y="-1" type="curve"/>
      <point x="335" y="31" type="line"/>
      <point x="309" y="29"/>
      <point x="257" y="26"/>
      <point x="213" y="27" type="curve" smooth="yes"/>
      <point x="167" y="28"/>
      <point x="111" y="28"/>
      <point x="84" y="29" type="curve"/>
    </contour>
    <contour>
      <point x="73" y="277" type="line"/>
      <point x="73" y="277"/>
      <point x="122" y="284"/>
      <point x="189" y="284" type="curve" smooth="yes"/>
      <point x="263" y="284"/>
      <point x="271" y="281"/>
      <point x="271" y="281" type="curve"/>
      <point x="277" y="316" type="line"/>
      <point x="277" y="316"/>
      <point x="242" y="312"/>
      <point x="177" y="310" type="curve" smooth="yes"/>
      <point x="116" y="308"/>
      <point x="78" y="310"/>
      <point x="78" y="310" type="curve"/>
    </contour>
  </outline>
</glyph>
<glyph name="currency" format="2">
  <advance width="600"/>
  <unicode hex="00A4"/>
  <outline>
    <contour>
      <point x="291" y="40" type="curve" smooth="yes"/>
      <point x="441" y="40"/>
      <point x="503" y="155"/>
      <point x="503" y="304" type="curve" smooth="yes"/>
      <point x="503" y="426"/>
      <point x="432" y="517"/>
      <point x="308" y="517" type="curve" smooth="yes"/>
      <point x="167" y="517"/>
      <point x="103" y="409"/>
      <point x="103" y="260" type="curve" smooth="yes"/>
      <point x="103" y="133"/>
      <point x="160" y="40"/>
    </contour>
    <contour>
      <point x="98" y="18" type="line"/>
      <point x="169" y="103" type="line"/>
      <point x="146" y="125" type="line"/>
      <point x="70" y="44" type="line"/>
    </contour>
    <contour>
      <point x="146" y="431" type="line"/>
      <point x="169" y="453" type="line"/>
      <point x="98" y="538" type="line"/>
      <point x="70" y="512" type="line"/>
    </contour>
    <contour>
      <point x="295" y="72" type="curve" smooth="yes"/>
      <point x="180" y="72"/>
      <point x="138" y="155"/>
      <point x="138" y="277" type="curve" smooth="yes"/>
      <point x="138" y="376"/>
      <point x="183" y="483"/>
      <point x="305" y="483" type="curve" smooth="yes"/>
      <point x="411" y="483"/>
      <point x="465" y="412"/>
      <point x="465" y="285" type="curve" smooth="yes"/>
      <point x="465" y="174"/>
      <point x="414" y="72"/>
    </contour>
    <contour>
      <point x="501" y="13" type="line"/>
      <point x="529" y="39" type="line"/>
      <point x="453" y="120" type="line"/>
      <point x="430" y="98" type="line"/>
    </contour>
    <contour>
      <point x="454" y="436" type="line"/>
      <point x="530" y="517" type="line"/>
      <point x="502" y="543" type="line"/>
      <point x="431" y="458" type="line"/>
    </contour>
  </outline>
</glyph>
<glyph name="yen" format="2">
  <advance width="437"/>
  <unicode hex="00A5"/>
  <outline>
    <contour>
      <point x="198" y="0" type="line"/>
      <point x="232" y="1" type="line"/>
      <point x="227" y="210" type="line"/>
      <point x="242" y="277"/>
      <point x="259" y="342"/>
      <point x="289" y="468" type="curve" smooth="yes"/>
      <point x="313" y="568"/>
      <point x="342" y="654"/>
      <point x="353" y="697" type="curve"/>
      <point x="314" y="695" type="line"/>
      <point x="307" y="654"/>
      <point x="282" y="555"/>
      <point x="263" y="465" type="curve" smooth="yes"/>
      <point x="239" y="351"/>
      <point x="226" y="303"/>
      <point x="215" y="254" type="curve"/>
      <point x="206" y="300"/>
      <point x="196" y="350"/>
      <point x="171" y="469" type="curve" smooth="yes"/>
      <point x="149" y="575"/>
      <point x="129" y="667"/>
      <point x="123" y="704" type="curve"/>
      <point x="83" y="704" type="line"/>
      <point x="93" y="661"/>
      <point x="121" y="571"/>
      <point x="143" y="468" type="curve" smooth="yes"/>
      <point x="165" y="368"/>
      <point x="188" y="264"/>
      <point x="198" y="214" type="curve"/>
    </contour>
    <contour>
      <point x="103" y="112" type="line"/>
      <point x="124" y="115"/>
      <point x="169" y="119"/>
      <point x="218" y="119" type="curve" smooth="yes"/>
      <point x="268" y="119"/>
      <point x="302" y="117"/>
      <point x="313" y="116" type="curve"/>
      <point x="319" y="151" type="line"/>
      <point x="298" y="149"/>
      <point x="253" y="146"/>
      <point x="206" y="145" type="curve" smooth="yes"/>
      <point x="161" y="144"/>
      <point x="126" y="144"/>
      <point x="112" y="145" type="curve"/>
    </contour>
    <contour>
      <point x="103" y="202" type="line"/>
      <point x="124" y="205"/>
      <point x="169" y="209"/>
      <point x="218" y="209" type="curve" smooth="yes"/>
      <point x="268" y="209"/>
      <point x="302" y="207"/>
      <point x="313" y="206" type="curve"/>
      <point x="319" y="241" type="line"/>
      <point x="298" y="239"/>
      <point x="253" y="236"/>
      <point x="206" y="235" type="curve" smooth="yes"/>
      <point x="161" y="234"/>
      <point x="126" y="234"/>
      <point x="112" y="235" type="curve"/>
    </contour>
  </outline>
</glyph>
<glyph name="brokenbar" format="2">
  <advance width="239"/>
  <unicode hex="00A6"/>
  <outline>
    <contour>
      <point x="101" y="352" type="curve"/>
      <point x="131" y="352" type="line"/>
      <point x="132" y="489"/>
      <point x="136" y="646"/>
      <point x="138" y="694" type="curve"/>
      <point x="100" y="693" type="line"/>
      <point x="101" y="647"/>
      <point x="101" y="488"/>
    </contour>
    <contour>
      <point x="99" y="-134" type="curve"/>
      <point x="139" y="-136" type="line"/>
      <point x="137" y="-90"/>
      <point x="133" y="55"/>
      <point x="132" y="187" type="curve"/>
      <point x="101" y="187" type="line"/>
      <point x="101" y="56"/>
      <point x="100" y="-90"/>
    </contour>
  </outline>
</glyph>
<glyph name="section" format="2">
  <advance width="347"/>
  <unicode hex="00A7"/>
  <outline>
    <contour>
      <point x="179" y="701" type="curve" smooth="yes"/>
      <point x="123" y="701"/>
      <point x="80" y="652"/>
      <point x="80" y="577" type="curve" smooth="yes"/>
      <point x="80" y="505"/>
      <point x="98" y="450"/>
      <point x="146" y="403" type="curve"/>
      <point x="209" y="347"/>
      <point x="239" y="318"/>
      <point x="239" y="271" type="curve" smooth="yes"/>
      <point x="239" y="232"/>
      <point x="219" y="206"/>
      <point x="187" y="200" type="curve"/>
      <point x="190" y="177" type="line"/>
      <point x="239" y="182"/>
      <point x="267" y="217"/>
      <point x="267" y="277" type="curve" smooth="yes"/>
      <point x="267" y="333"/>
      <point x="219" y="370"/>
      <point x="166" y="421" type="curve" smooth="yes"/>
      <point x="134" y="451"/>
      <point x="110" y="500"/>
      <point x="110" y="563" type="curve" smooth="yes"/>
      <point x="110" y="635"/>
      <point x="132" y="676"/>
      <point x="182" y="676" type="curve" smooth="yes"/>
      <point x="218" y="676"/>
      <point x="236" y="643"/>
      <point x="236" y="583" type="curve" smooth="yes"/>
      <point x="236" y="554"/>
      <point x="235" y="531"/>
      <point x="231" y="494" type="curve"/>
      <point x="262" y="494" type="line"/>
      <point x="265" y="524"/>
      <point x="266" y="540"/>
      <point x="266" y="590" type="curve" smooth="yes"/>
      <point x="266" y="663"/>
      <point x="239" y="701"/>
    </contour>
    <contour>
      <point x="168" y="-109" type="curve" smooth="yes"/>
      <point x="224" y="-109"/>
      <point x="267" y="-60"/>
      <point x="267" y="15" type="curve" smooth="yes"/>
      <point x="267" y="110"/>
      <point x="242" y="151"/>
      <point x="173" y="215" type="curve" smooth="yes"/>
      <point x="136" y="249"/>
      <point x="108" y="275"/>
      <point x="108" y="321" type="curve" smooth="yes"/>
      <point x="108" y="360"/>
      <point x="128" y="386"/>
      <point x="160" y="392" type="curve"/>
      <point x="157" y="415" type="line"/>
      <point x="108" y="410"/>
      <point x="80" y="375"/>
      <point x="80" y="315" type="curve" smooth="yes"/>
      <point x="80" y="261"/>
      <point x="122" y="224"/>
      <point x="156" y="194" type="curve" smooth="yes"/>
      <point x="209" y="147"/>
      <point x="237" y="104"/>
      <point x="237" y="29" type="curve" smooth="yes"/>
      <point x="237" y="-43"/>
      <point x="214" y="-84"/>
      <point x="165" y="-84" type="curve" smooth="yes"/>
      <point x="129" y="-84"/>
      <point x="111" y="-51"/>
      <point x="111" y="9" type="curve" smooth="yes"/>
      <point x="111" y="38"/>
      <point x="112" y="61"/>
      <point x="116" y="98" type="curve"/>
      <point x="85" y="98" type="line"/>
      <point x="82" y="68"/>
      <point x="81" y="52"/>
      <point x="81" y="2" type="curve" smooth="yes"/>
      <point x="81" y="-71"/>
      <point x="110" y="-109"/>
    </contour>
  </outline>
</glyph>
<glyph name="dieresis" format="2">
  <advance width="246"/>
  <unicode hex="00A8"/>
  <anchor x="123" y="555" name="_top"/>
  <outline>
    <contour>
      <point x="202" y="637" type="line"/>
      <point x="202" y="702" type="line"/>
      <point x="164" y="700" type="line"/>
      <point x="167" y="638" type="line"/>
    </contour>
    <contour>
      <point x="80" y="637" type="line"/>
      <point x="80" y="702" type="line"/>
      <point x="42" y="700" type="line"/>
      <point x="45" y="638" type="line"/>
    </contour>
  </outline>
</glyph>
<glyph name="ordfeminine" format="2">
  <advance width="347"/>
  <unicode hex="00AA"/>
  <outline>
    <contour>
      <point x="87" y="516" type="curve" smooth="yes"/>
      <point x="87" y="484"/>
      <point x="106" y="462"/>
      <point x="146" y="462" type="curve" smooth="yes"/>
      <point x="176" y="462"/>
      <point x="201" y="474"/>
      <point x="217" y="499" type="curve"/>
      <point x="218" y="485"/>
      <point x="224" y="473"/>
      <point x="233" y="464" type="curve"/>
      <point x="260" y="476" type="line"/>
      <point x="251" y="488"/>
      <point x="245" y="503"/>
      <point x="245" y="516" type="curve" smooth="yes"/>
      <point x="246" y="640" type="line" smooth="yes"/>
      <point x="246" y="681"/>
      <point x="220" y="703"/>
      <point x="174" y="703" type="curve" smooth="yes"/>
      <point x="129" y="703"/>
      <point x="100" y="680"/>
      <point x="96" y="638" type="curve"/>
      <point x="123" y="634" type="line"/>
      <point x="128" y="666"/>
      <point x="147" y="680"/>
      <point x="174" y="680" type="curve" smooth="yes"/>
      <point x="209" y="680"/>
      <point x="219" y="665"/>
      <point x="219" y="630" type="curve"/>
      <point x="216" y="611"/>
      <point x="168" y="592"/>
      <point x="149" y="583" type="curve" smooth="yes"/>
      <point x="112" y="566"/>
      <point x="87" y="552"/>
    </contour>
    <contour>
      <point x="115" y="514" type="curve" smooth="yes"/>
      <point x="115" y="543"/>
      <point x="138" y="553"/>
      <point x="173" y="570" type="curve" smooth="yes"/>
      <point x="193" y="580"/>
      <point x="208" y="588"/>
      <point x="218" y="598" type="curve"/>
      <point x="218" y="558" type="line" smooth="yes"/>
      <point x="215" y="511"/>
      <point x="189" y="484"/>
      <point x="149" y="484" type="curve" smooth="yes"/>
      <point x="127" y="484"/>
      <point x="115" y="497"/>
    </contour>
  </outline>
</glyph>
<glyph name="guillemetleft" format="2">
  <advance width="562"/>
  <unicode hex="00AB"/>
  <outline>
    <contour>
      <point x="85" y="266" type="line"/>
      <point x="103" y="282"/>
      <point x="144" y="316"/>
      <point x="180" y="346" type="curve" smooth="yes"/>
      <point x="218" y="377"/>
      <point x="262" y="408"/>
      <point x="277" y="418" type="curve"/>
      <point x="255" y="464" type="line"/>
      <point x="238" y="446"/>
      <point x="202" y="410"/>
      <point x="171" y="382" type="curve" smooth="yes"/>
      <point x="136" y="351"/>
      <point x="97" y="319"/>
      <point x="85" y="309" type="curve"/>
    </contour>
    <contour>
      <point x="255" y="111" type="curve"/>
      <point x="277" y="157" type="line"/>
      <point x="262" y="167"/>
      <point x="218" y="198"/>
      <point x="180" y="229" type="curve" smooth="yes"/>
      <point x="144" y="259"/>
      <point x="103" y="293"/>
      <point x="85" y="309" type="curve"/>
      <point x="85" y="266" type="line"/>
      <point x="97" y="256"/>
      <point x="136" y="224"/>
      <point x="171" y="193" type="curve" smooth="yes"/>
      <point x="202" y="165"/>
      <point x="238" y="129"/>
    </contour>
    <contour>
      <point x="285" y="266" type="line"/>
      <point x="303" y="282"/>
      <point x="344" y="316"/>
      <point x="380" y="346" type="curve" smooth="yes"/>
      <point x="418" y="377"/>
      <point x="462" y="408"/>
      <point x="477" y="418" type="curve"/>
      <point x="455" y="464" type="line"/>
      <point x="438" y="446"/>
      <point x="402" y="410"/>
      <point x="371" y="382" type="curve" smooth="yes"/>
      <point x="336" y="351"/>
      <point x="297" y="319"/>
      <point x="285" y="309" type="curve"/>
    </contour>
    <contour>
      <point x="455" y="111" type="curve"/>
      <point x="477" y="157" type="line"/>
      <point x="462" y="167"/>
      <point x="418" y="198"/>
      <point x="380" y="229" type="curve" smooth="yes"/>
      <point x="344" y="259"/>
      <point x="303" y="293"/>
      <point x="285" y="309" type="curve"/>
      <point x="285" y="266" type="line"/>
      <point x="297" y="256"/>
      <point x="336" y="224"/>
      <point x="371" y="193" type="curve" smooth="yes"/>
      <point x="402" y="165"/>
      <point x="438" y="129"/>
    </contour>
  </outline>
</glyph>
<glyph name="registered" format="2">
  <advance width="470"/>
  <unicode hex="00AE"/>
  <outline>
    <contour>
      <point x="227" y="238" type="curve" smooth="yes"/>
      <point x="340" y="238"/>
      <point x="406" y="323"/>
      <point x="406" y="462" type="curve" smooth="yes"/>
      <point x="406" y="607"/>
      <point x="344" y="693"/>
      <point x="236" y="693" type="curve" smooth="yes"/>
      <point x="129" y="693"/>
      <point x="63" y="604"/>
      <point x="63" y="464" type="curve" smooth="yes"/>
      <point x="63" y="320"/>
      <point x="121" y="238"/>
    </contour>
    <contour>
      <point x="231" y="267" type="curve" smooth="yes"/>
      <point x="142" y="267"/>
      <point x="91" y="339"/>
      <point x="91" y="464" type="curve" smooth="yes"/>
      <point x="91" y="590"/>
      <point x="144" y="664"/>
      <point x="233" y="664" type="curve" smooth="yes"/>
      <point x="325" y="664"/>
      <point x="378" y="590"/>
      <point x="378" y="463" type="curve" smooth="yes"/>
      <point x="378" y="339"/>
      <point x="323" y="267"/>
    </contour>
    <contour>
      <point x="267" y="330" type="curve"/>
      <point x="297" y="332" type="line"/>
      <point x="281" y="367"/>
      <point x="268" y="400"/>
      <point x="256" y="431" type="curve"/>
      <point x="277" y="445"/>
      <point x="286" y="472"/>
      <point x="286" y="516" type="curve" smooth="yes"/>
      <point x="286" y="584"/>
      <point x="269" y="610"/>
      <point x="229" y="610" type="curve" smooth="yes"/>
      <point x="210" y="610"/>
      <point x="195" y="609"/>
      <point x="189" y="609" type="curve"/>
      <point x="189" y="588"/>
      <point x="190" y="526"/>
      <point x="190" y="471" type="curve" smooth="yes"/>
      <point x="190" y="425"/>
      <point x="190" y="379"/>
      <point x="190" y="333" type="curve"/>
      <point x="216" y="333" type="line"/>
      <point x="214" y="371"/>
      <point x="214" y="396"/>
      <point x="213" y="419" type="curve"/>
      <point x="222" y="419"/>
      <point x="229" y="420"/>
      <point x="236" y="422" type="curve"/>
      <point x="248" y="391"/>
      <point x="258" y="361"/>
    </contour>
    <contour>
      <point x="213" y="442" type="curve"/>
      <point x="213" y="452"/>
      <point x="212" y="462"/>
      <point x="212" y="472" type="curve" smooth="yes"/>
      <point x="211" y="510"/>
      <point x="212" y="562"/>
      <point x="212" y="589" type="curve"/>
      <point x="217" y="589"/>
      <point x="222" y="590"/>
      <point x="227" y="590" type="curve" smooth="yes"/>
      <point x="253" y="592"/>
      <point x="262" y="567"/>
      <point x="262" y="514" type="curve" smooth="yes"/>
      <point x="262" y="451"/>
      <point x="246" y="443"/>
    </contour>
  </outline>
</glyph>
<glyph name="degree" format="2">
  <advance width="347"/>
  <unicode hex="00B0"/>
  <outline>
    <contour>
      <point x="175" y="501" type="curve" smooth="yes"/>
      <point x="238" y="501"/>
      <point x="282" y="546"/>
      <point x="282" y="609" type="curve" smooth="yes"/>
      <point x="282" y="664"/>
      <point x="238" y="703"/>
      <point x="172" y="703" type="curve"/>
      <point x="105" y="703"/>
      <point x="65" y="659"/>
      <point x="65" y="599" type="curve" smooth="yes"/>
      <point x="65" y="545"/>
      <point x="106" y="501"/>
    </contour>
    <contour>
      <point x="176" y="523" type="curve" smooth="yes"/>
      <point x="109" y="523"/>
      <point x="92" y="566"/>
      <point x="92" y="603" type="curve" smooth="yes"/>
      <point x="92" y="642"/>
      <point x="120" y="681"/>
      <point x="172" y="681" type="curve" smooth="yes"/>
      <point x="214" y="681"/>
      <point x="254" y="658"/>
      <point x="254" y="602" type="curve" smooth="yes"/>
      <point x="254" y="562"/>
      <point x="230" y="523"/>
    </contour>
  </outline>
</glyph>
<glyph name="plusminus" format="2">
  <advance width="395"/>
  <unicode hex="00B1"/>
  <outline>
    <contour>
      <point x="220" y="219" type="line"/>
      <point x="217" y="251"/>
      <point x="212" y="306"/>
      <point x="212" y="362" type="curve" smooth="yes"/>
      <point x="212" y="416"/>
      <point x="216" y="465"/>
      <point x="218" y="487" type="curve"/>
      <point x="174" y="484" type="line"/>
      <point x="175" y="459"/>
      <point x="178" y="412"/>
      <point x="178" y="361" type="curve" smooth="yes"/>
      <point x="178" y="308"/>
      <point x="177" y="246"/>
      <point x="175" y="217" type="curve"/>
    </contour>
    <contour>
      <point x="63" y="99" type="line"/>
      <point x="92" y="100"/>
      <point x="155" y="103"/>
      <point x="200" y="103" type="curve" smooth="yes"/>
      <point x="247" y="103"/>
      <point x="302" y="103"/>
      <point x="329" y="102" type="curve"/>
      <point x="331" y="141" type="line"/>
      <point x="302" y="140"/>
      <point x="241" y="138"/>
      <point x="192" y="136" type="curve" smooth="yes"/>
      <point x="144" y="134"/>
      <point x="88" y="137"/>
      <point x="60" y="138" type="curve"/>
    </contour>
    <contour>
      <point x="60" y="329" type="line"/>
      <point x="93" y="331"/>
      <point x="161" y="334"/>
      <point x="211" y="334" type="curve" smooth="yes"/>
      <point x="261" y="334"/>
      <point x="303" y="332"/>
      <point x="324" y="330" type="curve"/>
      <point x="334" y="371" type="line"/>
      <point x="305" y="369"/>
      <point x="255" y="368"/>
      <point x="210" y="367" type="curve" smooth="yes"/>
      <point x="161" y="366"/>
      <point x="94" y="367"/>
      <point x="64" y="368" type="curve"/>
    </contour>
  </outline>
</glyph>
<glyph name="twosuperior" format="2">
  <advance width="245"/>
  <unicode hex="00B2"/>
  <outline>
    <contour>
      <point x="80" y="576" type="line"/>
      <point x="129" y="612"/>
      <point x="178" y="685"/>
      <point x="178" y="746" type="curve" smooth="yes"/>
      <point x="178" y="780"/>
      <point x="162" y="804"/>
      <point x="126" y="805" type="curve" smooth="yes"/>
      <point x="89" y="806"/>
      <point x="66" y="782"/>
      <point x="66" y="748" type="curve" smooth="yes"/>
      <point x="66" y="738"/>
      <point x="67" y="728"/>
      <point x="68" y="720" type="curve"/>
      <point x="88" y="721" type="line"/>
      <point x="87" y="728"/>
      <point x="86" y="736"/>
      <point x="86" y="744" type="curve" smooth="yes"/>
      <point x="86" y="773"/>
      <point x="99" y="788"/>
      <point x="122" y="788" type="curve" smooth="yes"/>
      <point x="145" y="788"/>
      <point x="157" y="774"/>
      <point x="157" y="740" type="curve" smooth="yes"/>
      <point x="157" y="674"/>
      <point x="102" y="616"/>
      <point x="60" y="581" type="curve"/>
    </contour>
    <contour>
      <point x="59" y="563" type="line"/>
      <point x="75" y="564"/>
      <point x="106" y="565"/>
      <point x="121" y="565" type="curve" smooth="yes"/>
      <point x="136" y="565"/>
      <point x="166" y="565"/>
      <point x="182" y="565" type="curve"/>
      <point x="181" y="584" type="line"/>
      <point x="167" y="583"/>
      <point x="140" y="583"/>
      <point x="126" y="582" type="curve" smooth="yes"/>
      <point x="111" y="581"/>
      <point x="76" y="581"/>
      <point x="60" y="581" type="curve"/>
    </contour>
  </outline>
</glyph>
<glyph name="threesuperior" format="2">
  <advance width="245"/>
  <unicode hex="00B3"/>
  <outline>
    <contour>
      <point x="118" y="559" type="curve" smooth="yes"/>
      <point x="154" y="559"/>
      <point x="177" y="584"/>
      <point x="177" y="623" type="curve" smooth="yes"/>
      <point x="177" y="644"/>
      <point x="163" y="662"/>
      <point x="141" y="667" type="curve"/>
      <point x="163" y="676"/>
      <point x="181" y="702"/>
      <point x="181" y="742" type="curve" smooth="yes"/>
      <point x="181" y="779"/>
      <point x="164" y="806"/>
      <point x="125" y="806" type="curve" smooth="yes"/>
      <point x="86" y="806"/>
      <point x="66" y="776"/>
      <point x="66" y="743" type="curve" smooth="yes"/>
      <point x="66" y="738"/>
      <point x="66" y="733"/>
      <point x="67" y="728" type="curve"/>
      <point x="85" y="729" type="line"/>
      <point x="84" y="733"/>
      <point x="84" y="737"/>
      <point x="84" y="741" type="curve" smooth="yes"/>
      <point x="84" y="765"/>
      <point x="94" y="789"/>
      <point x="123" y="789" type="curve" smooth="yes"/>
      <point x="148" y="789"/>
      <point x="161" y="776"/>
      <point x="161" y="735" type="curve" smooth="yes"/>
      <point x="161" y="680"/>
      <point x="126" y="675"/>
      <point x="108" y="675" type="curve" smooth="yes"/>
      <point x="102" y="675"/>
      <point x="97" y="675"/>
      <point x="93" y="675" type="curve"/>
      <point x="93" y="659" type="line"/>
      <point x="99" y="659"/>
      <point x="107" y="659"/>
      <point x="110" y="659" type="curve" smooth="yes"/>
      <point x="127" y="659"/>
      <point x="157" y="653"/>
      <point x="157" y="622" type="curve" smooth="yes"/>
      <point x="157" y="589"/>
      <point x="142" y="575"/>
      <point x="119" y="575" type="curve" smooth="yes"/>
      <point x="97" y="575"/>
      <point x="84" y="586"/>
      <point x="81" y="606" type="curve"/>
      <point x="63" y="605" type="line"/>
      <point x="68" y="576"/>
      <point x="85" y="559"/>
    </contour>
  </outline>
</glyph>
<glyph name="paragraph" format="2">
  <advance width="501"/>
  <unicode hex="00B6"/>
  <outline>
    <contour>
      <point x="276" y="224" type="curve"/>
      <point x="313" y="710" type="line"/>
      <point x="286" y="711"/>
      <point x="257" y="712"/>
      <point x="226" y="712" type="curve" smooth="yes"/>
      <point x="131" y="712"/>
      <point x="93" y="645"/>
      <point x="93" y="457" type="curve" smooth="yes"/>
      <point x="93" y="291"/>
      <point x="153" y="228"/>
    </contour>
    <contour>
      <point x="272" y="-102" type="curve"/>
      <point x="314" y="-101" type="line"/>
      <point x="313" y="-44"/>
      <point x="310" y="207"/>
      <point x="310" y="357" type="curve" smooth="yes"/>
      <point x="310" y="499"/>
      <point x="312" y="664"/>
      <point x="313" y="710" type="curve"/>
      <point x="270" y="706" type="line"/>
      <point x="272" y="658"/>
      <point x="276" y="459"/>
      <point x="276" y="359" type="curve" smooth="yes"/>
      <point x="276" y="257"/>
      <point x="273" y="-37"/>
    </contour>
    <contour>
      <point x="359" y="-102" type="curve"/>
      <point x="401" y="-101" type="line"/>
      <point x="400" y="-44"/>
      <point x="397" y="207"/>
      <point x="397" y="357" type="curve" smooth="yes"/>
      <point x="397" y="499"/>
      <point x="399" y="661"/>
      <point x="400" y="707" type="curve"/>
      <point x="357" y="703" type="line"/>
      <point x="359" y="655"/>
      <point x="363" y="459"/>
      <point x="363" y="359" type="curve" smooth="yes"/>
      <point x="363" y="257"/>
      <point x="360" y="-37"/>
    </contour>
  </outline>
</glyph>
<glyph name="periodcentered" format="2">
  <advance width="250"/>
  <unicode hex="00B7"/>
  <outline>
    <contour>
      <point x="148" y="254" type="line"/>
      <point x="146" y="354" type="line"/>
      <point x="103" y="351" type="line"/>
      <point x="105" y="256" type="line"/>
    </contour>
  </outline>
</glyph>
<glyph name="onesuperior" format="2">
  <advance width="245"/>
  <unicode hex="00B9"/>
  <outline>
    <contour>
      <point x="128" y="567" type="curve"/>
      <point x="151" y="567" type="line"/>
      <point x="148" y="638"/>
      <point x="148" y="728"/>
      <point x="152" y="801" type="curve"/>
      <point x="141" y="801" type="line"/>
      <point x="130" y="773" type="line"/>
      <point x="130" y="717"/>
      <point x="130" y="619"/>
    </contour>
    <contour>
      <point x="71" y="745" type="line"/>
      <point x="89" y="746"/>
      <point x="113" y="751"/>
      <point x="131" y="757" type="curve"/>
      <point x="141" y="801" type="line"/>
      <point x="118" y="776"/>
      <point x="89" y="764"/>
      <point x="70" y="758" type="curve"/>
    </contour>
  </outline>
</glyph>
<glyph name="ordmasculine" format="2">
  <advance width="332"/>
  <unicode hex="00BA"/>
  <outline>
    <contour>
      <point x="164" y="469" type="curve" smooth="yes"/>
      <point x="222" y="469"/>
      <point x="248" y="504"/>
      <point x="248" y="590" type="curve" smooth="yes"/>
      <point x="248" y="672"/>
      <point x="224" y="703"/>
      <point x="169" y="703" type="curve" smooth="yes"/>
      <point x="113" y="703"/>
      <point x="84" y="668"/>
      <point x="84" y="590" type="curve" smooth="yes"/>
      <point x="84" y="505"/>
      <point x="110" y="469"/>
    </contour>
    <contour>
      <point x="164" y="497" type="curve" smooth="yes"/>
      <point x="130" y="497"/>
      <point x="112" y="526"/>
      <point x="112" y="589" type="curve" smooth="yes"/>
      <point x="112" y="653"/>
      <point x="130" y="678"/>
      <point x="168" y="678" type="curve" smooth="yes"/>
      <point x="204" y="678"/>
      <point x="220" y="654"/>
      <point x="220" y="593" type="curve" smooth="yes"/>
      <point x="220" y="542"/>
      <point x="214" y="497"/>
    </contour>
  </outline>
</glyph>
<glyph name="onequarter" format="2">
  <advance width="556"/>
  <unicode hex="00BC"/>
  <outline>
    <contour>
      <point x="97" y="-1" type="curve"/>
      <point x="126" y="0" type="line"/>
      <point x="164" y="87"/>
      <point x="232" y="239"/>
      <point x="277" y="340" type="curve" smooth="yes"/>
      <point x="324" y="445"/>
      <point x="394" y="604"/>
      <point x="434" y="695" type="curve"/>
      <point x="405" y="697" type="line"/>
      <point x="367" y="606"/>
      <point x="299" y="446"/>
      <point x="251" y="339" type="curve" smooth="yes"/>
      <point x="205" y="237"/>
      <point x="136" y="85"/>
    </contour>
    <contour>
      <point x="157" y="461" type="curve"/>
      <point x="185" y="461" type="line"/>
      <point x="182" y="532"/>
      <point x="182" y="622"/>
      <point x="186" y="695" type="curve"/>
      <point x="175" y="695" type="line"/>
      <point x="152" y="670"/>
      <point x="121" y="658"/>
      <point x="102" y="652" type="curve"/>
      <point x="103" y="639" type="line"/>
      <point x="121" y="640"/>
      <point x="141" y="645"/>
      <point x="159" y="651" type="curve"/>
      <point x="159" y="594"/>
      <point x="159" y="508"/>
    </contour>
    <contour>
      <point x="391" y="-1" type="line"/>
      <point x="416" y="0" type="line"/>
      <point x="415" y="59" type="line"/>
      <point x="449" y="59" type="line"/>
      <point x="449" y="81" type="line"/>
      <point x="415" y="80" type="line"/>
      <point x="415" y="134" type="line" smooth="yes"/>
      <point x="415" y="168"/>
      <point x="416" y="201"/>
      <point x="416" y="235" type="curve"/>
      <point x="390" y="236" type="line"/>
      <point x="375" y="211"/>
      <point x="360" y="187"/>
      <point x="345" y="162" type="curve" smooth="yes"/>
      <point x="294" y="79" type="line"/>
      <point x="299" y="58" type="line"/>
      <point x="392" y="59" type="line"/>
    </contour>
    <contour>
      <point x="319" y="79" type="line"/>
      <point x="391" y="201" type="line"/>
      <point x="392" y="79" type="line"/>
    </contour>
  </outline>
</glyph>
<glyph name="onehalf" format="2">
  <advance width="556"/>
  <unicode hex="00BD"/>
  <outline>
    <contour>
      <point x="104" y="-1" type="curve"/>
      <point x="133" y="0" type="line"/>
      <point x="171" y="87"/>
      <point x="239" y="239"/>
      <point x="284" y="340" type="curve" smooth="yes"/>
      <point x="331" y="445"/>
      <point x="401" y="604"/>
      <point x="441" y="695" type="curve"/>
      <point x="412" y="697" type="line"/>
      <point x="374" y="606"/>
      <point x="306" y="446"/>
      <point x="258" y="339" type="curve" smooth="yes"/>
      <point x="212" y="237"/>
      <point x="143" y="85"/>
    </contour>
    <contour>
      <point x="321" y="-1" type="line"/>
      <point x="337" y="0"/>
      <point x="368" y="1"/>
      <point x="383" y="1" type="curve" smooth="yes"/>
      <point x="444" y="1" type="line"/>
      <point x="443" y="20" type="line"/>
      <point x="436" y="19"/>
      <point x="367" y="17"/>
      <point x="349" y="17" type="curve"/>
      <point x="395" y="55"/>
      <point x="440" y="124"/>
      <point x="440" y="182" type="curve" smooth="yes"/>
      <point x="440" y="216"/>
      <point x="424" y="240"/>
      <point x="388" y="241" type="curve" smooth="yes"/>
      <point x="351" y="242"/>
      <point x="328" y="218"/>
      <point x="328" y="184" type="curve" smooth="yes"/>
      <point x="328" y="174"/>
      <point x="329" y="164"/>
      <point x="330" y="156" type="curve"/>
      <point x="350" y="157" type="line"/>
      <point x="349" y="164"/>
      <point x="348" y="172"/>
      <point x="348" y="180" type="curve" smooth="yes"/>
      <point x="348" y="209"/>
      <point x="361" y="224"/>
      <point x="384" y="224" type="curve" smooth="yes"/>
      <point x="407" y="224"/>
      <point x="419" y="210"/>
      <point x="419" y="176" type="curve" smooth="yes"/>
      <point x="419" y="110"/>
      <point x="364" y="52"/>
      <point x="322" y="17" type="curve"/>
    </contour>
    <contour>
      <point x="164" y="461" type="curve"/>
      <point x="192" y="461" type="line"/>
      <point x="189" y="532"/>
      <point x="189" y="622"/>
      <point x="193" y="695" type="curve"/>
      <point x="182" y="695" type="line"/>
      <point x="159" y="670"/>
      <point x="128" y="658"/>
      <point x="109" y="652" type="curve"/>
      <point x="110" y="639" type="line"/>
      <point x="128" y="640"/>
      <point x="148" y="645"/>
      <point x="166" y="651" type="curve"/>
      <point x="166" y="594"/>
      <point x="166" y="508"/>
    </contour>
  </outline>
</glyph>
<glyph name="threequarters" format="2">
  <advance width="556"/>
  <unicode hex="00BE"/>
  <outline>
    <contour>
      <point x="97" y="-1" type="curve"/>
      <point x="126" y="0" type="line"/>
      <point x="164" y="87"/>
      <point x="232" y="239"/>
      <point x="277" y="340" type="curve" smooth="yes"/>
      <point x="324" y="445"/>
      <point x="394" y="604"/>
      <point x="434" y="695" type="curve"/>
      <point x="405" y="697" type="line"/>
      <point x="367" y="606"/>
      <point x="299" y="446"/>
      <point x="251" y="339" type="curve" smooth="yes"/>
      <point x="205" y="237"/>
      <point x="136" y="85"/>
    </contour>
    <contour>
      <point x="158" y="454" type="curve" smooth="yes"/>
      <point x="194" y="454"/>
      <point x="217" y="479"/>
      <point x="217" y="518" type="curve" smooth="yes"/>
      <point x="217" y="539"/>
      <point x="203" y="557"/>
      <point x="181" y="562" type="curve"/>
      <point x="203" y="571"/>
      <point x="221" y="597"/>
      <point x="221" y="637" type="curve" smooth="yes"/>
      <point x="221" y="674"/>
      <point x="204" y="701"/>
      <point x="165" y="701" type="curve" smooth="yes"/>
      <point x="126" y="701"/>
      <point x="106" y="671"/>
      <point x="106" y="638" type="curve" smooth="yes"/>
      <point x="106" y="633"/>
      <point x="106" y="628"/>
      <point x="107" y="623" type="curve"/>
      <point x="125" y="624" type="line"/>
      <point x="124" y="628"/>
      <point x="124" y="632"/>
      <point x="124" y="636" type="curve" smooth="yes"/>
      <point x="124" y="660"/>
      <point x="134" y="684"/>
      <point x="163" y="684" type="curve" smooth="yes"/>
      <point x="188" y="684"/>
      <point x="201" y="671"/>
      <point x="201" y="630" type="curve" smooth="yes"/>
      <point x="201" y="575"/>
      <point x="166" y="570"/>
      <point x="148" y="570" type="curve" smooth="yes"/>
      <point x="142" y="570"/>
      <point x="137" y="570"/>
      <point x="133" y="570" type="curve"/>
      <point x="133" y="554" type="line"/>
      <point x="139" y="554"/>
      <point x="147" y="554"/>
      <point x="150" y="554" type="curve" smooth="yes"/>
      <point x="167" y="554"/>
      <point x="197" y="548"/>
      <point x="197" y="517" type="curve" smooth="yes"/>
      <point x="197" y="484"/>
      <point x="182" y="470"/>
      <point x="159" y="470" type="curve" smooth="yes"/>
      <point x="137" y="470"/>
      <point x="124" y="481"/>
      <point x="121" y="501" type="curve"/>
      <point x="103" y="500" type="line"/>
      <point x="108" y="471"/>
      <point x="125" y="454"/>
    </contour>
    <contour>
      <point x="391" y="-1" type="line"/>
      <point x="416" y="0" type="line"/>
      <point x="415" y="59" type="line"/>
      <point x="449" y="59" type="line"/>
      <point x="449" y="81" type="line"/>
      <point x="415" y="80" type="line"/>
      <point x="415" y="134" type="line" smooth="yes"/>
      <point x="415" y="168"/>
      <point x="416" y="201"/>
      <point x="416" y="235" type="curve"/>
      <point x="390" y="236" type="line"/>
      <point x="375" y="211"/>
      <point x="360" y="187"/>
      <point x="345" y="162" type="curve" smooth="yes"/>
      <point x="294" y="79" type="line"/>
      <point x="299" y="58" type="line"/>
      <point x="392" y="59" type="line"/>
    </contour>
    <contour>
      <point x="319" y="79" type="line"/>
      <point x="391" y="201" type="line"/>
      <point x="392" y="79" type="line"/>
    </contour>
  </outline>
</glyph>
<glyph name="questiondown" format="2">
  <advance width="415"/>
  <unicode hex="00BF"/>
  <outline>
    <contour>
      <point x="196" y="340" type="line"/>
      <point x="198" y="325"/>
      <point x="200" y="311"/>
      <point x="200" y="297" type="curve" smooth="yes"/>
      <point x="200" y="248"/>
      <point x="183" y="209"/>
      <point x="151" y="168" type="curve" smooth="yes"/>
      <point x="120" y="128"/>
      <point x="87" y="73"/>
      <point x="87" y="-32" type="curve" smooth="yes"/>
      <point x="87" y="-111"/>
      <point x="127" y="-159"/>
      <point x="198" y="-159" type="curve" smooth="yes"/>
      <point x="290" y="-159"/>
      <point x="319" y="-89"/>
      <point x="319" y="-2" type="curve" smooth="yes"/>
      <point x="319" y="25"/>
      <point x="315" y="54"/>
      <point x="310" y="83" type="curve"/>
      <point x="280" y="84" type="line"/>
      <point x="285" y="58"/>
      <point x="288" y="31"/>
      <point x="288" y="6" type="curve" smooth="yes"/>
      <point x="288" y="-68"/>
      <point x="273" y="-132"/>
      <point x="201" y="-132" type="curve" smooth="yes"/>
      <point x="147" y="-132"/>
      <point x="117" y="-98"/>
      <point x="117" y="-40" type="curve" smooth="yes"/>
      <point x="117" y="79"/>
      <point x="152" y="121"/>
      <point x="182" y="163" type="curve" smooth="yes"/>
      <point x="214" y="207"/>
      <point x="228" y="242"/>
      <point x="228" y="292" type="curve" smooth="yes"/>
      <point x="228" y="306"/>
      <point x="227" y="322"/>
      <point x="225" y="339" type="curve"/>
    </contour>
    <contour>
      <point x="225" y="558" type="line"/>
      <point x="180" y="554" type="line"/>
      <point x="184" y="464" type="line"/>
      <point x="221" y="462" type="line"/>
    </contour>
  </outline>
</glyph>
<glyph name="AE" format="2">
  <advance width="498"/>
  <unicode hex="00C6"/>
  <anchor x="338" y="693" name="top"/>
  <outline>
    <contour>
      <point x="15" y="1" type="curve"/>
      <point x="50" y="0" type="line"/>
      <point x="70" y="60"/>
      <point x="91" y="121"/>
      <point x="111" y="181" type="curve"/>
      <point x="278" y="185" type="line"/>
      <point x="275" y="-5" type="line"/>
      <point x="495" y="0" type="line"/>
      <point x="494" y="23" type="line"/>
      <point x="313" y="28" type="line"/>
      <point x="310" y="217" type="line"/>
      <point x="488" y="221" type="line"/>
      <point x="490" y="247" type="line"/>
      <point x="310" y="250" type="line"/>
      <point x="309" y="350" type="line" smooth="yes"/>
      <point x="309" y="443"/>
      <point x="311" y="605"/>
      <point x="312" y="664" type="curve"/>
      <point x="485" y="665" type="line"/>
      <point x="485" y="693" type="line"/>
      <point x="259" y="701" type="line"/>
      <point x="233" y="628"/>
      <point x="183" y="483"/>
      <point x="138" y="354" type="curve" smooth="yes"/>
      <point x="93" y="223"/>
      <point x="41" y="76"/>
    </contour>
    <contour>
      <point x="278" y="211" type="line"/>
      <point x="122" y="215" type="line"/>
      <point x="136" y="258"/>
      <point x="150" y="301"/>
      <point x="164" y="344" type="curve" smooth="yes"/>
      <point x="201" y="455"/>
      <point x="249" y="581"/>
      <point x="274" y="651" type="curve"/>
      <point x="276" y="587"/>
      <point x="279" y="468"/>
      <point x="279" y="352" type="curve" smooth="yes"/>
    </contour>
  </outline>
</glyph>
<glyph name="Eth" format="2">
  <advance width="385"/>
  <unicode hex="00D0"/>
  <outline>
    <contour>
      <point x="7" y="330" type="line"/>
      <point x="27" y="330"/>
      <point x="71" y="331"/>
      <point x="118" y="331" type="curve"/>
      <point x="149" y="331"/>
      <point x="203" y="330"/>
      <point x="235" y="330" type="curve"/>
      <point x="236" y="360" type="line"/>
      <point x="208" y="359"/>
      <point x="157" y="357"/>
      <point x="123" y="358" type="curve"/>
      <point x="73" y="359"/>
      <point x="28" y="360"/>
      <point x="8" y="360" type="curve"/>
    </contour>
    <component base="D"/>
  </outline>
</glyph>
<glyph name="multiply" format="2">
  <advance width="400"/>
  <unicode hex="00D7"/>
  <outline>
    <contour>
      <point x="316" y="197" type="line"/>
      <point x="298" y="214"/>
      <point x="245" y="267"/>
      <point x="218" y="294" type="curve" smooth="yes"/>
      <point x="174" y="338"/>
      <point x="133" y="378"/>
      <point x="108" y="407" type="curve"/>
      <point x="81" y="385" type="line"/>
      <point x="103" y="367"/>
      <point x="169" y="303"/>
      <point x="199" y="273" type="curve" smooth="yes"/>
      <point x="229" y="243"/>
      <point x="278" y="189"/>
      <point x="289" y="175" type="curve"/>
    </contour>
    <contour>
      <point x="111" y="171" type="line"/>
      <point x="131" y="195"/>
      <point x="182" y="253"/>
      <point x="218" y="289" type="curve" smooth="yes"/>
      <point x="254" y="325"/>
      <point x="298" y="364"/>
      <point x="315" y="378" type="curve"/>
      <point x="290" y="408" type="line"/>
      <point x="272" y="389"/>
      <point x="229" y="343"/>
      <point x="196" y="309" type="curve" smooth="yes"/>
      <point x="163" y="275"/>
      <point x="106" y="221"/>
      <point x="85" y="202" type="curve"/>
    </contour>
  </outline>
</glyph>
<glyph name="Oslash" format="2">
  <advance width="393"/>
  <unicode hex="00D8"/>
  <anchor x="197" y="0" name="bottom"/>
  <anchor x="197" y="693" name="top"/>
  <outline>
    <contour>
      <point x="191" y="-2" type="curve" smooth="yes"/>
      <point x="258" y="-2"/>
      <point x="295" y="38"/>
      <point x="315" y="103" type="curve" smooth="yes"/>
      <point x="335" y="169"/>
      <point x="339" y="259"/>
      <point x="339" y="359" type="curve" smooth="yes"/>
      <point x="339" y="438"/>
      <point x="341" y="516"/>
      <point x="330" y="578" type="curve" smooth="yes"/>
      <point x="317" y="656"/>
      <point x="286" y="709"/>
      <point x="209" y="709" type="curve" smooth="yes"/>
      <point x="128" y="709"/>
      <point x="89" y="660"/>
      <point x="71" y="586" type="curve" smooth="yes"/>
      <point x="55" y="524"/>
      <point x="54" y="443"/>
      <point x="54" y="360" type="curve" smooth="yes"/>
      <point x="54" y="259"/>
      <point x="54" y="168"/>
      <point x="71" y="102" type="curve" smooth="yes"/>
      <point x="88" y="38"/>
      <point x="123" y="-2"/>
    </contour>
    <contour>
      <point x="194" y="28" type="curve" smooth="yes"/>
      <point x="138" y="28"/>
      <point x="111" y="62"/>
      <point x="98" y="121" type="curve" smooth="yes"/>
      <point x="86" y="177"/>
      <point x="87" y="255"/>
      <point x="87" y="349" type="curve" smooth="yes"/>
      <point x="87" y="432"/>
      <point x="87" y="512"/>
      <point x="99" y="573" type="curve" smooth="yes"/>
      <point x="112" y="639"/>
      <point x="141" y="682"/>
      <point x="202" y="682" type="curve" smooth="yes"/>
      <point x="271" y="682"/>
      <point x="294" y="637"/>
      <point x="301" y="559" type="curve" smooth="yes"/>
      <point x="306" y="507"/>
      <point x="304" y="441"/>
      <point x="304" y="364" type="curve" smooth="yes"/>
      <point x="304" y="266"/>
      <point x="303" y="180"/>
      <point x="288" y="119" type="curve" smooth="yes"/>
      <point x="274" y="62"/>
      <point x="247" y="28"/>
    </contour>
    <contour>
      <point x="112" y="-35" type="line"/>
      <point x="112" y="-35"/>
      <point x="172" y="192"/>
      <point x="206" y="314" type="curve" smooth="yes"/>
      <point x="241" y="436"/>
      <point x="325" y="705"/>
      <point x="325" y="705" type="curve"/>
      <point x="296" y="722" type="line"/>
      <point x="296" y="722"/>
      <point x="236" y="511"/>
      <point x="185" y="332" type="curve" smooth="yes"/>
      <point x="135" y="153"/>
      <point x="84" y="-21"/>
      <point x="84" y="-21" type="curve"/>
    </contour>
  </outline>
</glyph>
<glyph name="Thorn" format="2">
  <advance width="346"/>
  <unicode hex="00DE"/>
  <outline>
    <contour>
      <point x="100" y="150" type="line"/>
      <point x="257" y="150"/>
      <point x="316" y="206"/>
      <point x="316" y="372" type="curve" smooth="yes"/>
      <point x="316" y="533"/>
      <point x="277" y="583"/>
      <point x="180" y="583" type="curve" smooth="yes"/>
      <point x="154" y="583"/>
      <point x="113" y="582"/>
      <point x="92" y="580" type="curve"/>
      <point x="92" y="545" type="line"/>
      <point x="111" y="549"/>
      <point x="149" y="551"/>
      <point x="187" y="551" type="curve" smooth="yes"/>
      <point x="261" y="551"/>
      <point x="281" y="480"/>
      <point x="281" y="369" type="curve" smooth="yes"/>
      <point x="281" y="233"/>
      <point x="245" y="182"/>
      <point x="96" y="182" type="curve"/>
    </contour>
    <contour>
      <point x="69" y="-5" type="curve"/>
      <point x="107" y="1" type="line"/>
      <point x="105" y="101"/>
      <point x="102" y="265"/>
      <point x="103" y="350" type="curve" smooth="yes"/>
      <point x="104" y="443"/>
      <point x="105" y="621"/>
      <point x="106" y="698" type="curve"/>
      <point x="66" y="694" type="line"/>
      <point x="69" y="620"/>
      <point x="73" y="477"/>
      <point x="73" y="352" type="curve"/>
      <point x="73" y="227"/>
      <point x="71" y="75"/>
    </contour>
  </outline>
</glyph>
<glyph name="germandbls" format="2">
  <advance width="424"/>
  <unicode hex="00DF"/>
  <outline>
    <contour>
      <point x="86" y="-1" type="curve"/>
      <point x="119" y="0" type="line"/>
      <point x="117" y="40"/>
      <point x="116" y="159"/>
      <point x="116" y="271" type="curve" smooth="yes"/>
      <point x="116" y="388"/>
      <point x="117" y="492"/>
      <point x="120" y="563" type="curve" smooth="yes"/>
      <point x="123" y="633"/>
      <point x="149" y="673"/>
      <point x="222" y="673" type="curve" smooth="yes"/>
      <point x="282" y="673"/>
      <point x="304" y="633"/>
      <point x="304" y="574" type="curve" smooth="yes"/>
      <point x="304" y="486"/>
      <point x="218" y="441"/>
      <point x="218" y="374" type="curve" smooth="yes"/>
      <point x="218" y="324"/>
      <point x="241" y="298"/>
      <point x="292" y="245" type="curve" smooth="yes"/>
      <point x="327" y="208"/>
      <point x="349" y="187"/>
      <point x="349" y="127" type="curve" smooth="yes"/>
      <point x="349" y="60"/>
      <point x="302" y="31"/>
      <point x="227" y="26" type="curve"/>
      <point x="225" y="0" type="line"/>
      <point x="321" y="5"/>
      <point x="380" y="47"/>
      <point x="380" y="129" type="curve" smooth="yes"/>
      <point x="380" y="192"/>
      <point x="352" y="222"/>
      <point x="315" y="259" type="curve" smooth="yes"/>
      <point x="273" y="301"/>
      <point x="248" y="324"/>
      <point x="248" y="374" type="curve" smooth="yes"/>
      <point x="248" y="441"/>
      <point x="333" y="478"/>
      <point x="333" y="581" type="curve" smooth="yes"/>
      <point x="333" y="645"/>
      <point x="294" y="700"/>
      <point x="221" y="700" type="curve" smooth="yes"/>
      <point x="131" y="700"/>
      <point x="93" y="635"/>
      <point x="91" y="555" type="curve" smooth="yes"/>
      <point x="90" y="515"/>
      <point x="89" y="348"/>
      <point x="89" y="270" type="curve" smooth="yes"/>
      <point x="89" y="157"/>
      <point x="88" y="39"/>
    </contour>
  </outline>
</glyph>
<glyph name="ae" format="2">
  <advance width="489"/>
  <unicode hex="00E6"/>
  <anchor x="240" y="515" name="top"/>
  <outline>
    <contour>
      <point x="112" y="-10" type="curve" smooth="yes"/>
      <point x="174" y="-10"/>
      <point x="210" y="35"/>
      <point x="229" y="98" type="curve"/>
      <point x="245" y="27"/>
      <point x="274" y="-10"/>
      <point x="340" y="-10" type="curve" smooth="yes"/>
      <point x="428" y="-10"/>
      <point x="462" y="46"/>
      <point x="462" y="117" type="curve" smooth="yes"/>
      <point x="462" y="133"/>
      <point x="460" y="150"/>
      <point x="457" y="167" type="curve"/>
      <point x="425" y="167" type="line"/>
      <point x="430" y="153"/>
      <point x="433" y="135"/>
      <point x="433" y="116" type="curve" smooth="yes"/>
      <point x="433" y="69"/>
      <point x="412" y="18"/>
      <point x="345" y="18" type="curve" smooth="yes"/>
      <point x="292" y="18"/>
      <point x="268" y="52"/>
      <point x="257" y="103" type="curve" smooth="yes"/>
      <point x="250" y="135"/>
      <point x="248" y="171"/>
      <point x="248" y="253" type="curve"/>
      <point x="309" y="256"/>
      <point x="398" y="256"/>
      <point x="449" y="256" type="curve"/>
      <point x="453" y="287"/>
      <point x="457" y="325"/>
      <point x="457" y="362" type="curve" smooth="yes"/>
      <point x="457" y="445"/>
      <point x="437" y="526"/>
      <point x="351" y="526" type="curve" smooth="yes"/>
      <point x="293" y="526"/>
      <point x="260" y="498"/>
      <point x="242" y="454" type="curve"/>
      <point x="231" y="493"/>
      <point x="205" y="525"/>
      <point x="146" y="525" type="curve" smooth="yes"/>
      <point x="68" y="525"/>
      <point x="37" y="471"/>
      <point x="37" y="395" type="curve" smooth="yes"/>
      <point x="37" y="374"/>
      <point x="40" y="352"/>
      <point x="44" y="328" type="curve"/>
      <point x="72" y="331" type="line"/>
      <point x="68" y="353"/>
      <point x="66" y="375"/>
      <point x="66" y="396" type="curve" smooth="yes"/>
      <point x="66" y="451"/>
      <point x="83" y="498"/>
      <point x="141" y="498" type="curve" smooth="yes"/>
      <point x="210" y="498"/>
      <point x="220" y="457"/>
      <point x="219" y="367" type="curve" smooth="yes"/>
      <point x="218" y="315"/>
      <point x="173" y="286"/>
      <point x="126" y="252" type="curve" smooth="yes"/>
      <point x="77" y="216"/>
      <point x="26" y="174"/>
      <point x="26" y="92" type="curve" smooth="yes"/>
      <point x="26" y="27"/>
      <point x="61" y="-10"/>
    </contour>
    <contour>
      <point x="118" y="22" type="curve" smooth="yes"/>
      <point x="66" y="22"/>
      <point x="59" y="67"/>
      <point x="59" y="97" type="curve" smooth="yes"/>
      <point x="59" y="167"/>
      <point x="98" y="199"/>
      <point x="139" y="228" type="curve" smooth="yes"/>
      <point x="170" y="250"/>
      <point x="202" y="270"/>
      <point x="219" y="303" type="curve"/>
      <point x="219" y="275"/>
      <point x="218" y="247"/>
      <point x="218" y="219" type="curve" smooth="yes"/>
      <point x="217" y="118"/>
      <point x="183" y="22"/>
    </contour>
    <contour>
      <point x="248" y="282" type="line"/>
      <point x="249" y="327"/>
      <point x="250" y="378"/>
      <point x="261" y="419" type="curve" smooth="yes"/>
      <point x="273" y="466"/>
      <point x="298" y="500"/>
      <point x="350" y="500" type="curve" smooth="yes"/>
      <point x="412" y="500"/>
      <point x="428" y="432"/>
      <point x="428" y="360" type="curve" smooth="yes"/>
      <point x="428" y="334"/>
      <point x="426" y="308"/>
      <point x="423" y="284" type="curve"/>
    </contour>
  </outline>
</glyph>
<glyph name="eth" format="2">
  <advance width="370"/>
  <unicode hex="00F0"/>
  <outline>
    <contour>
      <point x="177" y="-10" type="curve" smooth="yes"/>
      <point x="284" y="-10"/>
      <point x="303" y="84"/>
      <point x="303" y="314" type="curve" smooth="yes"/>
      <point x="303" y="609"/>
      <point x="226" y="671"/>
      <point x="153" y="714" type="curve"/>
      <point x="138" y="687" type="line"/>
      <point x="219" y="648"/>
      <point x="273" y="537"/>
      <point x="273" y="363" type="curve" smooth="yes"/>
      <point x="273" y="314"/>
      <point x="273" y="231"/>
      <point x="273" y="226" type="curve" smooth="yes"/>
      <point x="273" y="96"/>
      <point x="255" y="16"/>
      <point x="178" y="16" type="curve" smooth="yes"/>
      <point x="104" y="16"/>
      <point x="85" y="78"/>
      <point x="85" y="204" type="curve" smooth="yes"/>
      <point x="85" y="307"/>
      <point x="106" y="387"/>
      <point x="174" y="387" type="curve" smooth="yes"/>
      <point x="244" y="387"/>
      <point x="273" y="328"/>
      <point x="273" y="249" type="curve"/>
      <point x="290" y="302" type="line"/>
      <point x="272" y="391"/>
      <point x="227" y="414"/>
      <point x="176" y="414" type="curve" smooth="yes"/>
      <point x="87" y="414"/>
      <point x="56" y="328"/>
      <point x="56" y="196" type="curve" smooth="yes"/>
      <point x="56" y="59"/>
      <point x="88" y="-10"/>
    </contour>
    <contour>
      <point x="167" y="525" type="line"/>
      <point x="183" y="535"/>
      <point x="212" y="554"/>
      <point x="247" y="573" type="curve" smooth="yes"/>
      <point x="273" y="587"/>
      <point x="313" y="610"/>
      <point x="336" y="623" type="curve"/>
      <point x="322" y="646" type="line"/>
      <point x="302" y="633"/>
      <point x="269" y="612"/>
      <point x="241" y="596" type="curve" smooth="yes"/>
      <point x="203" y="574"/>
      <point x="172" y="558"/>
      <point x="154" y="549" type="curve"/>
    </contour>
  </outline>
</glyph>
<glyph name="divide" format="2">
  <advance width="394"/>
  <unicode hex="00F7"/>
  <outline>
    <contour>
      <point x="71" y="273" type="line"/>
      <point x="91" y="274"/>
      <point x="162" y="275"/>
      <point x="193" y="275" type="curve" smooth="yes"/>
      <point x="224" y="275"/>
      <point x="300" y="274"/>
      <point x="323" y="273" type="curve"/>
      <point x="321" y="306" type="line"/>
      <point x="302" y="305"/>
      <point x="230" y="303"/>
      <point x="198" y="304" type="curve" smooth="yes"/>
      <point x="164" y="305"/>
      <point x="92" y="306"/>
      <point x="73" y="307" type="curve"/>
    </contour>
    <contour>
      <point x="199" y="135" type="curve" smooth="yes"/>
      <point x="219" y="135"/>
      <point x="234" y="150"/>
      <point x="234" y="170" type="curve" smooth="yes"/>
      <point x="234" y="192"/>
      <point x="215" y="209"/>
      <point x="190" y="209" type="curve" smooth="yes"/>
      <point x="169" y="209"/>
      <point x="156" y="196"/>
      <point x="156" y="176" type="curve" smooth="yes"/>
      <point x="156" y="153"/>
      <point x="175" y="135"/>
    </contour>
    <contour>
      <point x="199" y="380" type="curve" smooth="yes"/>
      <point x="219" y="380"/>
      <point x="234" y="395"/>
      <point x="234" y="415" type="curve" smooth="yes"/>
      <point x="234" y="437"/>
      <point x="215" y="454"/>
      <point x="190" y="454" type="curve" smooth="yes"/>
      <point x="169" y="454"/>
      <point x="156" y="441"/>
      <point x="156" y="421" type="curve" smooth="yes"/>
      <point x="156" y="398"/>
      <point x="175" y="380"/>
    </contour>
  </outline>
</glyph>
<glyph name="oslash" format="2">
  <advance width="333"/>
  <unicode hex="00F8"/>
  <anchor x="167" y="515" name="top"/>
  <outline>
    <contour>
      <point x="162" y="-10" type="curve"/>
      <point x="221" y="-10"/>
      <point x="252" y="27"/>
      <point x="268" y="82" type="curve" smooth="yes"/>
      <point x="283" y="132"/>
      <point x="286" y="197"/>
      <point x="286" y="262" type="curve"/>
      <point x="286" y="321"/>
      <point x="285" y="375"/>
      <point x="277" y="419" type="curve" smooth="yes"/>
      <point x="265" y="484"/>
      <point x="238" y="526"/>
      <point x="175" y="526" type="curve"/>
      <point x="116" y="526"/>
      <point x="83" y="486"/>
      <point x="65" y="429" type="curve" smooth="yes"/>
      <point x="50" y="382"/>
      <point x="46" y="322"/>
      <point x="46" y="263" type="curve"/>
      <point x="46" y="196"/>
      <point x="47" y="132"/>
      <point x="59" y="83" type="curve" smooth="yes"/>
      <point x="73" y="27"/>
      <point x="102" y="-10"/>
    </contour>
    <contour>
      <point x="164" y="17" type="curve"/>
      <point x="119" y="17"/>
      <point x="97" y="52"/>
      <point x="86" y="102" type="curve" smooth="yes"/>
      <point x="77" y="142"/>
      <point x="76" y="192"/>
      <point x="76" y="243" type="curve"/>
      <point x="76" y="306"/>
      <point x="78" y="376"/>
      <point x="95" y="427" type="curve" smooth="yes"/>
      <point x="109" y="470"/>
      <point x="133" y="500"/>
      <point x="176" y="500" type="curve"/>
      <point x="223" y="500"/>
      <point x="243" y="460"/>
      <point x="251" y="398" type="curve" smooth="yes"/>
      <point x="256" y="361"/>
      <point x="257" y="315"/>
      <point x="256" y="266" type="curve"/>
      <point x="256" y="205"/>
      <point x="254" y="145"/>
      <point x="243" y="100" type="curve" smooth="yes"/>
      <point x="230" y="50"/>
      <point x="207" y="17"/>
    </contour>
    <contour>
      <point x="95" y="-60" type="line"/>
      <point x="116" y="21"/>
      <point x="152" y="156"/>
      <point x="172" y="230" type="curve" smooth="yes"/>
      <point x="192" y="304"/>
      <point x="242" y="464"/>
      <point x="274" y="564" type="curve"/>
      <point x="245" y="579" type="line"/>
      <point x="223" y="500"/>
      <point x="183" y="356"/>
      <point x="152" y="247" type="curve" smooth="yes"/>
      <point x="121" y="138"/>
      <point x="85" y="16"/>
      <point x="66" y="-46" type="curve"/>
    </contour>
  </outline>
</glyph>
<glyph name="thorn" format="2">
  <advance width="358"/>
  <unicode hex="00FE"/>
  <outline>
    <contour>
      <point x="71" y="-149" type="curve"/>
      <point x="104" y="-147" type="line"/>
      <point x="102" y="48" type="line"/>
      <point x="122" y="10"/>
      <point x="151" y="-8"/>
      <point x="192" y="-8" type="curve" smooth="yes"/>
      <point x="251" y="-8"/>
      <point x="279" y="29"/>
      <point x="294" y="84" type="curve" smooth="yes"/>
      <point x="307" y="131"/>
      <point x="308" y="192"/>
      <point x="310" y="255" type="curve" smooth="yes"/>
      <point x="312" y="309"/>
      <point x="309" y="367"/>
      <point x="301" y="414" type="curve" smooth="yes"/>
      <point x="291" y="472"/>
      <point x="263" y="514"/>
      <point x="207" y="514" type="curve" smooth="yes"/>
      <point x="153" y="514"/>
      <point x="122" y="486"/>
      <point x="102" y="443" type="curve"/>
      <point x="102" y="525"/>
      <point x="102" y="608"/>
      <point x="102" y="690" type="curve"/>
      <point x="71" y="686" type="line"/>
      <point x="72" y="643"/>
      <point x="73" y="323"/>
      <point x="73" y="188" type="curve" smooth="yes"/>
      <point x="73" y="97"/>
      <point x="72" y="-57"/>
    </contour>
    <contour>
      <point x="101" y="190" type="curve" smooth="yes"/>
      <point x="101" y="310" type="line" smooth="yes"/>
      <point x="101" y="433"/>
      <point x="140" y="485"/>
      <point x="204" y="485" type="curve" smooth="yes"/>
      <point x="245" y="485"/>
      <point x="266" y="453"/>
      <point x="275" y="404" type="curve" smooth="yes"/>
      <point x="283" y="362"/>
      <point x="282" y="307"/>
      <point x="282" y="253" type="curve" smooth="yes"/>
      <point x="282" y="196"/>
      <point x="279" y="138"/>
      <point x="268" y="94" type="curve" smooth="yes"/>
      <point x="257" y="50"/>
      <point x="238" y="21"/>
      <point x="194" y="21" type="curve" smooth="yes"/>
      <point x="121" y="21"/>
      <point x="101" y="91"/>
    </contour>
  </outline>
</glyph>
<glyph name="Hbar" format="2">
  <advance width="412"/>
  <unicode hex="0126"/>
  <anchor x="206" y="459" name="_center"/>
  <outline>
    <contour>
      <point x="27" y="443" type="line"/>
      <point x="27" y="443"/>
      <point x="139" y="444"/>
      <point x="204" y="444" type="curve"/>
      <point x="247" y="444"/>
      <point x="388" y="443"/>
      <point x="388" y="443" type="curve"/>
      <point x="388" y="469" type="line"/>
      <point x="388" y="469"/>
      <point x="256" y="466"/>
      <point x="209" y="467" type="curve"/>
      <point x="141" y="468"/>
      <point x="28" y="469"/>
      <point x="28" y="469" type="curve"/>
    </contour>
    <component base="H"/>
  </outline>
</glyph>
<glyph name="idotless" format="2">
  <advance width="178"/>
  <unicode hex="0131"/>
  <anchor x="92" y="0" name="bottom"/>
  <anchor x="91" y="515" name="top"/>
  <outline>
    <contour>
      <point x="106" y="0" type="line"/>
      <point x="106" y="0"/>
      <point x="104" y="122"/>
      <point x="104" y="265" type="curve"/>
      <point x="104" y="409"/>
      <point x="108" y="516"/>
      <point x="108" y="516" type="curve"/>
      <point x="75" y="516" type="line"/>
      <point x="75" y="516"/>
      <point x="76" y="412"/>
      <point x="76" y="266" type="curve"/>
      <point x="76" y="121"/>
      <point x="72" y="2"/>
      <point x="72" y="2" type="curve"/>
    </contour>
  </outline>
</glyph>
<glyph name="kgreenlandic" format="2">
  <advance width="332"/>
  <unicode hex="0138"/>
  <outline>
    <contour>
      <point x="274" y="0" type="curve"/>
      <point x="312" y="3" type="line"/>
      <point x="235" y="103"/>
      <point x="180" y="179"/>
      <point x="116" y="270" type="curve"/>
      <point x="182" y="366"/>
      <point x="231" y="438"/>
      <point x="288" y="519" type="curve"/>
      <point x="253" y="521" type="line"/>
      <point x="206" y="445"/>
      <point x="165" y="383"/>
      <point x="84" y="269" type="curve"/>
      <point x="152" y="177"/>
      <point x="215" y="88"/>
    </contour>
    <contour>
      <point x="60" y="0" type="curve"/>
      <point x="91" y="0" type="line"/>
      <point x="91" y="61"/>
      <point x="91" y="180"/>
      <point x="91" y="284" type="curve"/>
      <point x="91" y="389"/>
      <point x="92" y="478"/>
      <point x="93" y="516" type="curve"/>
      <point x="60" y="518" type="line"/>
      <point x="61" y="481"/>
      <point x="63" y="392"/>
      <point x="63" y="285" type="curve"/>
      <point x="63" y="179"/>
      <point x="61" y="60"/>
    </contour>
  </outline>
</glyph>
<glyph name="lcaron" format="2">
  <advance width="244"/>
  <unicode hex="013E"/>
  <outline>
    <contour>
      <point x="73" y="0" type="curve"/>
      <point x="104" y="0" type="line"/>
      <point x="104" y="61"/>
      <point x="104" y="180"/>
      <point x="104" y="284" type="curve"/>
      <point x="104" y="389"/>
      <point x="105" y="580"/>
      <point x="106" y="694" type="curve"/>
      <point x="73" y="694" type="line"/>
      <point x="74" y="581"/>
      <point x="76" y="392"/>
      <point x="76" y="285" type="curve"/>
      <point x="76" y="179"/>
      <point x="74" y="60"/>
    </contour>
    <contour>
      <point x="200" y="552" type="line"/>
      <point x="216" y="569"/>
      <point x="219" y="607"/>
      <point x="219" y="628" type="curve"/>
      <point x="219" y="652"/>
      <point x="218" y="682"/>
      <point x="218" y="697" type="curve"/>
      <point x="180" y="691" type="line"/>
      <point x="185" y="630" type="line"/>
      <point x="201" y="629" type="line"/>
      <point x="202" y="609"/>
      <point x="199" y="581"/>
      <point x="186" y="562" type="curve"/>
    </contour>
  </outline>
</glyph>
<glyph name="ldot" format="2">
  <advance width="210"/>
  <unicode hex="0140"/>
  <outline>
    <contour>
      <point x="73" y="0" type="curve"/>
      <point x="104" y="0" type="line"/>
      <point x="104" y="0"/>
      <point x="104" y="141"/>
      <point x="104" y="284" type="curve"/>
      <point x="104" y="428"/>
      <point x="106" y="694"/>
      <point x="106" y="694" type="curve"/>
      <point x="73" y="694" type="line"/>
      <point x="73" y="694"/>
      <point x="76" y="431"/>
      <point x="76" y="285" type="curve"/>
      <point x="76" y="140"/>
      <point x="73" y="0"/>
    </contour>
    <contour>
      <point x="211" y="321" type="line"/>
      <point x="209" y="387" type="line"/>
      <point x="175" y="384" type="line"/>
      <point x="178" y="323" type="line"/>
    </contour>
  </outline>
</glyph>
<glyph name="napostrophe" format="2">
  <advance width="354"/>
  <unicode hex="0149"/>
  <outline>
    <contour>
      <point x="81" y="563" type="line"/>
      <point x="102" y="585"/>
      <point x="106" y="627"/>
      <point x="106" y="653" type="curve"/>
      <point x="107" y="693"/>
      <point x="104" y="725"/>
      <point x="104" y="725" type="curve"/>
      <point x="67" y="718" type="line"/>
      <point x="73" y="656" type="line"/>
      <point x="87" y="655" type="line"/>
      <point x="89" y="603"/>
      <point x="67" y="574"/>
      <point x="67" y="574" type="curve"/>
    </contour>
    <component base="n"/>
  </outline>
</glyph>
<glyph name="Eng" format="2">
  <advance width="421"/>
  <unicode hex="014A"/>
  <outline>
    <contour>
      <point x="254" y="-156" type="line"/>
      <point x="324" y="-155"/>
      <point x="348" y="-104"/>
      <point x="348" y="-42" type="curve" smooth="yes"/>
      <point x="348" y="100"/>
      <point x="348" y="241"/>
      <point x="348" y="383" type="curve" smooth="yes"/>
      <point x="348" y="508"/>
      <point x="351" y="646"/>
      <point x="354" y="715" type="curve"/>
      <point x="314" y="715" type="line"/>
      <point x="315" y="621"/>
      <point x="317" y="466"/>
      <point x="317" y="381" type="curve" smooth="yes"/>
      <point x="317" y="305"/>
      <point x="319" y="157"/>
      <point x="318" y="73" type="curve"/>
      <point x="312" y="94"/>
      <point x="273" y="208"/>
      <point x="221" y="369" type="curve" smooth="yes"/>
      <point x="180" y="495"/>
      <point x="136" y="634"/>
      <point x="114" y="704" type="curve"/>
      <point x="67" y="704" type="line"/>
      <point x="70" y="628"/>
      <point x="73" y="481"/>
      <point x="73" y="356" type="curve" smooth="yes"/>
      <point x="73" y="231"/>
      <point x="71" y="80"/>
      <point x="70" y="1" type="curve"/>
      <point x="107" y="0" type="line"/>
      <point x="106" y="102"/>
      <point x="104" y="269"/>
      <point x="104" y="354" type="curve" smooth="yes"/>
      <point x="104" y="444"/>
      <point x="103" y="546"/>
      <point x="103" y="636" type="curve"/>
      <point x="126" y="561"/>
      <point x="175" y="412"/>
      <point x="197" y="344" type="curve" smooth="yes"/>
      <point x="233" y="233"/>
      <point x="280" y="105"/>
      <point x="314" y="-7" type="curve"/>
      <point x="314" y="-98"/>
      <point x="303" y="-128"/>
      <point x="249" y="-128" type="curve"/>
    </contour>
  </outline>
</glyph>
